<svg xmlns="http://www.w3.org/2000/svg" xmlns:xlink="http://www.w3.org/1999/xlink" width="89" height="44" viewBox="0 0 89 44"><defs><path id="5bvea" d="M468.7 2470.3c0 1.52.4 2.74 1.2 3.66.8.92 1.86 1.38 3.18 1.38s2.39-.46 3.21-1.38c.82-.92 1.23-2.14 1.23-3.66 0-1.48-.41-2.68-1.23-3.6-.82-.92-1.89-1.38-3.21-1.38s-2.38.46-3.18 1.38c-.8.92-1.2 2.12-1.2 3.6zm4.38-9.18c2.68 0 4.87.82 6.57 2.46 1.7 1.64 2.55 3.88 2.55 6.72s-.85 5.09-2.55 6.75c-1.7 1.66-3.89 2.49-6.57 2.49-2.64 0-4.81-.83-6.51-2.49-1.7-1.66-2.55-3.91-2.55-6.75 0-2.8.85-5.03 2.55-6.69 1.7-1.66 3.87-2.49 6.51-2.49zm-24.6-15.84c0 1.52.4 2.73 1.2 3.63.8.9 1.86 1.35 3.18 1.35s2.39-.46 3.21-1.38c.82-.92 1.23-2.12 1.23-3.6 0-1.52-.41-2.74-1.23-3.66-.82-.92-1.89-1.38-3.21-1.38s-2.38.46-3.18 1.38c-.8.92-1.2 2.14-1.2 3.66zm29.82-8.7L454.36 2479h-6.72l24-42.42zm-25.38-.54c2.68 0 4.86.83 6.54 2.49 1.68 1.66 2.52 3.91 2.52 6.75s-.84 5.08-2.52 6.72c-1.68 1.64-3.86 2.46-6.54 2.46s-4.87-.82-6.57-2.46c-1.7-1.64-2.55-3.88-2.55-6.72s.85-5.09 2.55-6.75c1.7-1.66 3.89-2.49 6.57-2.49zm-12.54 5.52L424.6 2479h-7.2l16.02-36.66h-21v-5.94h27.96zm-46.5 1.5v-6.42h13.56V2479h-7.2v-35.94z"/></defs><g><g transform="translate(-394 -2436)"><use fill="#fff" xlink:href="#5bvea"/></g></g></svg>