<svg xmlns="http://www.w3.org/2000/svg" xmlns:xlink="http://www.w3.org/1999/xlink" width="163" height="75" viewBox="0 0 163 75"><defs><path id="jdxpa" d="M800.2 1894.52h-12v12.12h-6.66v-12.12H769.6v-6.3h11.94v-12.18h6.66v12.18h12zm-52.08-2.94l18.66 21.42h-8.34l-16.74-19.62V1913h-6.84v-42.36h6.84v19.38l16.8-19.38h8.28zm-18.96-16.02L713.38 1913h-7.2l16.02-36.66h-21v-5.94h27.96zm-60.48 32.1c6.48-4.44 11.67-8.79 15.57-13.05 3.9-4.26 5.85-8.21 5.85-11.85 0-2.16-.53-3.88-1.59-5.16-1.06-1.28-2.77-1.92-5.13-1.92-2.44 0-4.28.79-5.52 2.37-1.24 1.58-1.94 3.83-2.1 6.75h-6.66c.28-4.84 1.77-8.54 4.47-11.1 2.7-2.56 6.15-3.84 10.35-3.84 4.12 0 7.35 1.09 9.69 3.27 2.34 2.18 3.51 5.19 3.51 9.03 0 3.08-.95 6.2-2.85 9.36-1.9 3.16-4.31 6.07-7.23 8.73-2.92 2.66-5.94 4.95-9.06 6.87h20.1v5.58h-29.4z"/><mask id="jdxpc" width="2" height="2" x="-1" y="-1"><path fill="#fff" d="M668 1869h133v44H668z"/><use xlink:href="#jdxpa"/></mask><filter id="jdxpb" width="189" height="103" x="640" y="1841" filterUnits="userSpaceOnUse"><feOffset dy="3" in="SourceGraphic" result="FeOffset1270Out"/><feGaussianBlur in="FeOffset1270Out" result="FeGaussianBlur1271Out" stdDeviation="7.2 7.2"/></filter></defs><g><g transform="translate(-653 -1857)"><g filter="url(#jdxpb)"><use fill="none" stroke-width="0" mask="url(&quot;#jdxpc&quot;)" xlink:href="#jdxpa"/><use xlink:href="#jdxpa"/></g><use fill="#fff" xlink:href="#jdxpa"/></g></g></svg>