<svg xmlns="http://www.w3.org/2000/svg" xmlns:xlink="http://www.w3.org/1999/xlink" width="178" height="76" viewBox="0 0 178 76"><defs><path id="bpm1a" d="M1057.36 1871.32c2.8 0 5.2.49 7.2 1.47s3.51 2.33 4.53 4.05c1.02 1.72 1.53 3.64 1.53 5.76 0 2.68-.75 4.91-2.25 6.69-1.5 1.78-3.61 2.85-6.33 3.21v.3c2.92.84 5.21 2.09 6.87 3.75 1.66 1.66 2.49 3.95 2.49 6.87 0 3.56-1.18 6.45-3.54 8.67-2.36 2.22-5.74 3.33-10.14 3.33-4.52 0-8.16-1.15-10.92-3.45-2.76-2.3-4.34-5.71-4.74-10.23h6.78c.24 2.4 1.1 4.31 2.58 5.73 1.48 1.42 3.48 2.13 6 2.13 2.36 0 4.17-.62 5.43-1.86 1.26-1.24 1.89-2.84 1.89-4.8 0-2.36-.91-4.16-2.73-5.4-1.82-1.24-4.45-1.86-7.89-1.86h-1.62v-5.64h1.62c6.52.08 9.78-2.14 9.78-6.66 0-1.96-.6-3.5-1.8-4.62-1.2-1.12-2.84-1.68-4.92-1.68s-3.82.63-5.22 1.89c-1.4 1.26-2.24 3.09-2.52 5.49h-6.72c.28-4.16 1.68-7.39 4.2-9.69 2.52-2.3 6-3.45 10.44-3.45zm-35.64 0c2.8 0 5.2.49 7.2 1.47s3.51 2.33 4.53 4.05c1.02 1.72 1.53 3.64 1.53 5.76 0 2.68-.75 4.91-2.25 6.69-1.5 1.78-3.61 2.85-6.33 3.21v.3c2.92.84 5.21 2.09 6.87 3.75 1.66 1.66 2.49 3.95 2.49 6.87 0 3.56-1.18 6.45-3.54 8.67-2.36 2.22-5.74 3.33-10.14 3.33-4.52 0-8.16-1.15-10.92-3.45-2.76-2.3-4.34-5.71-4.74-10.23h6.78c.24 2.4 1.1 4.31 2.58 5.73 1.48 1.42 3.48 2.13 6 2.13 2.36 0 4.17-.62 5.43-1.86 1.26-1.24 1.89-2.84 1.89-4.8 0-2.36-.91-4.16-2.73-5.4-1.82-1.24-4.45-1.86-7.89-1.86h-1.62v-5.64h1.62c6.52.08 9.78-2.14 9.78-6.66 0-1.96-.6-3.5-1.8-4.62-1.2-1.12-2.84-1.68-4.92-1.68s-3.82.63-5.22 1.89c-1.4 1.26-2.24 3.09-2.52 5.49h-6.72c.28-4.16 1.68-7.39 4.2-9.69 2.52-2.3 6-3.45 10.44-3.45zm-19.86 36.12v7.56h-7.74v-7.56zm-27.18-36.12c2.8 0 5.2.49 7.2 1.47s3.51 2.33 4.53 4.05c1.02 1.72 1.53 3.64 1.53 5.76 0 2.68-.75 4.91-2.25 6.69-1.5 1.78-3.61 2.85-6.33 3.21v.3c2.92.84 5.21 2.09 6.87 3.75 1.66 1.66 2.49 3.95 2.49 6.87 0 3.56-1.18 6.45-3.54 8.67-2.36 2.22-5.74 3.33-10.14 3.33-4.52 0-8.16-1.15-10.92-3.45-2.76-2.3-4.34-5.71-4.74-10.23h6.78c.24 2.4 1.1 4.31 2.58 5.73 1.48 1.42 3.48 2.13 6 2.13 2.36 0 4.17-.62 5.43-1.86 1.26-1.24 1.89-2.84 1.89-4.8 0-2.36-.91-4.16-2.73-5.4-1.82-1.24-4.45-1.86-7.89-1.86h-1.62v-5.64h1.62c6.52.08 9.78-2.14 9.78-6.66 0-1.96-.6-3.5-1.8-4.62-1.2-1.12-2.84-1.68-4.92-1.68s-3.82.63-5.22 1.89c-1.4 1.26-2.24 3.09-2.52 5.49h-6.72c.28-4.16 1.68-7.39 4.2-9.69 2.52-2.3 6-3.45 10.44-3.45zm-35.64 0c2.8 0 5.2.49 7.2 1.47s3.51 2.33 4.53 4.05c1.02 1.72 1.53 3.64 1.53 5.76 0 2.68-.75 4.91-2.25 6.69-1.5 1.78-3.61 2.85-6.33 3.21v.3c2.92.84 5.21 2.09 6.87 3.75 1.66 1.66 2.49 3.95 2.49 6.87 0 3.56-1.18 6.45-3.54 8.67-2.36 2.22-5.74 3.33-10.14 3.33-4.52 0-8.16-1.15-10.92-3.45-2.76-2.3-4.34-5.71-4.74-10.23h6.78c.24 2.4 1.1 4.31 2.58 5.73 1.48 1.42 3.48 2.13 6 2.13 2.36 0 4.17-.62 5.43-1.86 1.26-1.24 1.89-2.84 1.89-4.8 0-2.36-.91-4.16-2.73-5.4-1.82-1.24-4.45-1.86-7.89-1.86h-1.62v-5.64h1.62c6.52.08 9.78-2.14 9.78-6.66 0-1.96-.6-3.5-1.8-4.62-1.2-1.12-2.84-1.68-4.92-1.68s-3.82.63-5.22 1.89c-1.4 1.26-2.24 3.09-2.52 5.49h-6.72c.28-4.16 1.68-7.39 4.2-9.69 2.52-2.3 6-3.45 10.44-3.45z"/><mask id="bpm1c" width="2" height="2" x="-1" y="-1"><path fill="#fff" d="M923 1871h149v45H923z"/><use xlink:href="#bpm1a"/></mask><filter id="bpm1b" width="205" height="104" x="895" y="1843" filterUnits="userSpaceOnUse"><feOffset dy="3" in="SourceGraphic" result="FeOffset1290Out"/><feGaussianBlur in="FeOffset1290Out" result="FeGaussianBlur1291Out" stdDeviation="7.2 7.2"/></filter></defs><g><g transform="translate(-909 -1858)"><g filter="url(#bpm1b)"><use fill="none" stroke-width="0" mask="url(&quot;#bpm1c&quot;)" xlink:href="#bpm1a"/><use xlink:href="#bpm1a"/></g><use fill="#fff" xlink:href="#bpm1a"/></g></g></svg>