<svg xmlns="http://www.w3.org/2000/svg" xmlns:xlink="http://www.w3.org/1999/xlink" width="51" height="47" viewBox="0 0 51 47"><defs><path id="tzowa" d="M959.8 279.917v11.327l-10.844-5.663zm2.957 11.327v-11.327l10.845 5.664zm0 4.879l10.845 5.663-10.845 5.663zm12.56 3.224l-10.846-5.664 10.845-5.663zM947.24 288.02l10.845 5.663-10.845 5.664zm1.715 13.766l10.845-5.663v11.326zm25.694 2.787l2.828-1.477c.488-.255.794-.76.794-1.31V285.58c0-.03 0-.057-.003-.083a1.478 1.478 0 0 0-.79-1.228l-15.516-8.102a1.48 1.48 0 0 0-1.368 0l-15.516 8.102a1.478 1.478 0 0 0-.794 1.31s.001 16.261.003 16.286c.028.519.327.988.79 1.23l2.802 1.463c-5.306.95-11.88 2.917-11.88 6.819 0 4.182 7.49 6.14 13.062 7.018l-2.493 1.713a1.478 1.478 0 0 0 1.674 2.436l5.74-3.943a1.478 1.478 0 0 0 .311-2.148l-4.384-5.421a1.478 1.478 0 0 0-2.299 1.86l2.12 2.621c-8.136-1.237-10.775-3.396-10.775-4.136 0-.805 3.185-3.344 13.404-4.48l8.235 4.3a1.476 1.476 0 0 0 1.368 0l8.216-4.29c10.15 1.141 13.316 3.669 13.316 4.47 0 .372-.988 1.72-5.376 2.985-4.035 1.162-9.524 1.857-15.454 1.956a1.478 1.478 0 0 0 .024 2.956h.025c6.184-.104 11.945-.84 16.223-2.072 4.986-1.436 7.514-3.396 7.514-5.825 0-3.884-6.518-5.85-11.801-6.805z"/></defs><g><g transform="translate(-936 -276)"><use xlink:href="#tzowa"/></g></g></svg>