<svg xmlns="http://www.w3.org/2000/svg" xmlns:xlink="http://www.w3.org/1999/xlink" width="247" height="39" viewBox="0 0 247 39"><defs><path id="cdtxa" d="M836.78 5341.837c.083-.094.288-.407.28-.52-.107.144-.244.314-.28.52zm-26.414-3.313c-1.416.417-2.347 1.47-2.873 2.752-.118.29-.16.603-.257.924v.052c.228-.04.484-.074.75-.114h.536c.443 0 .899.005 1.265-.083 1.519-.365 2.844-1.508 3.215-2.97l-.804.498c-.29.118-.713.056-1.05.135l-.675.28c.534-.744 2.594-.808 2.593-1.962h-.032c-.532.417-1.92.268-2.668.488zm14.295-.498c.162.484.583.988 1.05 1.184.573.239 1.279.25 1.554.778l-.418-.145c-.404-.098-.845-.093-1.2-.229-.343-.13-.589-.353-.879-.53.222 1.37 1.881 2.687 3.247 2.981.737.16 1.754-.021 2.475.177h.043c-.446-1.694-1.412-3.207-3.097-3.707-.422-.126-.965-.05-1.446-.135a7.977 7.977 0 0 1-1.329-.374zm-11.991-8.09l-1.008.135.622.945c.817 1.267 1.438 1.897 3.59 1.87l-.022-.032-.3-.145-.29-.218c-.206-.163-.36-.42-.524-.623a666.83 666.83 0 0 1-.386-.385c.65.104.945.69 1.436.976.173.102.58.23.846.104h.022c-.044-.132-.197-.182-.3-.26a1.524 1.524 0 0 1-.322-.373c-.195-.302-.327-.647-.546-.924-.539-.682-1.572-1.09-2.818-1.07zm12.137 0c-.685.07-1.018.09-1.421.25-.859.336-1.137 1.058-1.661 1.713-.146.182-.543.451-.611.664 1.276-.002 1.29-.999 2.229-1.08-.083.138-.303.205-.407.333-.206.25-.363.58-.622.778-.13.1-.321.143-.45.25.084.059.304.01.418.01a4.63 4.63 0 0 0 1.093-.135c1.175-.291 1.64-.99 2.197-1.87l.525-.81c-.425-.04-.823-.103-1.29-.103zm-18.192-6.813l-.665.073.783 1.495c.403.89 1.035 2.128 1.757 2.69.713.555 1.257.858 2.197 1.215.553.21 1.17.313 1.832.426.231.04.66.04.815-.052h.021l-.375-.166a3.116 3.116 0 0 1-.503-.374c-.453-.4-.726-.993-1.083-1.485-.198-.273-.456-.483-.664-.737.905.137 1.288.878 1.757 1.443.412.496 1.433.88 2.326.904-.342-.437-.75-.85-1.061-1.32l-.804-1.609c-.159-.255-.368-.478-.557-.706-1.063-1.279-3.334-1.827-5.776-1.797zm23.104-.03l-1.072.134a9.465 9.465 0 0 0-1.64.52c-.996.426-1.831 1.248-2.368 2.128l-.739 1.506-.932 1.111-.032.042c.8-.104 1.452-.211 1.96-.582.573-.417.866-1.118 1.469-1.505.192-.124.414-.192.654-.27-.047.106-.233.16-.322.228l-.279.332-.418.82c-.309.506-.952 1.2-1.586 1.372l-.01.02c.069.047.639.016.771 0 .719-.084 1.368-.167 1.95-.363 1.28-.43 2.26-1.1 2.97-2.077.521-.72.845-1.62 1.231-2.472.132-.29.314-.558.461-.83v-.032c-.683-.024-1.351-.086-2.068-.083zm-13.342-1.62c-.28.855-.88 1.24-1.2 1.993-.515 1.215-.046 3.026.632 3.728h.011c-.212-1.026.563-1.358.6-2.243l.021-.01c.005.887-.552 2.362.13 2.856.213-1.076.812-1.512 1.103-2.43.345-1.09-.248-2.571-.664-3.23-.168-.264-.34-.524-.633-.665zm4.951-.053l-.375.54c-.312.481-.635.974-.825 1.568-.471 1.471.206 2.368.707 3.313l.236.499.129.415v.02l.032-.02c.087-.064.126-.262.171-.363.33-.736.059-1.143-.086-1.87-.038-.191-.013-.411-.01-.612h.032c.042.87.63 1.252.61 2.243.137-.074.415-.72.494-.893.122-.27.247-.55.321-.883.309-1.381-.472-2.332-.975-3.116l-.46-.84zm-4.297-7.466h.064c-.063.321-.27.602-.396.882-.156.35-.252.72-.332 1.153-.26 1.4.415 3.167.921 3.967l.632.935.043.01c0-.502-.032-1.032.086-1.443.156-.544.464-.972.632-1.485.081-.248.072-.65.107-.893h.011c.428.866-.04 1.931-.193 2.814-.102.588.154 1.063.322 1.433.088.196.157.398.321.52.037-1.422.978-2.368 1.426-3.459.604-1.472.206-3.213-.333-4.414l.386.032c.47.077.921.107 1.35.197 1.316.277 2.486.585 3.59 1.038.306.126.978.338 1.19.53-.48.15-.824.512-1.18.79-.992.774-1.725 2.183-2.035 3.624-.16.745.062 1.667.16 2.346.085.58-.19 1.082-.203 1.61.716-.244 1.291-1.188 1.49-1.973.198-.785.085-1.733.707-2.098-.117.287-.315.667-.236 1.101.052.286.17.626.107.966a5.09 5.09 0 0 1-.353 1.173l-.236.457c1.396-.658 2.672-2.177 3.258-3.634.147-.366.191-.76.267-1.205.053-.31-.015-.673-.064-.914l-.236-1.464c.785.413 1.474.983 2.154 1.506l.836.727.29.29c-1.362.268-1.94.975-2.583 1.922l-.632.913c.356-.091.578-.055.846-.218.521-.315.708-.789 1.361-1.028h.011v.01c-.096.139-.3.212-.407.354-.3.398-.454.94-1.007 1.09.032.048.245.046.332.031.31-.051.62-.057.89-.124 1.004-.253 1.513-.628 1.982-1.402l.246-.436.021-.01.611.736c.35.45.661.917.975 1.403.139.213.349.455.43.706-1.757.238-2.428 1.272-3.194 2.46l-.643.935v.01c1.52-.031 1.486-1.307 2.55-1.484-.092.151-.318.234-.429.384-.34.461-.549 1.225-1.21 1.36.035.053.272.043.364.032.326-.04.642-.051.932-.125 1.076-.272 2.112-.852 2.497-1.776l.032-.02.322.799.386 1.174c-2.245-.002-3.62.469-4.855 1.433-.486.38-.844.957-1.232 1.433-.295.36-.78.602-1.168.872l-.44.353-.043.052c.934.086 1.982.097 2.604-.28.61-.37 1.403-1.402 2.433-1.132l-.321.083c-.151.06-.297.156-.418.25-.386.294-.598.776-.986 1.069-.38.286-.856.429-1.34.623l-.493.218v.041l1.854.312c.765.137 1.693.026 2.315-.156a7.124 7.124 0 0 0 1.864-.862l.88-.602c-.002 1.221-.02 2.377-.226 3.437l-.332 1.973-.857-.415c-.935-.399-2.189-.929-3.601-.665a6.994 6.994 0 0 0-1.51.478c-.874.373-1.565.928-2.787.987.091.155.438.23.6.322.265.15.558.275.9.353.833.188 1.49-.229 2.165-.343.44-.075.727.14 1.071.177-.003.005-.776.12-.846.145l-.932.426c-.543.206-1.35.206-2.037.135.104.188.893.625 1.126.758.834.477 2.458 1.111 3.89.84.693-.13 1.266-.345 1.864-.57-.136.418-.382.84-.6 1.204-.403.673-.75 1.343-1.2 1.963-.42.578-.89 1.1-1.34 1.64-.308.372-.675.721-1.06 1.019l-.376.3-.021.032h.214l-.439.374c-.405.313-.793.637-1.222.935-1.287.891-2.665 1.613-4.265 2.222-.476.181-.994.369-1.521.488-.252-.194-.48-.716-.622-1.028-.3-.662-.456-1.385-.61-2.223-.07-.373.024-.748-.044-1.142l.011-1.205.064-.81c.11-.603.153-1.197.3-1.755.409-1.549 1.002-2.864 1.833-3.998.268-.366.593-.684.879-1.028.254-.307.572-.616.89-.862.522-.406 1.031-.812 1.628-1.152.412-.235 1.14-.48 1.457-.78l.022-.01c-2.337-.433-4.947.328-6.387 1.143l-1.736 1.07-.257-.728c-.214-.571-.365-1.149-.558-1.776l-.76-2.824-.333-1.973-.353-2.015h-.01a43.109 43.109 0 0 1-.794 3.645l-.46 1.994-.408 1.423-.343 1.526c-.083.265-.23.5-.31.738l-.033.02-1.618-.851c-1.738-.983-4.385-1.948-7.18-1.392.04.06.346.185.429.229.347.182.707.359 1.082.519.964.412 1.67 1.025 2.433 1.62.54.422 1.104 1.121 1.521 1.672 1.43 1.886 2.827 4.475 2.444 7.892-.061.545-.047 1.054-.172 1.537-.175.678-.371 1.324-.696 1.86l-.354.529-.225.27-.686-.177c-.454-.134-.89-.256-1.307-.415-1.634-.622-3.037-1.345-4.351-2.253-.43-.297-.816-.623-1.222-.935l-.439-.374h.129l-1.372-1.277-.975-1.195c-.334-.426-.71-.839-1.008-1.298-.247-.381-.436-.786-.675-1.184-.21-.35-.374-.733-.546-1.121l-.204-.478c.687.401 1.395.763 2.293.956 1.442.309 3.382-.32 4.244-.81.38-.216.764-.414 1.018-.748-.458.04-.978.104-1.415-.021-.776-.222-1.32-.654-2.314-.675.308-.312 1.198-.167 1.618-.052.342.094.668.176 1.06.239.69.11 1.741-.375 1.973-.717-1.32-.005-2.42-.867-3.45-1.256-1.29-.488-3.165-.14-4.234.29-.372.15-1.235.528-1.393.831l-.054.042c-.16-.267-.22-.925-.3-1.277-.13-.58-.163-1.216-.268-1.849l-.042-.935-.011-1.049.064-1.017h.022c.168.506.768.836 1.21 1.09 1.484.854 3.99 1.26 6.045.634l.01-.02c-.509-.244-1.154-.36-1.586-.676-.425-.312-.658-.829-1.082-1.142l-.825-.436h-.022c.226-.088.599.044.761.093.723.216 1.116.72 1.693 1.07.68.411 1.604.284 2.572.26v-.011c-.08-.123-.351-.164-.482-.24-.288-.164-.598-.395-.804-.643-1.05-1.263-1.949-2.401-3.761-2.939-.879-.26-2.007-.272-3.15-.26a13.62 13.62 0 0 1 .632-1.796l.31-.717v-.02l.536.997c.674.869 1.904 1.459 3.483 1.433v-.01c-.082-.123-.467-.257-.6-.416-.25-.298-.443-.635-.675-.955l-.354-.405c1.13.262 1.123 1.497 2.572 1.485-.207-.265-.458-.504-.654-.79-.525-.768-.813-1.623-1.629-2.108-.515-.306-1.32-.37-1.993-.53.125-.364.43-.704.632-1.017.376-.579.8-1.094 1.222-1.62l.46-.53c.383 1.413 1.694 2.355 3.58 2.326-.023-.074-.36-.244-.44-.321-.318-.313-.45-.961-.92-1.112v-.03c.937.094.928 1.225 2.196 1.214l-.3-.29c-.188-.267-.278-.596-.45-.863-.437-.676-1.07-1.34-1.95-1.578l-.944-.135c.275-.354.703-.67 1.061-.945.837-.644 1.685-1.379 2.69-1.849-.076.548-.169 1.02-.278 1.548-.056.268-.11.658-.054.976.237 1.357.705 2.373 1.382 3.292.17.231.388.426.568.644.35.42.935.888 1.544 1.038-.238-.46-.455-.924-.569-1.516-.098-.515.18-.909.097-1.402-.05-.298-.192-.514-.247-.779.12.074.168.22.247.333.115.164.273.323.332.54l.193 1.464c.194.795.747 1.44 1.436 1.765h.01c-.04-.375-.193-.912-.117-1.36l.032-.82c.12-.718.089-1.851-.097-2.451-.389-1.262-1.131-2.327-2.078-3.054l-.73-.519-.46-.3h-.021c.19-.184.906-.403 1.2-.52 1.097-.438 2.287-.723 3.58-.997l1.553-.197zm2.047-1.953l-.59.01c-.477.01-.97-.007-1.414.063l-1.447.114c-.754.142-1.524.281-2.24.488-.683.198-1.366.377-2.004.623-4.078 1.573-7.409 4.056-9.612 7.446-1.113 1.713-1.97 3.588-2.636 5.753-.29.944-.38 1.965-.568 3.023l-.096 1.391c-.06.365-.072.922-.011 1.298l.064 1.184.16 1.111c.22.972.46 1.91.75 2.804.81 2.494 1.976 4.483 3.42 6.335.548.704 1.27 1.55 1.971 2.098l.397.373c.49.383.952.806 1.468 1.164.78.539 1.594 1.026 2.443 1.505.877.496 1.867.852 2.861 1.226 1.316.494 2.76.696 4.33.965.59.102 1.222.029 1.843.125l.997-.01.557-.01 1.19-.105c.71-.118 1.38-.153 2.035-.31a25.686 25.686 0 0 0 4.126-1.351c1.522-.65 2.817-1.508 4.061-2.42 3.224-2.362 5.578-5.785 6.89-10.01.26-.833.4-1.735.58-2.67l.118-1.235c.073-.442.119-1.363.042-1.838-.086-.54-.005-1.096-.096-1.61-.174-.984-.274-1.917-.514-2.814-.418-1.564-1.01-3.057-1.769-4.32-.471-.785-.89-1.554-1.414-2.275-2.043-2.803-4.807-4.997-8.23-6.46-.675-.287-1.366-.582-2.111-.81-.749-.227-1.532-.344-2.347-.518a14.659 14.659 0 0 0-3.204-.333z"/><path id="cdtxb" d="M1008.868 5333.95h7.84l-3.655-8.572c-.101-.227-.177-.429-.278-.68-.1.251-.176.453-.277.68zm-4.942 6.226l7.69-17.647h2.344l7.664 17.647h-2.269l-1.815-4.26h-9.504l-1.815 4.26zm-11.895-17.647v15.63h9.782v2.017h-11.9v-17.647zm-5.848 0v11.193c0 5.043-3.454 6.757-7.362 6.757-3.933 0-7.386-1.714-7.386-6.757v-11.193h2.117v11.093c0 3.58 2.219 4.84 5.27 4.84 3.024 0 5.243-1.26 5.243-4.84v-11.093zm-18.48 0v17.647h-2.117v-13.639l-6.328 9.48h-1.311l-6.328-9.48v13.64h-2.117v-17.648h1.815l7.285 10.89 7.286-10.89zm-32.9 8.672h4.892c2.117 0 4.361-.705 4.361-3.327 0-2.647-2.244-3.328-4.361-3.328h-4.891zm-2.117 8.975v-17.647h6.908c3.176 0 6.605 1.311 6.605 5.345 0 3.252-2.219 4.714-4.714 5.168l5.974 7.134h-2.647l-5.773-6.958h-4.235v6.958zm-11.975-15.933c-4.79 0-7.084 3.48-7.084 7.11 0 3.63 2.294 7.109 7.084 7.109 4.79 0 7.084-3.479 7.084-7.11 0-3.63-2.294-7.109-7.084-7.109zm0-2.016c6.177 0 9.227 4.563 9.227 9.126s-3.05 9.126-9.227 9.126c-6.176 0-9.227-4.563-9.227-9.126s3.05-9.126 9.227-9.126zm-26.672 17.95v-17.648h1.966l10.614 14.093v-14.093h2.117v17.647h-1.966l-10.614-14.118v14.118zm-11.975-15.934c-4.79 0-7.085 3.48-7.085 7.11 0 3.63 2.295 7.109 7.085 7.109s7.084-3.479 7.084-7.11c0-3.63-2.294-7.109-7.084-7.109zm0-2.016c6.176 0 9.227 4.563 9.227 9.126s-3.05 9.126-9.227 9.126c-6.177 0-9.227-4.563-9.227-9.126s3.05-9.126 9.227-9.126zm-11.975.302v17.647h-2.118v-17.647zm-7.74 4.765c0-2.093-1.538-2.748-4.034-2.748h-4.94v5.496h5.52c1.84 0 3.454-.731 3.454-2.748zm-3.504 4.765h-5.47v6.1h4.89c2.218 0 4.79-.15 4.79-3.05 0-2.748-2.521-3.05-4.21-3.05zm-.353-9.53c3.605 0 6 1.487 6 4.462 0 2.244-1.437 3.505-2.824 3.908 1.463.403 3.53 1.563 3.53 4.437 0 4.008-3.933 4.84-6.504 4.84h-7.438v-17.647z"/><path id="cdtxc" d="M1037.71 5330.805v-6.72h-1.89v6.72h-6.72v1.89h6.72v6.72h1.89v-6.72h6.684v-1.89z"/></defs><g><g transform="translate(-798 -5312)"><g><g><use fill="#fff" xlink:href="#cdtxa"/></g><g><use fill="#fff" xlink:href="#cdtxb"/></g></g><g><use fill="#fff" xlink:href="#cdtxc"/></g></g></g></svg>