<svg xmlns="http://www.w3.org/2000/svg" xmlns:xlink="http://www.w3.org/1999/xlink" width="17" height="32" viewBox="0 0 17 32"><defs><path id="caqka" d="M893.231 1014.722v-31.444h17.538v31.444zm15.673-16.004l-13.231-13.898a.765.765 0 0 0-1.123 0 .86.86 0 0 0 0 1.18l12.667 13.305-12.667 13.305a.86.86 0 0 0 0 1.18.78.78 0 0 0 .559.246c.2 0 .405-.08.558-.247l13.231-13.898a.859.859 0 0 0 .006-1.173z"/><path id="caqkb" d="M908.904 998.718l-13.231-13.898a.765.765 0 0 0-1.123 0 .86.86 0 0 0 0 1.18l12.667 13.305-12.667 13.305a.86.86 0 0 0 0 1.18.78.78 0 0 0 .559.246c.2 0 .405-.08.558-.247l13.231-13.898a.859.859 0 0 0 .006-1.173z"/><clipPath id="caqkc"><use fill="#fff" xlink:href="#caqka"/></clipPath></defs><g><g transform="translate(-893 -983)"><use fill="#fff" xlink:href="#caqkb"/><use fill="#fff" fill-opacity="0" stroke="#fff" stroke-miterlimit="50" stroke-width="2" clip-path="url(&quot;#caqkc&quot;)" xlink:href="#caqkb"/></g></g></svg>