<svg xmlns="http://www.w3.org/2000/svg" width="261.36" height="42.795" viewBox="0 0 261.36 42.795">
  <path id="сухой_сок" data-name="сухой сок" d="M1.125-15.435C1.125-3.96,9.72.72,18.63.72a22.254,22.254,0,0,0,9.225-1.89v-9.5c-1.62,1.44-4.635,2.25-7.875,2.25-4.14,0-8.19-2.07-8.19-7.02,0-5.625,4.095-7.785,8.415-7.785a13.912,13.912,0,0,1,7.425,2.16v-9.27a22.769,22.769,0,0,0-9.27-1.89C9.72-32.22,1.08-27.405,1.125-15.435Zm48.2,8.19L60.66-31.5H49.59L44.955-19.125,39.2-31.5H28.08L40.05-10.755l-.495.99c-.585,1.35-1.935,1.8-3.645,1.8a11.35,11.35,0,0,1-3.69-.63v8.37A21.313,21.313,0,0,0,37.935.72C43.155.72,46.62-1.4,49.32-7.245ZM70.785,0l5.22-8.865L81.18,0h12.1l-10.8-16.245L92.745-31.5H80.64l-4.635,8.145L71.325-31.5H59.22L69.48-16.245,58.68,0Zm19.89-15.75C90.675-6.705,96.39.72,107.73.72s17.055-7.425,17.055-16.47S119.07-32.22,107.73-32.22,90.675-24.8,90.675-15.75Zm23.445,0c0,4.32-2.34,7.065-6.39,7.065s-6.39-2.745-6.39-7.065,2.34-7.065,6.39-7.065S114.12-20.07,114.12-15.75ZM146.52,0V-9.45a44.173,44.173,0,0,1,.27-5.31L136.125,0H127.35V-31.5h10.395V-22.1a45.176,45.176,0,0,1-.27,5.4L148.14-31.5h8.775V0Zm3.96-35.64v-6.435a15.478,15.478,0,0,1-8.145,2.07,15.371,15.371,0,0,1-8.145-2.07v6.435a14.449,14.449,0,0,0,8.145,2.3A14.449,14.449,0,0,0,150.48-35.64Zm16.335,20.205C166.815-3.96,175.41.72,184.32.72a22.254,22.254,0,0,0,9.225-1.89v-9.5c-1.62,1.44-4.635,2.25-7.875,2.25-4.14,0-8.19-2.07-8.19-7.02,0-5.625,4.1-7.785,8.415-7.785a13.912,13.912,0,0,1,7.425,2.16v-9.27a22.769,22.769,0,0,0-9.27-1.89C175.41-32.22,166.77-27.405,166.815-15.435Zm28.08-.315c0,9.045,5.715,16.47,17.055,16.47S229-6.705,229-15.75,223.29-32.22,211.95-32.22,194.895-24.8,194.895-15.75Zm23.445,0c0,4.32-2.34,7.065-6.39,7.065s-6.39-2.745-6.39-7.065,2.34-7.065,6.39-7.065S218.34-20.07,218.34-15.75ZM241.965,0V-11.25h2.385L251.055,0h11.43L252.72-15.885,262.3-31.5h-11.43l-6.3,11.16h-2.61V-31.5h-10.4V0Z" transform="translate(-1.125 42.075)"/>
</svg>
