<svg xmlns="http://www.w3.org/2000/svg" xmlns:xlink="http://www.w3.org/1999/xlink" width="93" height="93" viewBox="0 0 93 93"><defs><path id="hxefa" d="M643 6546v-93h93v93zm46.285-3.782c23.62 0 42.77-19.149 42.77-42.77 0-23.62-19.15-42.768-42.77-42.768-23.62 0-42.769 19.148-42.769 42.769 0 23.62 19.148 42.769 42.769 42.769z"/><path id="hxefb" d="M646.516 6499.449c0-23.621 19.148-42.77 42.769-42.77 23.62 0 42.77 19.149 42.77 42.77 0 23.62-19.15 42.769-42.77 42.769-23.62 0-42.769-19.149-42.769-42.77z"/><path id="hxefe" d="M679.282 6489.104h-.002a1.065 1.065 0 0 0-1.064 1.07v16.035c0 .588.48 1.068 1.07 1.07 2.49.005 6.66.524 9.537 3.535v-16.782c0-.2-.05-.387-.147-.542-2.361-3.803-6.899-4.38-9.394-4.386z"/><path id="hxeff" d="M701.091 6506.21v-16.037a1.065 1.065 0 0 0-1.064-1.07h-.002c-2.495.006-7.033.584-9.394 4.387a1.025 1.025 0 0 0-.147.542v16.782c2.877-3.011 7.047-3.53 9.536-3.536a1.073 1.073 0 0 0 1.071-1.069z"/><path id="hxefg" d="M703.527 6492.802h-.776v13.407a2.736 2.736 0 0 1-2.727 2.73c-2.111.005-5.592.417-8.058 2.751 4.264-1.044 8.76-.365 11.321.219a1.067 1.067 0 0 0 1.31-1.042v-16.996c0-.59-.48-1.07-1.07-1.07z"/><path id="hxefh" d="M676.555 6506.21v-13.408h-.775c-.59 0-1.07.48-1.07 1.069v16.995c0 .327.147.632.403.836.256.204.586.28.906.206 2.562-.584 7.058-1.262 11.322-.218-2.466-2.334-5.947-2.746-8.059-2.752a2.736 2.736 0 0 1-2.727-2.729z"/><linearGradient id="hxefc" x1="718.3" x2="660.9" y1="6467.97" y2="6534.11" gradientUnits="userSpaceOnUse"><stop offset="0" stop-color="#01eb79"/><stop offset="1" stop-color="#0b9444"/></linearGradient><clipPath id="hxefd"><use fill="#fff" xlink:href="#hxefa"/></clipPath></defs><g><g transform="translate(-643 -6453)"><use fill="url(#hxefc)" xlink:href="#hxefb"/><use fill="#fff" fill-opacity="0" stroke="#fff" stroke-miterlimit="50" stroke-opacity=".15" stroke-width="6" clip-path="url(&quot;#hxefd&quot;)" xlink:href="#hxefb"/></g><g transform="translate(-643 -6453)"><g><g><g><use fill="#fff" xlink:href="#hxefe"/></g><g><use fill="#fff" xlink:href="#hxeff"/></g><g><use fill="#fff" xlink:href="#hxefg"/></g><g><use fill="#fff" xlink:href="#hxefh"/></g></g></g></g></g></svg>