<svg xmlns="http://www.w3.org/2000/svg" xmlns:xlink="http://www.w3.org/1999/xlink" width="24" height="23" viewBox="0 0 24 23"><defs><path id="gluma" d="M704.768 742.496v-2.44h4.17l-.348 2.44zm-9.741-2.44h3.642v2.44h-3.236zm3.642-3.66v2.44h-3.66a.587.587 0 0 0-.18.037l-.412-2.476zm4.88 3.66v2.44h-3.66v-2.44zm0-3.66v2.44h-3.66v-2.44zm5.912 0l-.348 2.44h-4.345v-2.44zm2.328-2.018a1.223 1.223 0 0 0-.922-.42h-16.856l-.238-1.42a1.22 1.22 0 0 0-1.203-1.02h-2.744a1.219 1.219 0 1 0 0 2.44h1.711l2.269 13.617c.01.055.038.1.055.151.02.065.035.126.066.184.039.08.091.149.146.219.038.047.072.095.116.136.07.066.152.112.235.159.047.025.087.06.137.079.141.057.29.092.448.092h13.418a1.219 1.219 0 1 0 0-2.44h-12.384l-.203-1.22h13.807a1.22 1.22 0 0 0 1.208-1.046l1.22-8.539a1.222 1.222 0 0 0-.286-.972z"/><path id="glumb" d="M695.01 751.644a1.83 1.83 0 1 1 3.66 0 1.83 1.83 0 0 1-3.66 0z"/><path id="glumc" d="M705.988 751.644a1.83 1.83 0 1 1 3.66 0 1.83 1.83 0 0 1-3.66 0z"/></defs><g><g transform="translate(-688 -731)"><g><g><g><use fill="#fff" xlink:href="#gluma"/></g><g><use fill="#fff" xlink:href="#glumb"/></g><g><use fill="#fff" xlink:href="#glumc"/></g></g></g></g></g></svg>