<svg xmlns="http://www.w3.org/2000/svg" xmlns:xlink="http://www.w3.org/1999/xlink" width="103" height="103" viewBox="0 0 103 103"><defs><path id="6omga" d="M382.963 3729.094c0-28.253 22.904-51.157 51.157-51.157 28.253 0 51.157 22.904 51.157 51.157 0 28.254-22.904 51.157-51.157 51.157-28.253 0-51.157-22.903-51.157-51.157z"/><path id="6omgc" d="M438.14 3729.094v-4.385h7.494l-.625 4.385zm-17.51-4.385h6.548v4.385h-5.817zm6.548-6.577v4.385H420.6c-.116 0-.221.033-.324.066l-.741-4.45zm8.77 6.577v4.385h-6.578v-4.385zm0-6.577v4.385h-6.578v-4.385zm10.626 0l-.625 4.385h-7.81v-4.385zm4.185-3.628a2.199 2.199 0 0 0-1.657-.757h-30.297l-.428-2.552a2.192 2.192 0 0 0-2.162-1.833h-4.933a2.19 2.19 0 0 0-2.192 2.193 2.19 2.19 0 0 0 2.192 2.192h3.076l4.078 24.477c.018.098.068.18.099.271.035.117.063.226.118.332.07.144.165.267.263.392.068.086.13.171.209.246.127.118.274.201.423.285.083.046.155.107.245.142.255.103.522.165.805.165h24.12a2.19 2.19 0 0 0 2.192-2.193 2.19 2.19 0 0 0-2.193-2.192h-22.26l-.364-2.193h24.817a2.191 2.191 0 0 0 2.17-1.88l2.192-15.348a2.196 2.196 0 0 0-.513-1.747z"/><path id="6omgd" d="M420.6 3745.538a3.289 3.289 0 1 1 6.578 0 3.289 3.289 0 0 1-6.578 0z"/><path id="6omge" d="M440.332 3745.538a3.289 3.289 0 1 1 6.578 0 3.289 3.289 0 0 1-6.578 0z"/><linearGradient id="6omgb" x1="468.82" x2="400.15" y1="3691.44" y2="3770.55" gradientUnits="userSpaceOnUse"><stop offset="0" stop-color="#01eb79"/><stop offset="1" stop-color="#0b9444"/></linearGradient></defs><g><g transform="translate(-383 -3678)"><use fill="url(#6omgb)" xlink:href="#6omga"/></g><g transform="translate(-383 -3678)"><g><g><g><use fill="#fff" xlink:href="#6omgc"/></g><g><use fill="#fff" xlink:href="#6omgd"/></g><g><use fill="#fff" xlink:href="#6omge"/></g></g></g></g></g></svg>