<svg xmlns="http://www.w3.org/2000/svg" xmlns:xlink="http://www.w3.org/1999/xlink" width="39" height="26" viewBox="0 0 39 26"><defs><path id="27cva" d="M611.61 2969.976v-2.883h4.927l-.41 2.883zm-11.51-2.883h4.303v2.883h-3.824zm4.303-4.324v2.883h-4.324a.694.694 0 0 0-.213.043l-.487-2.926zm5.766 4.324v2.883h-4.324v-2.883zm0-4.324v2.883h-4.324v-2.883zm6.987 0l-.411 2.883h-5.135v-2.883zm2.751-2.386a1.446 1.446 0 0 0-1.09-.497H598.9l-.281-1.678a1.441 1.441 0 0 0-1.422-1.205h-3.243a1.44 1.44 0 0 0-1.441 1.442 1.44 1.44 0 0 0 1.441 1.441h2.022l2.681 16.092c.012.065.045.118.065.179.023.076.042.148.078.217.046.096.108.176.173.258.045.057.085.113.137.162.084.078.18.132.278.187.055.03.103.07.162.094.167.068.343.108.529.108h15.857a1.44 1.44 0 0 0 1.441-1.441 1.44 1.44 0 0 0-1.441-1.442H601.3l-.24-1.441h16.316a1.44 1.44 0 0 0 1.427-1.237l1.442-10.09a1.444 1.444 0 0 0-.338-1.149z"/><path id="27cvb" d="M600.08 2980.787a2.162 2.162 0 1 1 4.323 0 2.162 2.162 0 0 1-4.324 0z"/><path id="27cvc" d="M613.052 2980.787a2.162 2.162 0 1 1 4.324 0 2.162 2.162 0 0 1-4.324 0z"/></defs><g><g transform="translate(-582 -2957)"><g><use fill="#fff" xlink:href="#27cva"/></g><g><use fill="#fff" xlink:href="#27cvb"/></g><g><use fill="#fff" xlink:href="#27cvc"/></g></g><g transform="translate(-582 -2957)"><g><text fill="#fff" style="font-kerning:normal" dominant-baseline="text-before-edge" font-family="'Muller','MullerBold'" font-size="19" font-style="none" font-weight="700" transform="translate(582 2963)"><tspan>+</tspan></text></g></g></g></svg>