<svg xmlns="http://www.w3.org/2000/svg" xmlns:xlink="http://www.w3.org/1999/xlink" width="55" height="54" viewBox="0 0 55 54"><defs><path id="3h9za" d="M674.974 742.05c0-14.94 12.11-27.05 27.05-27.05 14.938 0 27.049 12.11 27.049 27.05 0 14.938-12.11 27.048-27.05 27.048-14.938 0-27.049-12.11-27.049-27.049z"/><path id="3h9zc" d="M704.768 742.496v-2.44h4.17l-.348 2.44zm-9.741-2.44h3.642v2.44h-3.236zm3.642-3.66v2.44h-3.66a.587.587 0 0 0-.18.037l-.412-2.476zm4.88 3.66v2.44h-3.66v-2.44zm0-3.66v2.44h-3.66v-2.44zm5.912 0l-.348 2.44h-4.345v-2.44zm2.328-2.018a1.223 1.223 0 0 0-.922-.42h-16.856l-.238-1.42a1.22 1.22 0 0 0-1.203-1.02h-2.744a1.219 1.219 0 1 0 0 2.44h1.711l2.269 13.617c.01.055.038.1.055.151.02.065.035.126.066.184.039.08.091.149.146.219.038.047.072.095.116.136.07.066.152.112.235.159.047.025.087.06.137.079.141.057.29.092.448.092h13.418a1.219 1.219 0 1 0 0-2.44h-12.384l-.203-1.22h13.807a1.22 1.22 0 0 0 1.208-1.046l1.22-8.539a1.222 1.222 0 0 0-.286-.972z"/><path id="3h9zd" d="M695.01 751.644a1.83 1.83 0 1 1 3.66 0 1.83 1.83 0 0 1-3.66 0z"/><path id="3h9ze" d="M705.988 751.644a1.83 1.83 0 1 1 3.66 0 1.83 1.83 0 0 1-3.66 0z"/><linearGradient id="3h9zb" x1="720.81" x2="683.74" y1="723.6" y2="762.95" gradientUnits="userSpaceOnUse"><stop offset="0" stop-color="#10be00"/><stop offset="1" stop-color="#097100"/></linearGradient></defs><g><g transform="translate(-675 -715)"><use fill="url(#3h9zb)" xlink:href="#3h9za"/></g><g transform="translate(-675 -715)"><g><g><g><use fill="#fff" xlink:href="#3h9zc"/></g><g><use fill="#fff" xlink:href="#3h9zd"/></g><g><use fill="#fff" xlink:href="#3h9ze"/></g></g></g></g></g></svg>