<svg xmlns="http://www.w3.org/2000/svg" xmlns:xlink="http://www.w3.org/1999/xlink" width="103" height="103" viewBox="0 0 103 103"><defs><path id="2qkoa" d="M786.373 3669.168c0-28.254 22.904-51.158 51.157-51.158 28.253 0 51.157 22.904 51.157 51.158 0 28.253-22.904 51.157-51.157 51.157-28.253 0-51.157-22.904-51.157-51.157z"/><path id="2qkoc" d="M847.679 3666.76c0-.808-.655-1.463-1.463-1.463h-9.557a1.463 1.463 0 1 0 0 2.926h9.557c.808 0 1.463-.655 1.463-1.463zm0 10.532c0-.808-.655-1.463-1.463-1.463h-9.557a1.463 1.463 0 1 0 0 2.926h9.557c.808 0 1.463-.655 1.463-1.463zm-15.15-15.418a1.463 1.463 0 0 0-2.012.478l-1.384 2.244-.714-.563a1.463 1.463 0 0 0-1.81 2.299l2.004 1.577a1.463 1.463 0 0 0 2.15-.381l2.244-3.64a1.463 1.463 0 0 0-.478-2.014zm0 10.532a1.463 1.463 0 0 0-2.012.478l-1.384 2.244-.714-.563a1.463 1.463 0 1 0-1.81 2.299l2.004 1.577a1.463 1.463 0 0 0 2.15-.381l2.244-3.64a1.463 1.463 0 0 0-.478-2.014zm20.309-17.185v29.515a3.938 3.938 0 0 1-3.934 3.933h-22.907a3.938 3.938 0 0 1-3.933-3.933v-29.515a3.938 3.938 0 0 1 3.933-3.934h2.05v1.906a3.552 3.552 0 0 0 3.548 3.549h11.712a3.552 3.552 0 0 0 3.548-3.549v-1.9-.006h2.05a3.938 3.938 0 0 1 3.933 3.934zm-18.98-7.477a3.61 3.61 0 0 1 3.593-3.316 3.61 3.61 0 0 1 3.593 3.316zm-2.886 5.45v-1.902c0-.343.28-.622.623-.622h11.712c.344 0 .623.28.623.622v1.901c0 .344-.28.623-.623.623h-11.712a.623.623 0 0 1-.623-.623z"/><linearGradient id="2qkob" x1="872.23" x2="803.56" y1="3631.51" y2="3710.62" gradientUnits="userSpaceOnUse"><stop offset="0" stop-color="#fa7600"/><stop offset="1" stop-color="#fa4d00"/></linearGradient></defs><g><g transform="translate(-786 -3618)"><use fill="url(#2qkob)" xlink:href="#2qkoa"/></g><g transform="translate(-786 -3618)"><use fill="#fff" xlink:href="#2qkoc"/></g></g></svg>