<svg xmlns="http://www.w3.org/2000/svg" xmlns:xlink="http://www.w3.org/1999/xlink" width="33" height="35" viewBox="0 0 33 35"><defs><path id="fmhga" d="M1094.093 4758.357c.959-.016.98 1.382.164 1.541a.753.753 0 0 1-.79-.99.847.847 0 0 1 .626-.551zm-11.51-4.052a.785.785 0 0 1 .312 1.53.75.75 0 0 1-.847-.964.9.9 0 0 1 .535-.566zm-15.202-3.48c1.732-.032 1.8 2.399.355 2.685a1.331 1.331 0 0 1-1.441-1.679c.153-.61.535-.79 1.085-1.007zm12.967-9.858c2.23-.016 3.294 1.377 3.623 3.342a3.403 3.403 0 0 1-.228 1.716 3.512 3.512 0 0 1-2.961 2.273 2.715 2.715 0 0 1-1.563-.302 3.735 3.735 0 0 1-1.949-4.402 3.664 3.664 0 0 1 2.04-2.383c.211-.07.423-.133.64-.202.133-.015.265-.031.397-.042zm-7.564-5.212a.779.779 0 0 1 .301 1.525.753.753 0 0 1-.82-.98.925.925 0 0 1 .519-.545zm19.582-6.388a2.484 2.484 0 0 1 2.352 3.406 2.412 2.412 0 0 1-1.933 1.605c-1.579.265-2.998-1.515-2.533-3.147a2.564 2.564 0 0 1 1.447-1.716c.196-.085.44-.063.667-.148zm-.61-1.865c-.371.08-.732.202-1.074.366a4.548 4.548 0 0 0-2.23 5.026c.127.473.306.93.534 1.362l-5.106 5.471c-.106.101-.212.202-.313.308a4.92 4.92 0 0 0-3.962-.922 7.185 7.185 0 0 0-2.055.922c-.733-.788-1.461-1.574-2.187-2.358a.625.625 0 0 1 .058-.519c.119-.503.104-1.029-.043-1.525a2.539 2.539 0 0 0-4.009-1.255c-2.182 1.69-.392 5.884 2.622 4.613l1.923 2.082c.11.116.228.233.339.35-.211.277-.375.586-.487.916a6.158 6.158 0 0 0-.197 4.068c-1.965 1.137-3.93 2.272-5.895 3.406-.583-.8-2.198-1.197-3.353-.689a3.441 3.441 0 0 0-1.472 4.74 3.101 3.101 0 0 0 5.704-2.324c1.965-1.143 3.93-2.283 5.896-3.422.157.276.37.516.625.704a5.17 5.17 0 0 0 3.724 1.42c.18.852.354 1.71.535 2.569a3.094 3.094 0 0 0-1.118 1.817c-.365 1.71 1.271 3.517 2.95 3.12a2.634 2.634 0 0 0 1.95-1.653 2.722 2.722 0 0 0-1.997-3.697c-.176-.858-.355-1.711-.535-2.57.159-.079.317-.164.477-.243.174-.117.35-.233.518-.355l8.237 8.777a3.84 3.84 0 0 0-.207 1.404c.25 1.504 1.49 2.881 3.321 2.31.328-.115.63-.292.89-.52a2.958 2.958 0 0 0 .673-3.194 2.534 2.534 0 0 0-1.758-1.499 2.46 2.46 0 0 0-1.594.138 15235.52 15235.52 0 0 1-7.92-8.454c-.116-.117-.227-.233-.344-.35.136-.143.237-.315.297-.503.37-.78.598-1.619.673-2.479.028-.28.011-.562-.048-.837a7.06 7.06 0 0 0-.922-2.616c1.8-1.92 3.602-3.84 5.408-5.763.191.11.387.217.577.323.327.135.666.237 1.013.307 1.96.44 3.596-1.001 4.248-2.098a4.54 4.54 0 0 0-3.83-6.753z"/></defs><g><g transform="translate(-1064 -4727)"><use fill="#fff" xlink:href="#fmhga"/></g></g></svg>