<svg xmlns="http://www.w3.org/2000/svg" xmlns:xlink="http://www.w3.org/1999/xlink" width="35" height="21" viewBox="0 0 35 21"><defs><path id="8go6a" d="M1066.527 4806.945l3.783-1.525a8.74 8.74 0 0 0 1.774 1.322l-4.852 1.956zm20.304-8.186v-10.38h2.336v9.438l11.086-4.47.705 1.754-11.791 4.754v5.781h10.81v2.23h-13.146v-7.07l-2.559 1.032v-2.037zm0-10.38zm-19.245 9.741c0 3.316 1.065 5.69 2.724 7.3l2.512-1.013c-1.7-1.215-2.867-3.22-2.867-6.287 0-5.567 4.232-7.85 8.326-7.85a10.476 10.476 0 0 1 5.515 1.42v-2.341a13.318 13.318 0 0 0-5.848-1.309c-5.18 0-10.362 3.369-10.362 10.08zm10.584 10.08a14.954 14.954 0 0 0 6.102-1.308v-5.064l-2.341.944v2.478a8.56 8.56 0 0 1-3.597.72c-1.086 0-2.185-.139-3.214-.452l-3.036 1.224c1.786 1.014 3.926 1.458 6.086 1.458zm6.102-10.694h-2.341v3.229l2.341-.944zm-11.45 6.9l9.109-3.671v2.037l-6.81 2.746a7.889 7.889 0 0 1-2.299-1.111z"/></defs><g><g transform="translate(-1066 -4788)"><use fill="#fff" xlink:href="#8go6a"/></g></g></svg>