<svg xmlns="http://www.w3.org/2000/svg" xmlns:xlink="http://www.w3.org/1999/xlink" width="33" height="29" viewBox="0 0 33 29"><defs><path id="l5lya" d="M1092.8 4855.607a.91.91 0 0 0 .117.01v5.933a1.346 1.346 0 0 1-.53-.286 4.62 4.62 0 0 0-1.43-.731c-.498-.08-1.452.598-1.775.789-.126.109-.274.19-.434.238l-.016-5.916c.303.028.602.092.89.19.784.16 2.686.1 3.178-.227zm-2.362-8.634c.411-.021.822 0 1.228.063 2.114.45 4.053 2.521 2.956 4.937-.551 1.223-1.71 2.013-3.37 2.262a4.117 4.117 0 0 1-1.911-.228 3.677 3.677 0 0 1-2.648-2.972 2.993 2.993 0 0 1 .143-1.53 3.908 3.908 0 0 1 2.426-2.294l.635-.175.54-.063zm-10.864-4.365c-.293.04-.56.19-.747.418a.84.84 0 0 0 .503 1.203c.7.082 1.406.096 2.108.042h5.218c1.017 0 1.896.08 2.066-.672a.768.768 0 0 0-.133-.583c-.355-.535-1.112-.408-2.04-.408zm-3.602-1.923c5.177.007 10.352.01 15.525.01.075.054.36.695.45.827a3.392 3.392 0 0 0 1.965 1.287c.066.317.074.644.027.964v2.262a.027.027 0 0 0-.016.01 4.299 4.299 0 0 1-.852-.365 6.61 6.61 0 0 0-2.956-.365 7.254 7.254 0 0 0-2.739.9 75.11 75.11 0 0 1-.8.583l-.312.286h-8.639a3.673 3.673 0 0 0-1.536.148.828.828 0 0 0-.36.917c.2.688 1.054.603 2.039.603h6.807c.186-.03.377-.014.555.048a3.927 3.927 0 0 0-.376 1.849 2.375 2.375 0 0 1-.593.02h-6.017c-1.203 0-2.262-.195-2.442.758a.685.685 0 0 0 .106.445c.318.599 1.129.466 2.093.466h7.166c.088.156.166.317.233.482.176.32.378.625.604.911.201.212.408.424.61.63.1.09.206.176.306.265l.016.488-.042.027h-10.822a4.879 4.879 0 0 1-.387-.742 3.408 3.408 0 0 0-2.012-1.361 2.158 2.158 0 0 1-.042-.837v-9.355c.233-.09.466-.185.698-.275.293-.14.567-.317.816-.524.273-.225.5-.5.667-.81.071-.192.158-.376.26-.552zm-6.44-3.586l28.412.01c.011.007.024.011.036.011-.006 7.19-.015 14.381-.025 21.575-.237.065-.484.08-.726.042-.784-.005-1.574-.005-2.363-.01-.01-.006-.026-.006-.037-.011a783.35 783.35 0 0 1-.01-4.148c.138-.127.28-.254.423-.376.175-.201.355-.397.53-.593a5.603 5.603 0 0 0 1.006-2.389 4.708 4.708 0 0 0-.54-2.881 2.402 2.402 0 0 1-.413-.673c.006-1.42.006-2.84.01-4.264.061-.533.04-1.073-.063-1.6-.233-.588-.715-.424-1.367-.593-.206-.06-.4-.157-.572-.286a1.425 1.425 0 0 1-.477-.636c-.19-.577-.01-1.006-.672-1.213a3.77 3.77 0 0 0-.97-.047h-14.71c-.646 0-1.97-.112-2.372.116-.572.318-.36 1.044-.726 1.52a1.612 1.612 0 0 1-.837.546c-.651.17-1.138.01-1.371.593-.07.293-.091.596-.064.895v10.123c-.065.462-.016.933.142 1.372.168.217.413.359.684.397.149.005.302.016.45.021.254.06.495.166.71.312.224.166.395.392.493.652.069.18.015.392.079.604.09.284.31.509.594.604.39.074.79.094 1.186.058h2.443c2.794-.002 5.587-.005 8.378-.01.051.153.066.316.043.476l-.016 1.41a5.261 5.261 0 0 1-1.033.03c-1.028-.004-2.055-.004-3.083-.01l-13.215-.047v-21.532c.016-.016.026-.032.042-.048zm-1.23-1.668a.85.85 0 0 1-.297.137 1.335 1.335 0 0 0-.413.493v22.47c0 .767-.11 1.392.424 1.705.527.155 1.08.202 1.627.138h3.59l13.56.031c.012.01.021.023.027.038l.016.73v1.473c-.027.276-.005.553.063.821.147.246.376.432.646.524h.18c.297-.001.584-.102.817-.286.556-.323 1.117-.646 1.679-.969.185-.163.404-.284.64-.355.783.47 1.563.934 2.341 1.393.266.177.584.254.901.217.282-.09.52-.285.663-.545.07-.33.087-.67.052-1.007v-1.996c.371-.07.75-.082 1.123-.038h2.209c.366.031.734.015 1.096-.047a.98.98 0 0 0 .477-.35c.238-.35.154-1.06.154-1.6V4837.2c0-.72.074-1.346-.413-1.632-.419-.249-1.706-.137-2.4-.137h-28.761z"/></defs><g><g transform="translate(-1067 -4835)"><use fill="#fff" xlink:href="#l5lya"/></g></g></svg>