<svg xmlns="http://www.w3.org/2000/svg" xmlns:xlink="http://www.w3.org/1999/xlink" width="31" height="31" viewBox="0 0 31 31"><defs><path id="gps9a" d="M1313.84 4798.872l-.207.207c.006 1.012.15 2.019.424 2.992.583 2.373 1.658 4.317 3.427 5.493a3.95 3.95 0 0 0 3.094.498c.301-.069 1.032-.132.831-.609a6.416 6.416 0 0 0-.974-.948 32.206 32.206 0 0 0-2.67-2.347c-.472-.36-1.266-.89-.678-1.69a.792.792 0 0 1 .265-.18c.545-.301.995.101 1.33.366.921.72 1.763 1.536 2.67 2.273.327.307.661.614.989.921h.24c.067-.063.13-.127.195-.19.099-.382.124-.78.075-1.171a3.783 3.783 0 0 0-.896-2.103 8.683 8.683 0 0 0-4.36-2.866c-.423-.137-.842-.196-1.292-.317a9.68 9.68 0 0 0-2.463-.329zm-1.075-1.811c3.152-.043 6.267.842 8.152 2.092a8.126 8.126 0 0 1 1.991 1.642 7.084 7.084 0 0 1 1.642 3.157 5.063 5.063 0 0 1-.18 2.431c-.195.37-.314.775-.349 1.192.18.201.36.408.54.609.455.48.882.984 1.282 1.51.174.29.386.555.63.789h.302c.53-.72 1.134-1.393 1.69-2.092l.747-.827a4.38 4.38 0 0 0-.408-1.387 5.47 5.47 0 0 1 0-2.76c.974-3.364 4.285-5.085 7.812-5.933.631-.148 1.336-.217 2.029-.339l.7-.047a4.278 4.278 0 0 1 1.35-.011c.71.19.503.794 1.017.959v.413a.686.686 0 0 1-.143.111c-.068.17-.132.34-.196.509-.021.333-.047.662-.074.995-.106.641-.16 1.261-.302 1.876-.557 2.441-1.51 4.513-3.003 6.017a7.183 7.183 0 0 1-1.849 1.345c-.309.228-.718.267-1.065.101a.93.93 0 0 1-.132-1.409c.196-.106.386-.207.583-.307.303-.194.594-.408.868-.641 1.457-1.176 2.22-2.961 2.787-5.048.151-.667.27-1.34.354-2.018.08-.297.096-.608.047-.911-.063-.07-.132-.138-.195-.207a8.993 8.993 0 0 0-2.463.328c-.456.122-.864.175-1.293.318a8.797 8.797 0 0 0-4.417 2.94 4.002 4.002 0 0 0-.847 2.018c-.12.478-.012.984.29 1.372h.239a9.395 9.395 0 0 1 1.292-1.176c.89-.72 1.701-1.552 2.622-2.24a.912.912 0 0 1 1.462.28.96.96 0 0 1-.111.864 2.97 2.97 0 0 1-.684.572c-.386.334-.773.662-1.16.996a26.314 26.314 0 0 0-2.817 2.616c-.932 1.007-1.918 1.955-2.765 3.051a20.68 20.68 0 0 0-1.123 1.568c-.103.252-.259.48-.455.668-.117.074-.26.074-.387.148-.043.037-.085.08-.122.117a.325.325 0 0 1-.207-.133 1.528 1.528 0 0 1-.47-.206c-.16-.26-.324-.525-.483-.79-.525-.778-1.134-1.472-1.706-2.198a3.74 3.74 0 0 0-.768-.853c-.265-.074-1.076.366-1.346.461a6.194 6.194 0 0 1-3.21.244c-3.58-.858-5.328-4.29-6.234-7.887-.175-.71-.201-1.452-.334-2.204a23.475 23.475 0 0 1-.037-.657 16.928 16.928 0 0 1-.18-.471.985.985 0 0 1-.158-.138v-.434c.392-.085.317-.482.545-.72.21-.14.45-.23.7-.265zm4.02-6.929a9.157 9.157 0 0 0-.206.217v2.177c0 .562-.085.8.216 1.092h2.3c.397.036.798.02 1.191-.048.318-.119.597-.32.81-.583.337-.33.498-.799.435-1.266a1.847 1.847 0 0 0-1.17-1.53 4.519 4.519 0 0 0-1.219-.059h-2.357zm17.512-4.926c-.159.043-.313.08-.471.122a2.35 2.35 0 0 0-1.256 1.314c-.228.672-.112 1.79-.112 2.637 0 1.95-.222 3.104.96 3.952.399.31.906.45 1.408.387a2.188 2.188 0 0 0 1.981-1.775l.016-2.685c0-.684.106-1.928-.074-2.458a2.291 2.291 0 0 0-1.451-1.43 3.972 3.972 0 0 0-1.001-.064zm-17.512 0a7.393 7.393 0 0 1-.206.217l.015 2.712a.502.502 0 0 0 .201.207h1.197c.463.05.931.03 1.388-.058a1.606 1.606 0 0 0-.143-3.067c-.815 0-1.636-.006-2.452-.01zm10.085-1.886c.287.113.544.293.748.525.28.53.148 1.912.148 2.701v5.859c0 .847.137 2.24-.218 2.733a1.02 1.02 0 0 1-.63.307.682.682 0 0 1-.313-.074.83.83 0 0 1-.45-.318c-.29-.477-.153-1.886-.153-2.648v-7.5a2.836 2.836 0 0 1 .037-.806.893.893 0 0 1 .434-.556.885.885 0 0 0 .397-.223zm7.692-.19a.159.159 0 0 1 .169.037c.083.114.185.212.302.291.175.027.35.053.518.085.289.073.57.174.838.302a3.903 3.903 0 0 1 1.89 2.044c.403.864.302 2.262.302 3.523 0 .789-.005 1.583-.01 2.373-.291 1.504-.874 2.4-1.992 3.061a3.785 3.785 0 0 1-2.103.535c-1.89-.312-2.96-1.075-3.549-2.685a8.843 8.843 0 0 1-.227-2.75c0-2.192-.117-3.675.82-4.957a4.21 4.21 0 0 1 1.786-1.314c.381-.175 1.155-.095 1.256-.545zm-15.637 0c.005.037.016.069.02.106.08.069.155.137.229.206.106.016.212.037.318.053.196.058.392.122.588.18a3.322 3.322 0 0 1 1.886 2.008c.176.378.25.796.217 1.213a4.91 4.91 0 0 1-.228 1.06c-.175.27-.279.579-.302.9.949.72 2.082 2.256 1.472 4.01a4.703 4.703 0 0 1-.82 1.445 2.42 2.42 0 0 1-.679.514c-.41.243-.857.418-1.324.52-.665.08-1.338.095-2.007.047-.805 0-2.617.138-3.093-.17-.588-.376-.387-2.16-.387-3.146l.016-7.866a1.12 1.12 0 0 1 .254-.535c.244-.217.614-.175.688-.545z"/></defs><g><g transform="translate(-1311 -4783)"><use fill="#fff" xlink:href="#gps9a"/></g></g></svg>