<svg xmlns="http://www.w3.org/2000/svg" xmlns:xlink="http://www.w3.org/1999/xlink" width="21" height="25" viewBox="0 0 21 25"><defs><path id="6ii4a" d="M408.708 739.419l.206-.418v-6.453h2.413v6.488l.235.44 2.698 5.052h-8.074zm10.91 10.908l-6.296-11.791v-5.988h.623a.498.498 0 0 0 .498-.498v-1.008a.499.499 0 0 0-.498-.499H406.35a.499.499 0 0 0-.5.499v1.008c0 .276.224.498.5.498h.57v5.988l-5.795 11.74c-1.481 2.322-.45 4.204 2.304 4.204h13.963c2.753 0 3.75-1.86 2.225-4.153z"/></defs><g><g transform="translate(-400 -730)"><use fill="#fff" xlink:href="#6ii4a"/></g></g></svg>