<svg xmlns="http://www.w3.org/2000/svg" xmlns:xlink="http://www.w3.org/1999/xlink" width="73" height="73" viewBox="0 0 73 73"><defs><path id="ilsxa" d="M819.557 5409.075a2.331 2.331 0 0 1-2.329-2.329h-2.329a4.662 4.662 0 0 0 4.658 4.658 4.662 4.662 0 0 0 4.657-4.658h-2.328a2.331 2.331 0 0 1-2.33 2.329z"/><path id="ilsxb" d="M826.543 5416.271v-2.56a11.642 11.642 0 0 0 4.438-7.06 5.747 5.747 0 0 0 1.384-.398v1.447c0 3.314-.804 6.48-2.275 9.28zm9.995 4.374a33.554 33.554 0 0 0-1.844 11.002v6.538h-8.15v-13.279a22.073 22.073 0 0 0 4.72-5.316zm2.883.624c-.042.341-.07.687-.07 1.038 0 2.199.83 4.266 2.33 5.862v10.016h-4.658v-6.538c0-3.612.618-7.15 1.828-10.54l.02.005c.188.037.373.09.55.157zm8.505-5.208c1.669 0 3.237.65 4.418 1.83l.98.98.982-.98a6.21 6.21 0 0 1 4.417-1.83 6.252 6.252 0 0 1 6.245 6.246c0 1.669-.65 3.237-1.829 4.417l-8.65 8.65v-4.312a5.907 5.907 0 0 0 1.779-.683l-1.183-2.006a3.438 3.438 0 0 1-1.76.497 3.498 3.498 0 0 1-3.494-3.493c0-.61.168-1.202.497-1.761l-2.006-1.185c-.535.91-.82 1.93-.82 2.946a5.833 5.833 0 0 0 4.658 5.704v4.293l-8.65-8.65a6.206 6.206 0 0 1-1.83-4.417 6.252 6.252 0 0 1 6.246-6.246zm-23.712 29.11a3.498 3.498 0 0 1-3.493-3.493v-1.164h23.288v-9.998l8.15 8.151v3.011a3.498 3.498 0 0 1-3.492 3.493zm-9.315-6.986v-11.625c.38.235.769.459 1.165.673v2.801h2.328v8.151zm-17.466-13.648c0-1.66 1.181-3.1 2.809-3.426l.022-.004a31.264 31.264 0 0 1 1.827 10.54v6.538h-4.658zm15.137.37v13.278h-8.15v-6.538c0-3.767-.62-7.46-1.846-11.001l5.275-1.056c1.267 2.001 2.855 3.797 4.721 5.316zm-5.822-17.207v-1.447c.436.19.902.318 1.385.398a11.645 11.645 0 0 0 4.437 7.06v2.56l-3.546.71a19.91 19.91 0 0 1-2.276-9.281zm1.165-3.498a3.488 3.488 0 0 1-2.329-3.279c0-1.516.977-2.795 2.329-3.278zm1.684-20.866l.17-.083 1.856-1.858a12.75 12.75 0 0 1 9.074-3.759c7.076 0 12.833 5.756 12.833 12.833v5.828a5.764 5.764 0 0 0-2.33-1.076v-3.612h-2.328v2.329h-2.329a16.405 16.405 0 0 1-9.78-3.26l-.986-.74-.682 1.025a6.658 6.658 0 0 1-4.853 2.93v-2.284h-2.33v3.611a5.78 5.78 0 0 0-2.328 1.076v-6.467a7.22 7.22 0 0 1 4.013-6.493zm21.604 14.31a3.488 3.488 0 0 1 2.329 3.278 3.488 3.488 0 0 1-2.33 3.28zm-11.644 16.087c-5.136 0-9.315-4.18-9.315-9.316v-8.189a8.985 8.985 0 0 0 6.065-3.026 18.772 18.772 0 0 0 10.236 3.065h2.329v8.15c0 5.137-4.179 9.316-9.315 9.316zm4.657 3.071l-4.657 5.59-4.658-5.59v-1.722a11.57 11.57 0 0 0 9.315 0zm-1.164 7.737v-1.493h-1.007l3.787-4.544 2.963.593a19.78 19.78 0 0 1-5.743 5.444zm-4.658 3.164v-2.328h2.33v2.328zm-2.328-4.657v1.493a19.817 19.817 0 0 1-5.744-5.445l2.963-.593 3.788 4.545zm4.657 15.137v-8.15h2.329v-2.802c.396-.214.785-.438 1.164-.673v11.625zm13.973-33.803c.5-.672.873-1.443 1.047-2.293h5.264l5.539 9.693 5.674-14.753 2.668 6.224h12.411v-2.329h-10.876l-4.32-10.077-5.969 15.52-3.776-6.607h-6.498v-9.29c0-8.361-6.8-15.162-15.161-15.162-4.05 0-7.858 1.576-10.72 4.44l-1.594 1.593a9.538 9.538 0 0 0-5.128 8.49v11.093c0 1.3.443 2.488 1.165 3.458v3.318c0 3.463.797 6.777 2.245 9.752l-6.88 1.376a5.837 5.837 0 0 0-4.68 5.709v15.977h23.287v1.164a5.829 5.829 0 0 0 5.822 5.822h24.453a5.829 5.829 0 0 0 5.822-5.822v-3.01l10.296-10.298a8.514 8.514 0 0 0 2.512-6.063c0-4.727-3.846-8.574-8.574-8.574-1.99 0-3.877.673-5.399 1.912a8.51 8.51 0 0 0-5.398-1.912c-3.564 0-6.625 2.188-7.918 5.29-.223-.074-.447-.148-.679-.195l-6.88-1.376a22.236 22.236 0 0 0 2.245-9.752z"/><path id="ilsxc" d="M853.324 5421.883a3.498 3.498 0 0 1 3.494 3.494c0 .608-.168 1.202-.497 1.76l2.006 1.185c.535-.91.82-1.929.82-2.945a5.829 5.829 0 0 0-5.823-5.822 5.803 5.803 0 0 0-2.943.82l1.183 2.005a3.438 3.438 0 0 1 1.76-.497z"/><path id="ilsxd" d="M814.9 5399.76a1.164 1.164 0 1 1-2.33 0 1.164 1.164 0 0 1 2.33 0z"/><path id="ilsxe" d="M826.543 5399.76a1.164 1.164 0 1 1-2.329 0 1.164 1.164 0 0 1 2.33 0z"/></defs><g><g transform="translate(-795 -5375)"><g><use fill="#fff" xlink:href="#ilsxa"/></g><g><use fill="#fff" xlink:href="#ilsxb"/></g><g><use fill="#fff" xlink:href="#ilsxc"/></g><g><use fill="#fff" xlink:href="#ilsxd"/></g><g><use fill="#fff" xlink:href="#ilsxe"/></g></g></g></svg>