<svg xmlns="http://www.w3.org/2000/svg" xmlns:xlink="http://www.w3.org/1999/xlink" width="69" height="69" viewBox="0 0 69 69"><defs><path id="ja8ca" d="M1196.668 5416.798c.608 0 1.103.495 1.103 1.102 0 .607-.495 1.103-1.103 1.103h-.794l.596-2.205zm-1.36-19.406l3.782 1.26-.609 2.251-3.782-1.26zm5.708-5.868l-1.35 4.996-3.783-1.26 1.266-4.684a1.823 1.823 0 0 1 1.755-1.344h.358a1.818 1.818 0 0 1 1.754 2.292zm-14.783 26.242a3.323 3.323 0 0 1 1.513-.85l-.564 2.087h-2.185zm-1.102-5.514a3.334 3.334 0 0 1 2.338-.968h1.8l-.9 3.328a5.463 5.463 0 0 0-3.695 1.594l-5.741 5.742a1.238 1.238 0 0 1-1.749-1.748zm8.459 6.75h-4.123l4.656-17.227 3.783 1.26zm-8.494 7.72l-.417 1.542a4.015 4.015 0 0 0-.138 1.05c0 1.492.824 2.78 2.032 3.475l-.346 1.383 2.139.535.343-1.37h.211c.285 0 .56-.04.83-.097v8.918h-37.49v-57.337h14.335v-6.616h37.49v33.39l-2.385-1.59a5.504 5.504 0 0 0-3.059-.926h-.085l4.59-16.98a4.027 4.027 0 0 0-3.883-5.073h-.359a4.03 4.03 0 0 0-3.883 2.974l-3.065 11.342v-18.726H1168.8v2.205h20.95v24.258h-2.28c-1.2 0-2.33.398-3.276 1.103h-10.983v2.205h8.667l-2.206 2.205h-6.461v2.206h4.257l-1.842 1.842a3.417 3.417 0 0 0-1.01 2.435 3.445 3.445 0 0 0 3.443 3.441c.34 0 .667-.065.985-.16-.001.054-.017.105-.017.16 0 1.216.99 2.205 2.206 2.205zm6.401.025l-.821 3.04a1.821 1.821 0 0 1-1.756 1.345h-.357a1.819 1.819 0 0 1-1.754-2.292l.572-2.119h3.472c.215 0 .43.017.644.026zm5.751 1.33c1.692.564 3.454.85 5.237.85.535 0 1.068-.047 1.6-.098v6.713h-12.13v-3.606c.388-.447.688-.975.849-1.572l.903-3.345c.568.116 1.13.254 1.684.439zm1.393-16.793c.655 0 1.289.192 1.835.556l7.7 5.134c.91.605 1.968.926 3.06.926h7.183v-2.205h-7.183a3.3 3.3 0 0 1-1.836-.556l-3.11-2.074V5376h-41.9v6.616h-14.334v61.747h41.9v-6.615h14.334v-9.277c.07-.017.141-.022.21-.039l5.13-1.282c1.138-.284 2.31-.429 3.481-.429h3.308v-2.205h-3.308c-1.352 0-2.704.166-4.016.494l-5.129 1.282a14.42 14.42 0 0 1-8.018-.307l-1.858-.62a16.533 16.533 0 0 0-5.237-.849h-9.622a3.312 3.312 0 0 1 3.308-3.308h12.13a3.312 3.312 0 0 0 3.307-3.308c0-1.691-1.281-3.074-2.92-3.269l.905-3.347z"/><path id="ja8cb" d="M1180.93 5395.847h-24.259v-6.615h24.258zm2.205-8.82h-28.669v11.026h28.669z"/><path id="ja8cc" d="M1158.877 5391.437h2.205v2.205h-2.205z"/><path id="ja8cd" d="M1163.287 5391.437h2.206v2.205h-2.206z"/><path id="ja8ce" d="M1167.698 5391.437h2.205v2.205h-2.205z"/><path id="ja8cf" d="M1172.108 5391.437h2.206v2.205h-2.206z"/><path id="ja8cg" d="M1176.519 5391.437h2.205v2.205h-2.205z"/><path id="ja8ch" d="M1167.698 5411.284h-2.205v4.41h-8.822v-8.82h6.616v-2.205h-8.82v13.231h13.23z"/><path id="ja8ci" d="M1171.329 5400.581l-10.247 10.247-1.426-1.426-1.559 1.56 2.985 2.984 11.806-11.806z"/><path id="ja8cj" d="M1165.493 5434.44h-8.822v-8.821h6.616v-2.206h-8.82v13.232h13.23v-6.616h-2.204z"/><path id="ja8ck" d="M1159.656 5428.147l-1.559 1.56 2.985 2.984 11.806-11.806-1.56-1.56-10.246 10.248z"/><path id="ja8cl" d="M1185.34 5436.645h2.205v2.205h-2.205z"/><path id="ja8cm" d="M1171.006 5436.645h12.129v2.205h-12.13z"/><path id="ja8cn" d="M1173.211 5405.771h14.334v2.205h-14.334z"/></defs><g><g transform="translate(-1150 -5376)"><g><use fill="#fff" xlink:href="#ja8ca"/></g><g><use fill="#fff" xlink:href="#ja8cb"/></g><g><use fill="#fff" xlink:href="#ja8cc"/></g><g><use fill="#fff" xlink:href="#ja8cd"/></g><g><use fill="#fff" xlink:href="#ja8ce"/></g><g><use fill="#fff" xlink:href="#ja8cf"/></g><g><use fill="#fff" xlink:href="#ja8cg"/></g><g><use fill="#fff" xlink:href="#ja8ch"/></g><g><use fill="#fff" xlink:href="#ja8ci"/></g><g><use fill="#fff" xlink:href="#ja8cj"/></g><g><use fill="#fff" xlink:href="#ja8ck"/></g><g><use fill="#fff" xlink:href="#ja8cl"/></g><g><use fill="#fff" xlink:href="#ja8cm"/></g><g><use fill="#fff" xlink:href="#ja8cn"/></g></g></g></svg>