<svg xmlns="http://www.w3.org/2000/svg" xmlns:xlink="http://www.w3.org/1999/xlink" width="144" height="21" viewBox="0 0 144 21"><defs><path id="vbuwa" d="M1206.439 4801.084v1.34a3.247 3.247 0 0 1-2.298.943c-.795 0-1.489-.397-1.489-1.176 0-.996 1.06-1.308 2.066-1.308.58.012 1.156.079 1.721.201zm1.77 1.605v-2.85c0-2.4-1.42-3.475-3.671-3.475a9.826 9.826 0 0 0-3.046.53v1.62c.903-.398 1.88-.606 2.865-.608 1.357 0 2.082.694 2.082 1.684v.286a10.524 10.524 0 0 0-2.065-.233c-1.659 0-3.544.625-3.544 2.664 0 1.637 1.34 2.432 2.78 2.432a4.59 4.59 0 0 0 2.994-1.028c.279.615.916.987 1.589.927.385.005.767-.061 1.128-.196v-1.276c-.172.057-.35.09-.53.1a.516.516 0 0 1-.582-.577zm-14.726 1.833v-3.194h3.968v3.194h1.769v-7.94h-1.77v3.194h-3.967v-3.194h-1.774v7.94zm-9.534-4.63a2.164 2.164 0 0 1 2.33-2.055c1.738 0 2.167 1.356 2.072 2.055zm-1.775.662c0 2.792 2.071 4.185 4.503 4.185a6.855 6.855 0 0 0 2.844-.546v-1.525a5.755 5.755 0 0 1-2.51.566c-1.457 0-2.85-.598-3.047-2.018h5.97c.514-2.304-.577-4.852-3.734-4.852a3.985 3.985 0 0 0-4.025 4.19zm-3.411 3.968v-6.383h2.734v-1.557h-7.247v1.557h2.744v6.383zm-12.018-3.968a2.435 2.435 0 0 1 2.515-2.616c1.51 0 2.5 1.059 2.5 2.616a2.51 2.51 0 1 1-5.015 0zm6.816 0c0-2.749-2.065-4.19-4.3-4.19-1.966 0-3.873 1.192-4.2 3.443h-1.723v-3.225h-1.768v7.94h1.768v-3.226h1.722c.328 2.251 2.235 3.443 4.2 3.443 2.236 0 4.302-1.441 4.302-4.185zm-15.985-2.468v6.436h1.769v-7.94h-6.118c-.148 3.935-.514 6.584-1.854 6.584a1.427 1.427 0 0 1-.514-.101v1.393c.348.135.717.207 1.09.212 2.12 0 2.714-2.744 2.947-6.584zm-10.44 6.436v-6.383h4.152v-1.557h-5.927v7.94zm-7.453-2.167a1.948 1.948 0 0 0-1.574-1.901 1.752 1.752 0 0 0 1.41-1.77c0-1.292-1.028-2.335-3.475-2.335a6.995 6.995 0 0 0-2.913.63v1.52a6.338 6.338 0 0 1 2.696-.646c1.144 0 1.906.35 1.906 1.06 0 .661-.646.894-1.493.894h-1.62v1.356h1.62c.794 0 1.657.133 1.657.975 0 .88-.995 1.096-2.166 1.096a6.338 6.338 0 0 1-2.75-.662v1.52a6.61 6.61 0 0 0 2.978.647c2.453 0 3.724-.996 3.724-2.384zm-13.984-2.463a2.173 2.173 0 0 1 2.33-2.055c1.738 0 2.173 1.356 2.072 2.055zm-1.77.662c0 2.792 2.067 4.185 4.498 4.185a6.881 6.881 0 0 0 2.85-.546v-1.525a5.781 5.781 0 0 1-2.516.566c-1.457 0-2.844-.598-3.046-2.018h5.975c.514-2.304-.583-4.852-3.74-4.852a3.982 3.982 0 0 0-4.02 4.19zm-8.442 2.246v-3.639h2.876c1.229 0 2.484.233 2.484 1.838 0 1.59-1.24 1.801-2.484 1.801zm0-5.36v-2.76h6.367v-1.737h-8.253v11.579h4.73c2.204 0 4.434-.678 4.434-3.523 0-2.86-2.23-3.56-4.434-3.56z"/><path id="vbuwb" d="M1066.527 4806.945l3.783-1.525a8.74 8.74 0 0 0 1.774 1.322l-4.852 1.956zm20.304-8.186v-10.38h2.336v9.438l11.086-4.47.705 1.754-11.791 4.754v5.781h10.81v2.23h-13.146v-7.07l-2.559 1.032v-2.037zm0-10.38zm-19.245 9.741c0 3.316 1.065 5.69 2.724 7.3l2.512-1.013c-1.7-1.215-2.867-3.22-2.867-6.287 0-5.567 4.232-7.85 8.326-7.85a10.476 10.476 0 0 1 5.515 1.42v-2.341a13.318 13.318 0 0 0-5.848-1.309c-5.18 0-10.362 3.369-10.362 10.08zm10.584 10.08a14.954 14.954 0 0 0 6.102-1.308v-5.064l-2.341.944v2.478a8.56 8.56 0 0 1-3.597.72c-1.086 0-2.185-.139-3.214-.452l-3.036 1.224c1.786 1.014 3.926 1.458 6.086 1.458zm6.102-10.694h-2.341v3.229l2.341-.944zm-11.45 6.9l9.109-3.671v2.037l-6.81 2.746a7.889 7.889 0 0 1-2.299-1.111z"/></defs><g><g transform="translate(-1066 -4788)"><use fill="#fff" xlink:href="#vbuwa"/></g><g transform="translate(-1066 -4788)"><use fill="#fff" xlink:href="#vbuwb"/></g></g></svg>