<svg xmlns="http://www.w3.org/2000/svg" xmlns:xlink="http://www.w3.org/1999/xlink" width="184" height="30" viewBox="0 0 184 30"><defs><path id="c2o6a" d="M1493.5 4745.84a2.392 2.392 0 0 0-2.494-2.564 2.506 2.506 0 1 0 2.494 2.564zm-2.495-4.185c2.23 0 4.302 1.436 4.302 4.185 0 2.749-2.072 4.184-4.302 4.184-2.219 0-4.3-1.435-4.3-4.184 0-2.75 2.08-4.185 4.3-4.185zm-13.539 8.157v-7.945h1.77v3.194h3.972v-3.194h1.77v7.945h-1.77v-3.194h-3.972v3.194zm-9.736 0v-7.945h1.775v3.194h3.968v-3.194h1.769v7.945h-1.77v-3.194h-3.967v3.194zm-3.358-4.635c.096-.693-.333-2.05-2.07-2.05a2.161 2.161 0 0 0-2.331 2.05h4.402zm-6.176.663a3.98 3.98 0 0 1 4.026-4.185c3.157 0 4.248 2.548 3.734 4.847h-5.97c.197 1.425 1.59 2.018 3.046 2.018a5.833 5.833 0 0 0 2.511-.562v1.52a6.77 6.77 0 0 1-2.844.546c-2.432 0-4.503-1.388-4.503-4.184zm-6.584 3.972v-7.945h5.922v1.557h-4.153v6.388zm-3.528-3.972a2.443 2.443 0 0 0-2.468-2.633 2.794 2.794 0 0 0-2.532 1.658v1.933a2.781 2.781 0 0 0 2.532 1.674 2.446 2.446 0 0 0 2.468-2.632zm-5.196-2.728a3.774 3.774 0 0 1 3.062-1.457c2.378 0 3.935 1.902 3.935 4.185 0 2.283-1.557 4.184-3.935 4.184a3.671 3.671 0 0 1-2.866-1.24v4.667h-1.77v-11.584h1.574zm-7.002.016a2.17 2.17 0 0 0-2.336 2.05h4.401c.101-.694-.328-2.05-2.065-2.05zm-3.002-.252a3.979 3.979 0 0 1 2.917-1.221c3.163 0 4.253 2.548 3.74 4.847h-5.975c.201 1.425 1.59 2.018 3.045 2.018.87.002 1.73-.19 2.516-.562v1.52a6.789 6.789 0 0 1-2.844.546c-2.437 0-4.502-1.388-4.502-4.184a3.975 3.975 0 0 1 1.103-2.964zm-7.28.5c-.233 3.836-.826 6.585-2.945 6.585a3.139 3.139 0 0 1-1.09-.218v-1.387c.163.062.337.096.513.1 1.34 0 1.706-2.648 1.854-6.59h6.118v7.946h-1.77v-6.435h-2.68zm-9.831 0c-.233 3.836-.826 6.585-2.945 6.585a3.116 3.116 0 0 1-1.091-.218v-1.387c.164.063.338.097.514.1 1.34 0 1.7-2.648 1.849-6.59h6.123v7.946h-1.77v-6.435h-2.68zm-11.17 4.1c0 .779.693 1.176 1.488 1.176a3.225 3.225 0 0 0 2.299-.943v-1.34a9.193 9.193 0 0 0-1.722-.2c-1.007 0-2.065.317-2.065 1.307zm5.556.498a.513.513 0 0 0 .583.578 2 2 0 0 0 .529-.096v1.271a3.123 3.123 0 0 1-1.128.202 1.594 1.594 0 0 1-1.589-.927 4.62 4.62 0 0 1-2.993 1.022c-1.44 0-2.781-.794-2.781-2.431 0-2.034 1.886-2.664 3.544-2.664.694.009 1.386.087 2.066.233v-.281c0-.996-.726-1.69-2.088-1.69-.986.002-1.96.211-2.86.615v-1.621a9.671 9.671 0 0 1 3.046-.53c2.251 0 3.67 1.075 3.67 3.475v2.844zm-10.293-2.134a2.396 2.396 0 0 0-2.5-2.564 2.509 2.509 0 1 0 2.5 2.564zm-2.5-4.185c2.237 0 4.302 1.436 4.302 4.185 0 2.749-2.065 4.184-4.301 4.184-2.22 0-4.301-1.435-4.301-4.184 0-2.75 2.081-4.185 4.3-4.185zm-13.538 8.157v-7.945h7.51v7.945h-1.769v-6.388h-3.972v6.388zm-9.73 0v-7.945h7.51v7.945h-1.769v-6.388h-3.972v6.388zm-9.768 0v-7.945h1.769v5.196l4.253-5.196h1.52v7.945h-1.769v-5.196l-4.253 5.196zm-7.532 0v-11.584h7.844v1.737h-5.959v9.847z"/><path id="c2o6b" d="M1327.808 4748.639c-.493.19-.715.185-.9.694a.976.976 0 1 0 .9-.694zm-4.863-6.06c-.455.207-.678.133-.869.625a1.002 1.002 0 0 0 .948 1.325.976.976 0 0 0-.079-1.95zm7.262-.01c-.519.222-.715.222-.905.789a1.01 1.01 0 0 0 1 1.17.982.982 0 0 0-.095-1.96zm-3.925-5.308c3.888-.005 6.367 1.806 7.829 4.206.221.394.419.8.593 1.218a8.866 8.866 0 0 1 .546 4.656 10.719 10.719 0 0 1-.572 2.029 8.79 8.79 0 0 1-5.282 4.9 13.09 13.09 0 0 1-1.911.397 4.816 4.816 0 0 1-1.203.01c-.376-.058-.694 0-1.033-.068-.61-.12-1.21-.287-1.795-.498a8.508 8.508 0 0 1-5.202-5.647 8.665 8.665 0 0 1-.27-3.867c.093-.535.226-1.063.397-1.578a8.815 8.815 0 0 1 5.28-5.281 12.726 12.726 0 0 1 1.58-.397l1.043-.08zm-.651-5.837v3.798c-.085.196-1.377.328-1.669.418a13.16 13.16 0 0 0-3.093 1.356c-.254.154-.815.726-1.133.684a3.544 3.544 0 0 1-.699-.662c-.617-.615-1.235-1.23-1.854-1.844-.141.109-.269.233-.382.371-.322.323-.646.641-.974.964.161.243.362.458.593.636.63.635 1.26 1.266 1.891 1.901.09.244-.561 1.038-.7 1.25-.55.877-.977 1.825-1.27 2.818-.095.44-.196.88-.291 1.32l-.048.407c-.042.048-.09.1-.138.148-1.26.006-2.516.011-3.777.011a1.24 1.24 0 0 0-.02.508v1.441c1.266.002 2.531.005 3.797.01.196.086.329 1.378.419 1.67.277.988.677 1.938 1.192 2.828.19.286.381.572.567.858.089.106.18.212.27.323v.254c-.327.391-.689.751-1.081 1.076-.466.47-.933.937-1.404 1.403v.048c.45.445.9.895 1.345 1.34h.011c.837-.826 1.669-1.653 2.505-2.479.249-.095 1.05.567 1.25.7.884.56 1.844.993 2.85 1.281.43.095.858.186 1.287.281l.392.047c.057.044.112.09.165.138.005 1.26.01 2.516.01 3.777.168.042.343.05.514.021h1.447v-3.798a.65.65 0 0 1 .544-.185c.446-.095.885-.196 1.33-.292.992-.295 1.94-.722 2.818-1.27.36-.186.692-.421.985-.7h.254c.827.825 1.653 1.647 2.48 2.468.01.007.024.01.036.011l1.35-1.367c-.608-.616-1.218-1.228-1.827-1.838-.26-.26-.635-.445-.66-.895a5.9 5.9 0 0 0 .533-.741 10.105 10.105 0 0 0 1.346-2.733l.334-1.335a1.89 1.89 0 0 1 .243-.89c1.26-.006 2.516-.01 3.777-.01.042-.169.05-.344.021-.515V4745c-1.266-.002-2.532-.005-3.798-.01-.202-.085-.329-1.373-.419-1.67a11.745 11.745 0 0 0-1.134-2.732l-.566-.869c-.111-.143-.217-.286-.328-.43-.111-.333.35-.603.514-.767l1.954-1.955v-.058c-.312-.307-.625-.62-.937-.927a1.617 1.617 0 0 0-.419-.408c-.618.622-1.24 1.24-1.865 1.854-.222.223-.455.641-.879.641a10.105 10.105 0 0 0-3.416-1.854c-.455-.143-.916-.26-1.383-.35-.243-.037-.492-.068-.741-.105-.048-.043-.101-.09-.148-.138-.006-1.26-.011-2.516-.011-3.777a1.252 1.252 0 0 0-.514-.021h-1.446z"/></defs><g><g transform="translate(-1312 -4731)"><use fill="#fff" xlink:href="#c2o6a"/></g><g transform="translate(-1312 -4731)"><use fill="#fff" xlink:href="#c2o6b"/></g></g></svg>