<svg xmlns="http://www.w3.org/2000/svg" xmlns:xlink="http://www.w3.org/1999/xlink" width="117" height="34" viewBox="0 0 117 34"><defs><path id="f6d6a" d="M1422.606 4688.273c-2.796 0-4.169 2.024-4.169 4.238 0 2.214 1.373 4.232 4.169 4.232 2.812 0 4.169-2.018 4.169-4.232 0-2.22-1.357-4.238-4.17-4.238zm0-1.769c4.074 0 6.092 2.945 6.092 6.007s-2.018 6.007-6.092 6.007c-4.084 0-6.085-2.945-6.085-6.007s2.001-6.007 6.085-6.007zm-9.868.212zm0 0h1.705v11.585h-1.885v-8.11l-3.655 5.493h-1.128l-3.655-5.509v8.126h-1.886v-11.585h1.706l4.402 6.637zm-19.975 11.585v-11.585h7.845v1.738h-5.954v9.847zm-9.884-2.167c0 1.388-1.27 2.384-3.718 2.384a6.638 6.638 0 0 1-2.982-.647v-1.525a6.278 6.278 0 0 0 2.749.662c1.176 0 2.166-.212 2.166-1.091 0-.842-.858-.975-1.653-.975h-1.62v-1.356h1.62c.843 0 1.49-.233 1.49-.895 0-.71-.764-1.06-1.903-1.06a6.31 6.31 0 0 0-2.7.647v-1.52a6.992 6.992 0 0 1 2.912-.63c2.453 0 3.475 1.043 3.475 2.33a1.76 1.76 0 0 1-1.404 1.775 1.936 1.936 0 0 1 1.568 1.901zm-11.647-4.518a2.174 2.174 0 0 0-2.336 2.05h4.401c.101-.694-.328-2.05-2.065-2.05zm-4.105 2.712a3.978 3.978 0 0 1 4.02-4.185c3.162 0 4.253 2.548 3.74 4.847h-5.975c.2 1.425 1.588 2.018 3.046 2.018.87.005 1.73-.187 2.516-.561v1.52a6.771 6.771 0 0 1-2.845.55c-2.431 0-4.503-1.392-4.503-4.19zm-5.562 2.251c1.24 0 2.479-.217 2.479-1.8 0-1.606-1.255-1.839-2.48-1.839h-2.88v3.64zm-.037-5.36c2.203 0 4.439.693 4.439 3.56 0 2.844-2.236 3.522-4.44 3.522h-4.73v-11.585h8.258v1.738h-6.372v2.765z"/><path id="f6d6b" d="M1330.383 4695.631c.431.002.846.169 1.16.466.566.376 1.096.773 1.63 1.176a14.398 14.398 0 0 1 5.287 7.453c.222.73.312 1.52.472 2.325l.063.858c.098.528.08 1.07-.053 1.59-.217.324-.535.568-.905.693a2.07 2.07 0 0 1-.853-.604c-.276-.545-.101-1.541-.223-2.23a17.491 17.491 0 0 0-.805-3.167c-.795-2.092-2.648-4.116-4.301-5.371-.477-.345-.953-.694-1.43-1.038-.217-.143-.43-.286-.647-.43a1.201 1.201 0 0 1 .064-1.498c.171-.094.352-.17.54-.223zm-17.332-18.28c.09.048.173.107.249.175.168.047.33.119.476.212.472.392.24 1.568.366 2.315.26 1.525.514 2.919 1.17 4.047.35.598.695 1.186 1.092 1.737 1.61 2.214 3.951 3.772 6.34 5.196.663.392 1.33.806 2.04 1.15.224.17.477.302.747.386.283-.068.549-.196.778-.376.377-.217.763-.413 1.128-.625 1.15-.672 2.267-1.324 3.327-2.07a7.813 7.813 0 0 0 1.435-1.15v-.133c-.08-.074-.158-.142-.238-.217-2.474-.005-4.945-.009-7.416-.01-.932 0-1.636.08-1.922-.588a1.168 1.168 0 0 1-.064-.71l.159-.36c.381-.578 2.41-.376 3.39-.376h8.458c.308-.149.849-1.187 1.05-1.536a8.9 8.9 0 0 0 .555-1.16.71.71 0 0 0 .128-.52c-.148-.328-.652-.243-1.118-.243h-14.147c-.98 0-2.755.18-3.316-.255a1.268 1.268 0 0 1-.302-.71c-.02-.33.117-.65.371-.863a1.49 1.49 0 0 1 .497-.2l3.566-.017h14.858c.492-.17.216-1.515.343-2.108.149-.694.525-.646.975-.99h.036a.636.636 0 0 0 .355.2.95.95 0 0 1 .567.6c.105.67.09 1.353-.042 2.017l-.143 1.203a14.395 14.395 0 0 1-1.065 3.326c-2.622 5.51-7.813 7.702-12.924 10.652a53.444 53.444 0 0 0-4.751 2.898c-.352.23-.685.49-.996.773a.376.376 0 0 0-.212.36c.175.376 1.663.228 2.273.228h5.683c.927 0 1.605-.053 1.88.615.09.21.112.443.064.667a.93.93 0 0 1-.551.673 3.69 3.69 0 0 1-1.144.08h-2.236c-2.77.004-5.54.008-8.31.01-.329.148-.88 1.25-1.092 1.615-.147.26-.704 1.277-.646 1.605.249.334.64.239 1.187.239h14.095c.974 0 2.796-.18 3.342.254.174.204.28.458.302.726a.98.98 0 0 1-.63.985c-.424.096-.86.123-1.292.08h-17.385c-.477.169-.202 1.466-.328 2.044-.154.71-.536.63-.986.99a1.739 1.739 0 0 1-.906-.693 4.419 4.419 0 0 1-.053-1.616c.038-1.247.278-2.48.71-3.65.302-.71.504-1.382.842-2.028a15.482 15.482 0 0 1 4.836-5.387c1.033-.731 2.108-1.399 3.2-2.071.35-.218 1.18-.53 1.366-.87.005-.068.011-.142.011-.211-1.144-.853-2.511-1.53-3.708-2.325-2.701-1.796-5.101-4.121-6.325-7.416a18.48 18.48 0 0 1-.736-2.537l-.158-1.324a5.622 5.622 0 0 1-.038-1.886c.228-.662.625-.44.933-.827z"/></defs><g><g transform="translate(-1312 -4677)"><use fill="#fff" xlink:href="#f6d6a"/></g><g transform="translate(-1312 -4677)"><use fill="#fff" xlink:href="#f6d6b"/></g></g></svg>