<svg xmlns="http://www.w3.org/2000/svg" xmlns:xlink="http://www.w3.org/1999/xlink" width="210" height="35" viewBox="0 0 210 35"><defs><path id="hy44a" d="M1268.016 4746.819c0-.779.577-1.229 1.557-1.229h2.034v2.452h-2.034c-.98 0-1.557-.45-1.557-1.223zm-.18 5.244l1.965-2.601h1.806v2.6h1.77v-7.94h-4.106c-1.981 0-3.056 1.24-3.056 2.681a2.526 2.526 0 0 0 1.77 2.463l-2.188 2.797h2.039zm-9.571 0l4.253-5.197v5.197h1.774v-7.94h-1.525l-4.253 5.19v-5.19h-1.77v7.94zm-9.482 0v-3.194h3.973v3.194h1.769v-7.94h-1.77v3.188h-3.972v-3.188h-1.77v7.94zm-7.299 0v-6.388h4.153v-1.552h-5.922v7.94h1.769zm-7.717-3.64c.579.011 1.155.077 1.721.197v1.34c-.61.61-1.437.95-2.299.943-.794 0-1.488-.398-1.488-1.176 0-.99 1.059-1.303 2.066-1.303zm3.495 1.802v-2.845c0-2.4-1.424-3.475-3.675-3.475a9.7 9.7 0 0 0-3.046.53v1.621a7.126 7.126 0 0 1 2.866-.614c1.356 0 2.081.699 2.081 1.69v.28a10.51 10.51 0 0 0-2.065-.233c-1.658 0-3.544.63-3.544 2.664 0 1.637 1.34 2.432 2.781 2.432a4.644 4.644 0 0 0 2.998-1.023 1.58 1.58 0 0 0 1.584.927c.385.003.768-.065 1.128-.201v-1.271c-.17.056-.35.088-.53.095a.514.514 0 0 1-.578-.577zm-16.272 1.838v-5.377l2.251 3.475h1.06l2.267-3.475v5.377h1.706v-7.94h-1.79l-2.713 4.184-2.696-4.184h-1.79v7.94zm-11.552-3.64a9.2 9.2 0 0 1 1.721.197v1.34a3.225 3.225 0 0 1-2.298.943c-.795 0-1.494-.398-1.494-1.176 0-.99 1.059-1.303 2.07-1.303zm3.49 1.802v-2.845c0-2.4-1.424-3.475-3.675-3.475a9.63 9.63 0 0 0-3.041.53v1.621a7.076 7.076 0 0 1 2.86-.614c1.356 0 2.087.699 2.087 1.69v.28a10.59 10.59 0 0 0-2.071-.233c-1.652 0-3.538.63-3.538 2.664 0 1.637 1.34 2.432 2.78 2.432a4.627 4.627 0 0 0 2.993-1.023c.278.617.916.99 1.59.927.383.004.764-.064 1.123-.2v-1.272c-.172.056-.35.088-.53.095a.514.514 0 0 1-.578-.577zm-10.79 1.838v-6.388h2.728v-1.552h-7.246v1.552h2.744v6.388zm-9.301-3.64a9.07 9.07 0 0 1 1.717.197v1.34c-.609.61-1.437.95-2.3.943-.794 0-1.488-.398-1.488-1.176 0-.99 1.06-1.303 2.07-1.303zm3.491 1.802v-2.845c0-2.4-1.425-3.475-3.677-3.475a9.692 9.692 0 0 0-3.045.53v1.621a7.123 7.123 0 0 1 2.866-.614c1.356 0 2.082.699 2.082 1.69v.28a10.515 10.515 0 0 0-2.067-.233c-1.652 0-3.543.63-3.543 2.664 0 1.637 1.34 2.432 2.78 2.432a4.634 4.634 0 0 0 3-1.023c.277.617.916.99 1.588.927.384.003.764-.065 1.124-.201v-1.271a1.95 1.95 0 0 1-.53.095.516.516 0 0 1-.578-.577zm-10.298-2.135a2.447 2.447 0 0 1-2.468 2.633 2.769 2.769 0 0 1-2.527-1.674v-1.934a2.777 2.777 0 0 1 2.527-1.652 2.444 2.444 0 0 1 2.468 2.627zm-5.196-2.728v-1.24h-1.573v11.58h1.774v-4.667a3.67 3.67 0 0 0 2.861 1.24c2.383 0 3.936-1.902 3.936-4.185 0-2.283-1.553-4.185-3.936-4.185a3.791 3.791 0 0 0-3.062 1.457zm-7.516 3.062a9.14 9.14 0 0 1 1.722.196v1.34a3.228 3.228 0 0 1-2.3.943c-.794 0-1.488-.398-1.488-1.176 0-.99 1.06-1.303 2.066-1.303zm3.49 1.8v-2.844c0-2.4-1.42-3.475-3.67-3.475a9.672 9.672 0 0 0-3.046.53v1.621a7.107 7.107 0 0 1 2.866-.614c1.355 0 2.082.699 2.082 1.69v.28a10.538 10.538 0 0 0-2.066-.233c-1.658 0-3.543.63-3.543 2.664 0 1.637 1.34 2.432 2.78 2.432a4.617 4.617 0 0 0 2.993-1.023c.279.616.916.987 1.589.927.385.003.768-.065 1.128-.2v-1.272c-.171.055-.35.087-.53.095a.514.514 0 0 1-.582-.577zm-10.127-2.796h-4.402a2.172 2.172 0 0 1 2.336-2.05c1.738 0 2.167 1.356 2.066 2.05zm-6.17.662c0 2.797 2.065 4.185 4.496 4.185.978.025 1.95-.161 2.85-.546v-1.52a5.858 5.858 0 0 1-2.516.561c-1.457 0-2.845-.593-3.045-2.018h5.974c.514-2.299-.578-4.847-3.74-4.847a3.98 3.98 0 0 0-4.02 4.185zm-3.412 3.973v-6.388h2.728v-1.552h-7.246v1.552h2.748v6.388zm-12.38-3.904c0 2.828 2.168 4.116 4.286 4.116a5.94 5.94 0 0 0 2.627-.546v-1.637c-.706.4-1.503.611-2.315.615-1.424 0-2.796-.81-2.796-2.617 0-1.87 1.425-2.611 2.829-2.611a3.871 3.871 0 0 1 2.204.662v-1.626a4.818 4.818 0 0 0-2.453-.61c-2.114 0-4.381 1.293-4.381 4.254zm-6.758-.17a1.748 1.748 0 0 0 1.41-1.769c0-1.287-1.028-2.33-3.475-2.33a7.084 7.084 0 0 0-2.914.625v1.525a6.265 6.265 0 0 1 2.696-.646c1.144 0 1.902.35 1.902 1.06 0 .661-.642.895-1.488.895h-1.622v1.356h1.622c.794 0 1.657.132 1.657.974 0 .88-.996 1.091-2.166 1.091a6.258 6.258 0 0 1-2.749-.662v1.526c.93.44 1.948.66 2.977.64 2.452 0 3.723-.99 3.723-2.378a1.95 1.95 0 0 0-1.573-1.907zm-8.008-.561h-4.402a2.16 2.16 0 0 1 2.33-2.05c1.738 0 2.172 1.356 2.072 2.05zm-6.172.662c0 2.797 2.066 4.185 4.497 4.185.979.025 1.951-.161 2.85-.546v-1.52a5.858 5.858 0 0 1-2.515.561c-1.458 0-2.845-.593-3.046-2.018h5.975c.514-2.299-.583-4.847-3.74-4.847a3.983 3.983 0 0 0-4.02 4.185zm-8.443 2.251v-3.639h2.877c1.223 0 2.484.233 2.484 1.833 0 1.589-1.24 1.806-2.484 1.806zm0-5.36v-2.765h6.367v-1.737h-8.252v11.584h4.73c2.198 0 4.433-.678 4.433-3.528 0-2.86-2.235-3.554-4.433-3.554z"/><path id="hy44b" d="M1094.093 4758.357c.959-.016.98 1.382.164 1.541a.753.753 0 0 1-.79-.99.847.847 0 0 1 .626-.551zm-11.51-4.052a.785.785 0 0 1 .312 1.53.75.75 0 0 1-.847-.964.9.9 0 0 1 .535-.566zm-15.202-3.48c1.732-.032 1.8 2.399.355 2.685a1.331 1.331 0 0 1-1.441-1.679c.153-.61.535-.79 1.085-1.007zm12.967-9.858c2.23-.016 3.294 1.377 3.623 3.342a3.403 3.403 0 0 1-.228 1.716 3.512 3.512 0 0 1-2.961 2.273 2.715 2.715 0 0 1-1.563-.302 3.735 3.735 0 0 1-1.949-4.402 3.664 3.664 0 0 1 2.04-2.383c.211-.07.423-.133.64-.202.133-.015.265-.031.397-.042zm-7.564-5.212a.779.779 0 0 1 .301 1.525.753.753 0 0 1-.82-.98.925.925 0 0 1 .519-.545zm19.582-6.388a2.484 2.484 0 0 1 2.352 3.406 2.412 2.412 0 0 1-1.933 1.605c-1.579.265-2.998-1.515-2.533-3.147a2.564 2.564 0 0 1 1.447-1.716c.196-.085.44-.063.667-.148zm-.61-1.865c-.371.08-.732.202-1.074.366a4.548 4.548 0 0 0-2.23 5.026c.127.473.306.93.534 1.362l-5.106 5.471c-.106.101-.212.202-.313.308a4.92 4.92 0 0 0-3.962-.922 7.185 7.185 0 0 0-2.055.922c-.733-.788-1.461-1.574-2.187-2.358a.625.625 0 0 1 .058-.519c.119-.503.104-1.029-.043-1.525a2.539 2.539 0 0 0-4.009-1.255c-2.182 1.69-.392 5.884 2.622 4.613l1.923 2.082c.11.116.228.233.339.35-.211.277-.375.586-.487.916a6.158 6.158 0 0 0-.197 4.068c-1.965 1.137-3.93 2.272-5.895 3.406-.583-.8-2.198-1.197-3.353-.689a3.441 3.441 0 0 0-1.472 4.74 3.101 3.101 0 0 0 5.704-2.324c1.965-1.143 3.93-2.283 5.896-3.422.157.276.37.516.625.704a5.17 5.17 0 0 0 3.724 1.42c.18.852.354 1.71.535 2.569a3.094 3.094 0 0 0-1.118 1.817c-.365 1.71 1.271 3.517 2.95 3.12a2.634 2.634 0 0 0 1.95-1.653 2.722 2.722 0 0 0-1.997-3.697c-.176-.858-.355-1.711-.535-2.57.159-.079.317-.164.477-.243.174-.117.35-.233.518-.355l8.237 8.777a3.84 3.84 0 0 0-.207 1.404c.25 1.504 1.49 2.881 3.321 2.31.328-.115.63-.292.89-.52a2.958 2.958 0 0 0 .673-3.194 2.534 2.534 0 0 0-1.758-1.499 2.46 2.46 0 0 0-1.594.138 15235.52 15235.52 0 0 1-7.92-8.454c-.116-.117-.227-.233-.344-.35.136-.143.237-.315.297-.503.37-.78.598-1.619.673-2.479.028-.28.011-.562-.048-.837a7.06 7.06 0 0 0-.922-2.616c1.8-1.92 3.602-3.84 5.408-5.763.191.11.387.217.577.323.327.135.666.237 1.013.307 1.96.44 3.596-1.001 4.248-2.098a4.54 4.54 0 0 0-3.83-6.753z"/></defs><g><g transform="translate(-1064 -4727)"><use fill="#fff" xlink:href="#hy44a"/></g><g transform="translate(-1064 -4727)"><use fill="#fff" xlink:href="#hy44b"/></g></g></svg>