<svg xmlns="http://www.w3.org/2000/svg" xmlns:xlink="http://www.w3.org/1999/xlink" width="193" height="29" viewBox="0 0 193 29"><defs><path id="75x7a" d="M1257.507 4850.013a2.397 2.397 0 0 0-2.5-2.564 2.509 2.509 0 1 0 2.5 2.564zm-2.5-4.185c2.235 0 4.301 1.436 4.301 4.185 0 2.749-2.066 4.184-4.301 4.184-2.214 0-4.301-1.435-4.301-4.184 0-2.744 2.087-4.185 4.3-4.185zm-13.54 8.157v-7.945h1.77v3.194h3.973v-3.194h1.769v7.945h-1.769v-3.194h-3.973v3.194zm-5.942-3.638c-1.006 0-2.066.312-2.066 1.303 0 .778.694 1.176 1.489 1.176a3.223 3.223 0 0 0 2.298-.943v-1.34a9.201 9.201 0 0 0-1.721-.196zm3.49 1.8a.514.514 0 0 0 .583.578c.18-.008.358-.04.53-.095v1.27a3.12 3.12 0 0 1-1.129.202 1.596 1.596 0 0 1-1.589-.927 4.626 4.626 0 0 1-2.993 1.022c-1.44 0-2.78-.794-2.78-2.43 0-2.035 1.885-2.665 3.543-2.665.695.01 1.387.087 2.066.233v-.28c0-.997-.725-1.69-2.087-1.69a7.01 7.01 0 0 0-2.86.614v-1.621a9.669 9.669 0 0 1 3.046-.53c2.25 0 3.67 1.076 3.67 3.475v2.844zm-14.068-2.796h2.367c.631 0 1.129-.25 1.129-.959a.986.986 0 0 0-1.129-1.012h-2.367zm0 3.295h2.468c.726 0 1.256-.25 1.256-1.012 0-.81-.61-1.028-1.224-1.028h-2.5zm-1.77 1.34v-7.946h4.535c1.605 0 2.516.88 2.516 2.12a1.96 1.96 0 0 0 .233 3.639c0 1.228-.778 2.186-2.617 2.186zm-3.527-3.973a2.4 2.4 0 0 0-2.5-2.564 2.506 2.506 0 1 0 2.5 2.564zm-2.5-4.185c2.235 0 4.306 1.436 4.306 4.185 0 2.749-2.07 4.184-4.307 4.184-2.213 0-4.3-1.435-4.3-4.184 0-2.744 2.087-4.185 4.3-4.185zm-7.986 2.325a2.445 2.445 0 0 0-1.813-.773 2.782 2.782 0 0 0-2.528 1.658v1.934a2.769 2.769 0 0 0 2.528 1.674 2.447 2.447 0 0 0 2.468-2.633 2.445 2.445 0 0 0-.655-1.86zm-4.541-.868a3.79 3.79 0 0 1 3.061-1.457c2.383 0 3.936 1.902 3.936 4.185 0 2.283-1.553 4.184-3.936 4.184a3.67 3.67 0 0 1-2.86-1.24v4.668h-1.775v-11.585h1.574zm-11.336 6.7v-7.945h1.77v5.196l4.253-5.196h1.52v7.945h-1.77v-5.196l-4.252 5.196zm-3.3 2.135v-2.135h-6.848v-7.945h1.77v6.388h3.792v-6.388h1.769v6.42h1.191v3.66zm-16.616-2.135v-7.945h1.775v5.196l4.248-5.196h1.525v7.945h-1.774v-5.196l-4.249 5.196zm-6.324-1.292c1.79-.085 2.845-1.144 2.845-2.68 0-1.536-1.055-2.596-2.845-2.68zm-4.566-2.68c0 1.541 1.06 2.595 2.844 2.68v-5.36c-1.784.084-2.845 1.144-2.845 2.68zm2.844 7.612v-3.428c-2.627-.079-4.614-1.668-4.614-4.184s1.987-4.105 4.614-4.185v-3.427h1.722v3.427c2.633.08 4.619 1.669 4.619 4.185 0 2.516-1.986 4.105-4.62 4.184v3.428zm-13.867-3.64v-7.945h1.769v5.196l4.253-5.196h1.52v7.945h-1.769v-5.196l-4.253 5.196zm-5.896 0v-6.387h-2.743v-1.558h7.246v1.558h-2.728v6.387zm-7.711-6.605a2.794 2.794 0 0 0-2.532 1.658v1.934a2.783 2.783 0 0 0 2.532 1.674c1.44 0 2.462-1.076 2.462-2.633s-1.021-2.633-2.462-2.633zm-2.733-.095a3.789 3.789 0 0 1 3.06-1.457c2.385 0 3.942 1.902 3.942 4.185 0 2.283-1.557 4.184-3.941 4.184a3.668 3.668 0 0 1-2.86-1.24v4.668h-1.77v-11.585h1.568v1.245zm-7.004.016a2.168 2.168 0 0 0-2.33 2.05h4.402c.1-.694-.334-2.05-2.072-2.05zm-4.099 2.712a3.98 3.98 0 0 1 4.02-4.185c3.163 0 4.254 2.548 3.74 4.847h-5.975c.201 1.425 1.59 2.018 3.046 2.018.87.002 1.73-.19 2.516-.561v1.52c-.9.385-1.872.57-2.85.545-2.431 0-4.497-1.387-4.497-4.184zm-10.578-1.722c0-4.12 3.094-6.102 6.14-6.102a7.43 7.43 0 0 1 3.288.758v1.838a5.297 5.297 0 0 0-2.976-.858c-2.215 0-4.519 1.303-4.535 4.364 0 2.845 2.352 4.169 4.566 4.169a5.036 5.036 0 0 0 3.03-.89v1.87a7.693 7.693 0 0 1-3.358.757c-2.992 0-6.171-1.949-6.155-5.906z"/><path id="75x7b" d="M1092.8 4855.607a.91.91 0 0 0 .117.01v5.933a1.346 1.346 0 0 1-.53-.286 4.62 4.62 0 0 0-1.43-.731c-.498-.08-1.452.598-1.775.789-.126.109-.274.19-.434.238l-.016-5.916c.303.028.602.092.89.19.784.16 2.686.1 3.178-.227zm-2.362-8.634c.411-.021.822 0 1.228.063 2.114.45 4.053 2.521 2.956 4.937-.551 1.223-1.71 2.013-3.37 2.262a4.117 4.117 0 0 1-1.911-.228 3.677 3.677 0 0 1-2.648-2.972 2.993 2.993 0 0 1 .143-1.53 3.908 3.908 0 0 1 2.426-2.294l.635-.175.54-.063zm-10.864-4.365c-.293.04-.56.19-.747.418a.84.84 0 0 0 .503 1.203c.7.082 1.406.096 2.108.042h5.218c1.017 0 1.896.08 2.066-.672a.768.768 0 0 0-.133-.583c-.355-.535-1.112-.408-2.04-.408zm-3.602-1.923c5.177.007 10.352.01 15.525.01.075.054.36.695.45.827a3.392 3.392 0 0 0 1.965 1.287c.066.317.074.644.027.964v2.262a.027.027 0 0 0-.016.01 4.299 4.299 0 0 1-.852-.365 6.61 6.61 0 0 0-2.956-.365 7.254 7.254 0 0 0-2.739.9 75.11 75.11 0 0 1-.8.583l-.312.286h-8.639a3.673 3.673 0 0 0-1.536.148.828.828 0 0 0-.36.917c.2.688 1.054.603 2.039.603h6.807c.186-.03.377-.014.555.048a3.927 3.927 0 0 0-.376 1.849 2.375 2.375 0 0 1-.593.02h-6.017c-1.203 0-2.262-.195-2.442.758a.685.685 0 0 0 .106.445c.318.599 1.129.466 2.093.466h7.166c.088.156.166.317.233.482.176.32.378.625.604.911.201.212.408.424.61.63.1.09.206.176.306.265l.016.488-.042.027h-10.822a4.879 4.879 0 0 1-.387-.742 3.408 3.408 0 0 0-2.012-1.361 2.158 2.158 0 0 1-.042-.837v-9.355c.233-.09.466-.185.698-.275.293-.14.567-.317.816-.524.273-.225.5-.5.667-.81.071-.192.158-.376.26-.552zm-6.44-3.586l28.412.01c.011.007.024.011.036.011-.006 7.19-.015 14.381-.025 21.575-.237.065-.484.08-.726.042-.784-.005-1.574-.005-2.363-.01-.01-.006-.026-.006-.037-.011a783.35 783.35 0 0 1-.01-4.148c.138-.127.28-.254.423-.376.175-.201.355-.397.53-.593a5.603 5.603 0 0 0 1.006-2.389 4.708 4.708 0 0 0-.54-2.881 2.402 2.402 0 0 1-.413-.673c.006-1.42.006-2.84.01-4.264.061-.533.04-1.073-.063-1.6-.233-.588-.715-.424-1.367-.593-.206-.06-.4-.157-.572-.286a1.425 1.425 0 0 1-.477-.636c-.19-.577-.01-1.006-.672-1.213a3.77 3.77 0 0 0-.97-.047h-14.71c-.646 0-1.97-.112-2.372.116-.572.318-.36 1.044-.726 1.52a1.612 1.612 0 0 1-.837.546c-.651.17-1.138.01-1.371.593-.07.293-.091.596-.064.895v10.123c-.065.462-.016.933.142 1.372.168.217.413.359.684.397.149.005.302.016.45.021.254.06.495.166.71.312.224.166.395.392.493.652.069.18.015.392.079.604.09.284.31.509.594.604.39.074.79.094 1.186.058h2.443c2.794-.002 5.587-.005 8.378-.01.051.153.066.316.043.476l-.016 1.41a5.261 5.261 0 0 1-1.033.03c-1.028-.004-2.055-.004-3.083-.01l-13.215-.047v-21.532c.016-.016.026-.032.042-.048zm-1.23-1.668a.85.85 0 0 1-.297.137 1.335 1.335 0 0 0-.413.493v22.47c0 .767-.11 1.392.424 1.705.527.155 1.08.202 1.627.138h3.59l13.56.031c.012.01.021.023.027.038l.016.73v1.473c-.027.276-.005.553.063.821.147.246.376.432.646.524h.18c.297-.001.584-.102.817-.286.556-.323 1.117-.646 1.679-.969.185-.163.404-.284.64-.355.783.47 1.563.934 2.341 1.393.266.177.584.254.901.217.282-.09.52-.285.663-.545.07-.33.087-.67.052-1.007v-1.996c.371-.07.75-.082 1.123-.038h2.209c.366.031.734.015 1.096-.047a.98.98 0 0 0 .477-.35c.238-.35.154-1.06.154-1.6V4837.2c0-.72.074-1.346-.413-1.632-.419-.249-1.706-.137-2.4-.137h-28.761z"/></defs><g><g transform="translate(-1067 -4835)"><use fill="#fff" xlink:href="#75x7a"/></g><g transform="translate(-1067 -4835)"><use fill="#fff" xlink:href="#75x7b"/></g></g></svg>