<svg xmlns="http://www.w3.org/2000/svg" xmlns:xlink="http://www.w3.org/1999/xlink" width="186" height="31" viewBox="0 0 186 31"><defs><path id="j6jwa" d="M1490.931 4796.898h2.363a.985.985 0 0 1 1.127 1.012c0 .71-.497.958-1.127.958h-2.363zm0 3.226h2.495c.615 0 1.223.217 1.223 1.027 0 .763-.529 1.007-1.254 1.007h-2.464zm2.892 3.38c1.839 0 2.617-.965 2.617-2.188a1.96 1.96 0 0 1-.233-3.64c0-1.239-.911-2.118-2.516-2.118h-4.534v7.945zm-8.194-3.974a2.506 2.506 0 1 1-2.495-2.563 2.395 2.395 0 0 1 2.495 2.564zm-6.801 0c0 2.744 2.087 4.185 4.306 4.185 2.23 0 4.302-1.44 4.302-4.185 0-2.744-2.072-4.184-4.302-4.184-2.22 0-4.306 1.435-4.306 4.184zm-3.411 3.973v-6.388h2.733v-1.557h-7.246v1.557h2.743v6.388zm-11.648 0v-3.194h3.967v3.194h1.77v-7.945h-1.77v3.194h-3.967v-3.194h-1.775v7.945zm-7.718-3.644c.579.012 1.156.08 1.721.201v1.34a3.226 3.226 0 0 1-2.298.943c-.795 0-1.489-.397-1.489-1.176 0-.99 1.06-1.308 2.066-1.308zm3.491 1.806v-2.844c0-2.4-1.42-3.475-3.671-3.475a9.666 9.666 0 0 0-3.046.53v1.62a7.008 7.008 0 0 1 2.86-.614c1.361 0 2.087.694 2.087 1.69v.28a10.555 10.555 0 0 0-2.065-.233c-1.658 0-3.544.63-3.544 2.665 0 1.637 1.34 2.431 2.78 2.431a4.592 4.592 0 0 0 2.994-1.028 1.59 1.59 0 0 0 1.588.927 3.12 3.12 0 0 0 1.128-.196v-1.276c-.17.06-.348.094-.529.1a.516.516 0 0 1-.582-.577zm-14.063-4.767h2.362a.987.987 0 0 1 1.128 1.012c0 .71-.498.958-1.128.958h-2.362zm0 3.226h2.494c.615 0 1.224.217 1.224 1.027 0 .763-.53 1.007-1.256 1.007h-2.462zm2.892 3.38c1.838 0 2.616-.965 2.616-2.188a1.96 1.96 0 0 1-.233-3.64c0-1.239-.91-2.118-2.515-2.118h-4.535v7.945zm-8.195-3.974a2.444 2.444 0 0 1-2.463 2.627 2.776 2.776 0 0 1-2.531-1.668v-1.933a2.793 2.793 0 0 1 2.531-1.658c1.436 0 2.463 1.075 2.463 2.632zm-5.196-2.733v-1.24h-1.568v11.585h1.77v-4.667a3.668 3.668 0 0 0 2.86 1.24c2.383 0 3.94-1.902 3.94-4.185 0-2.283-1.557-4.184-3.941-4.184a3.801 3.801 0 0 0-3.06 1.451zm-4.931 2.071h-4.402a2.16 2.16 0 0 1 2.33-2.05c1.738 0 2.172 1.356 2.072 2.05zm-6.172.662c0 2.797 2.067 4.185 4.498 4.185.978.025 1.95-.16 2.85-.546v-1.52a5.858 5.858 0 0 1-2.516.562c-1.458 0-2.85-.599-3.046-2.018h5.975c.514-2.3-.583-4.847-3.74-4.847a3.977 3.977 0 0 0-4.02 4.184zm-8.061.064c0 2.828 2.166 4.121 4.285 4.121a5.938 5.938 0 0 0 2.627-.546v-1.636a4.729 4.729 0 0 1-2.315.609c-1.42 0-2.796-.81-2.796-2.612 0-1.87 1.425-2.616 2.828-2.616a3.884 3.884 0 0 1 2.204.662v-1.621a4.807 4.807 0 0 0-2.447-.61c-2.119 0-4.386 1.288-4.386 4.249zm-7.47 3.91v-3.195h3.974v3.194h1.769v-7.945h-1.77v3.194h-3.972v-3.194h-1.769v7.945zm-5.296-3.974a2.508 2.508 0 1 1-2.5-2.563 2.402 2.402 0 0 1 2.5 2.563zm-6.8 0c0 2.744 2.086 4.185 4.3 4.185 2.236 0 4.301-1.44 4.301-4.185 0-2.744-2.065-4.184-4.3-4.184-2.215 0-4.301 1.435-4.301 4.184zm-6.193 3.973v-3.295h1.276l2.612 3.295h2.034l-3.188-4.004 2.876-3.941h-2.019l-2.282 3.146h-1.31v-3.146h-1.768v7.945zm-7.448-2.172a1.948 1.948 0 0 0-1.573-1.901 1.747 1.747 0 0 0 1.404-1.77c0-1.292-1.023-2.335-3.47-2.335a6.962 6.962 0 0 0-2.913.63v1.525a6.263 6.263 0 0 1 2.696-.646c1.14 0 1.902.345 1.902 1.06 0 .662-.647.89-1.489.89h-1.62v1.356h1.62c.795 0 1.653.132 1.653.98 0 .874-.99 1.09-2.166 1.09a6.238 6.238 0 0 1-2.744-.661v1.52a6.592 6.592 0 0 0 2.977.646c2.447 0 3.723-.99 3.723-2.384zm-9.587-2.463h-4.396a2.162 2.162 0 0 1 2.33-2.05c1.738 0 2.167 1.356 2.066 2.05zm-6.17.662c0 2.797 2.07 4.185 4.502 4.185a6.773 6.773 0 0 0 2.845-.546v-1.52a5.838 5.838 0 0 1-2.517.562c-1.452 0-2.845-.599-3.04-2.018h5.97c.513-2.3-.578-4.847-3.74-4.847a3.981 3.981 0 0 0-4.02 4.184zm-8.444 2.252v-3.645h2.882c1.223 0 2.479.233 2.479 1.838 0 1.59-1.24 1.807-2.48 1.807zm0-5.361v-2.765h6.372v-1.737h-8.258v11.584h4.736c2.198 0 4.433-.683 4.433-3.528 0-2.86-2.235-3.554-4.433-3.554z"/><path id="j6jwb" d="M1313.84 4798.872l-.207.207c.006 1.012.15 2.019.424 2.992.583 2.373 1.658 4.317 3.427 5.493a3.95 3.95 0 0 0 3.094.498c.301-.069 1.032-.132.831-.609a6.416 6.416 0 0 0-.974-.948 32.206 32.206 0 0 0-2.67-2.347c-.472-.36-1.266-.89-.678-1.69a.792.792 0 0 1 .265-.18c.545-.301.995.101 1.33.366.921.72 1.763 1.536 2.67 2.273.327.307.661.614.989.921h.24c.067-.063.13-.127.195-.19.099-.382.124-.78.075-1.171a3.783 3.783 0 0 0-.896-2.103 8.683 8.683 0 0 0-4.36-2.866c-.423-.137-.842-.196-1.292-.317a9.68 9.68 0 0 0-2.463-.329zm-1.075-1.811c3.152-.043 6.267.842 8.152 2.092a8.126 8.126 0 0 1 1.991 1.642 7.084 7.084 0 0 1 1.642 3.157 5.063 5.063 0 0 1-.18 2.431c-.195.37-.314.775-.349 1.192.18.201.36.408.54.609.455.48.882.984 1.282 1.51.174.29.386.555.63.789h.302c.53-.72 1.134-1.393 1.69-2.092l.747-.827a4.38 4.38 0 0 0-.408-1.387 5.47 5.47 0 0 1 0-2.76c.974-3.364 4.285-5.085 7.812-5.933.631-.148 1.336-.217 2.029-.339l.7-.047a4.278 4.278 0 0 1 1.35-.011c.71.19.503.794 1.017.959v.413a.686.686 0 0 1-.143.111c-.068.17-.132.34-.196.509-.021.333-.047.662-.074.995-.106.641-.16 1.261-.302 1.876-.557 2.441-1.51 4.513-3.003 6.017a7.183 7.183 0 0 1-1.849 1.345c-.309.228-.718.267-1.065.101a.93.93 0 0 1-.132-1.409c.196-.106.386-.207.583-.307.303-.194.594-.408.868-.641 1.457-1.176 2.22-2.961 2.787-5.048.151-.667.27-1.34.354-2.018.08-.297.096-.608.047-.911-.063-.07-.132-.138-.195-.207a8.993 8.993 0 0 0-2.463.328c-.456.122-.864.175-1.293.318a8.797 8.797 0 0 0-4.417 2.94 4.002 4.002 0 0 0-.847 2.018c-.12.478-.012.984.29 1.372h.239a9.395 9.395 0 0 1 1.292-1.176c.89-.72 1.701-1.552 2.622-2.24a.912.912 0 0 1 1.462.28.96.96 0 0 1-.111.864 2.97 2.97 0 0 1-.684.572c-.386.334-.773.662-1.16.996a26.314 26.314 0 0 0-2.817 2.616c-.932 1.007-1.918 1.955-2.765 3.051a20.68 20.68 0 0 0-1.123 1.568c-.103.252-.259.48-.455.668-.117.074-.26.074-.387.148-.043.037-.085.08-.122.117a.325.325 0 0 1-.207-.133 1.528 1.528 0 0 1-.47-.206c-.16-.26-.324-.525-.483-.79-.525-.778-1.134-1.472-1.706-2.198a3.74 3.74 0 0 0-.768-.853c-.265-.074-1.076.366-1.346.461a6.194 6.194 0 0 1-3.21.244c-3.58-.858-5.328-4.29-6.234-7.887-.175-.71-.201-1.452-.334-2.204a23.475 23.475 0 0 1-.037-.657 16.928 16.928 0 0 1-.18-.471.985.985 0 0 1-.158-.138v-.434c.392-.085.317-.482.545-.72.21-.14.45-.23.7-.265zm4.02-6.929a9.157 9.157 0 0 0-.206.217v2.177c0 .562-.085.8.216 1.092h2.3c.397.036.798.02 1.191-.048.318-.119.597-.32.81-.583.337-.33.498-.799.435-1.266a1.847 1.847 0 0 0-1.17-1.53 4.519 4.519 0 0 0-1.219-.059h-2.357zm17.512-4.926c-.159.043-.313.08-.471.122a2.35 2.35 0 0 0-1.256 1.314c-.228.672-.112 1.79-.112 2.637 0 1.95-.222 3.104.96 3.952.399.31.906.45 1.408.387a2.188 2.188 0 0 0 1.981-1.775l.016-2.685c0-.684.106-1.928-.074-2.458a2.291 2.291 0 0 0-1.451-1.43 3.972 3.972 0 0 0-1.001-.064zm-17.512 0a7.393 7.393 0 0 1-.206.217l.015 2.712a.502.502 0 0 0 .201.207h1.197c.463.05.931.03 1.388-.058a1.606 1.606 0 0 0-.143-3.067c-.815 0-1.636-.006-2.452-.01zm10.085-1.886c.287.113.544.293.748.525.28.53.148 1.912.148 2.701v5.859c0 .847.137 2.24-.218 2.733a1.02 1.02 0 0 1-.63.307.682.682 0 0 1-.313-.074.83.83 0 0 1-.45-.318c-.29-.477-.153-1.886-.153-2.648v-7.5a2.836 2.836 0 0 1 .037-.806.893.893 0 0 1 .434-.556.885.885 0 0 0 .397-.223zm7.692-.19a.159.159 0 0 1 .169.037c.083.114.185.212.302.291.175.027.35.053.518.085.289.073.57.174.838.302a3.903 3.903 0 0 1 1.89 2.044c.403.864.302 2.262.302 3.523 0 .789-.005 1.583-.01 2.373-.291 1.504-.874 2.4-1.992 3.061a3.785 3.785 0 0 1-2.103.535c-1.89-.312-2.96-1.075-3.549-2.685a8.843 8.843 0 0 1-.227-2.75c0-2.192-.117-3.675.82-4.957a4.21 4.21 0 0 1 1.786-1.314c.381-.175 1.155-.095 1.256-.545zm-15.637 0c.005.037.016.069.02.106.08.069.155.137.229.206.106.016.212.037.318.053.196.058.392.122.588.18a3.322 3.322 0 0 1 1.886 2.008c.176.378.25.796.217 1.213a4.91 4.91 0 0 1-.228 1.06c-.175.27-.279.579-.302.9.949.72 2.082 2.256 1.472 4.01a4.703 4.703 0 0 1-.82 1.445 2.42 2.42 0 0 1-.679.514c-.41.243-.857.418-1.324.52-.665.08-1.338.095-2.007.047-.805 0-2.617.138-3.093-.17-.588-.376-.387-2.16-.387-3.146l.016-7.866a1.12 1.12 0 0 1 .254-.535c.244-.217.614-.175.688-.545z"/></defs><g><g transform="translate(-1311 -4783)"><use fill="#fff" xlink:href="#j6jwa"/></g><g transform="translate(-1311 -4783)"><use fill="#fff" xlink:href="#j6jwb"/></g></g></svg>