<svg xmlns="http://www.w3.org/2000/svg" xmlns:xlink="http://www.w3.org/1999/xlink" width="45" height="47" viewBox="0 0 45 47"><defs><path id="qzzra" d="M454.805 946.506zm.012 0c.091-.11.318-.472.31-.603-.119.167-.271.363-.31.603zm-26.323-4.417c-.589.484-2.128.31-2.957.567-1.57.484-2.601 1.708-3.184 3.198-.131.336-.179.701-.285 1.075v.06c.252-.046.536-.087.831-.133h.594c.49 0 .996.006 1.402-.096 1.684-.425 3.152-1.753 3.564-3.452l-.891.58c-.322.136-.79.063-1.164.156l-.749.326c.592-.866 2.876-.94 2.875-2.281h-.036zm12.889-.013c.18.564.646 1.15 1.164 1.376.635.279 1.417.291 1.722.906l-.463-.17c-.448-.114-.937-.107-1.33-.265-.38-.152-.653-.41-.975-.615.247 1.59 2.086 3.121 3.6 3.464.817.185 1.943-.025 2.744.205h.047c-.495-1.97-1.565-3.727-3.433-4.31-.468-.145-1.07-.057-1.603-.156-.533-.098-1-.258-1.473-.435zm-13.293-9.402l-1.116.157.689 1.098c.906 1.472 1.594 2.205 3.98 2.173l-.025-.036-.332-.17-.321-.253c-.229-.188-.4-.486-.582-.724l-.428-.447c.72.12 1.048.801 1.592 1.135.192.118.643.266.939.12h.023c-.048-.153-.218-.211-.332-.301a1.75 1.75 0 0 1-.357-.434c-.216-.352-.363-.753-.606-1.075-.596-.791-1.742-1.265-3.124-1.243zm13.455 0c-.76.081-1.128.106-1.576.29-.951.39-1.26 1.23-1.841 1.991-.162.212-.602.525-.677.773 1.414-.003 1.43-1.162 2.47-1.256-.092.16-.335.238-.451.387-.228.292-.402.674-.689.905-.144.115-.356.166-.499.29.094.068.337.012.463.012a4.908 4.908 0 0 0 1.212-.157c1.302-.339 1.819-1.151 2.435-2.173l.582-.941c-.47-.049-.912-.121-1.43-.121zm-20.166-7.918l-.737.085c.29.579.579 1.158.867 1.738.448 1.034 1.148 2.472 1.949 3.126.79.645 1.393.997 2.435 1.412.613.244 1.297.363 2.03.495.257.046.733.046.904-.06h.024l-.416-.194a3.471 3.471 0 0 1-.558-.434c-.502-.464-.804-1.155-1.2-1.726-.22-.318-.506-.562-.737-.857 1.004.16 1.428 1.02 1.948 1.678.457.576 1.588 1.023 2.578 1.05-.378-.508-.831-.988-1.176-1.533l-.89-1.871c-.177-.297-.409-.556-.619-.82-1.178-1.487-3.695-2.125-6.402-2.089zm25.61-.036l-1.187.157c-.652.154-1.262.354-1.818.603-1.105.496-2.03 1.452-2.625 2.475l-.82 1.75-1.033 1.291-.036.048c.887-.12 1.61-.245 2.174-.675.634-.486.959-1.3 1.627-1.75.213-.144.46-.223.725-.314-.051.123-.257.186-.356.265l-.31.387-.463.953c-.342.587-1.055 1.394-1.758 1.593l-.012.024c.077.054.71.018.856 0 .796-.098 1.516-.194 2.162-.422 1.417-.5 2.504-1.278 3.29-2.414.58-.837.938-1.883 1.366-2.873.146-.338.348-.65.51-.965v-.037c-.756-.028-1.497-.1-2.292-.096zm-14.789-1.883c-.31.994-.976 1.441-1.33 2.317-.571 1.413-.051 3.517.7 4.334h.013c-.236-1.193.624-1.58.665-2.608l.024-.012c.005 1.032-.613 2.746.142 3.32.238-1.25.901-1.757 1.224-2.825.382-1.266-.275-2.988-.737-3.754-.185-.307-.376-.608-.7-.772zm5.488-.06l-.415.627c-.347.56-.704 1.132-.915 1.823-.522 1.71.229 2.752.784 3.85l.261.58.143.482v.024l.035-.024c.097-.074.14-.304.19-.422.365-.855.065-1.329-.095-2.173-.042-.222-.014-.478-.011-.712h.035c.047 1.012.698 1.455.677 2.607.151-.086.46-.836.547-1.038.136-.314.274-.64.356-1.026.342-1.605-.523-2.71-1.08-3.62l-.512-.978zm-4.692-8.679c-.07.374-.3.7-.44 1.026-.172.406-.279.837-.367 1.34-.287 1.626.46 3.68 1.021 4.61l.7 1.087.048.012c0-.584-.036-1.2.095-1.678.174-.632.514-1.129.701-1.726.09-.287.08-.755.12-1.038h.01c.475 1.007-.043 2.246-.213 3.271-.113.684.17 1.236.357 1.666.098.227.174.463.356.603.04-1.652 1.083-2.75 1.58-4.019.67-1.711.228-3.734-.369-5.13l.428.037c.52.09 1.021.124 1.497.23 1.459.32 2.755.68 3.98 1.206.338.146 1.083.393 1.318.616-.533.175-.913.595-1.307.917-1.101.9-1.913 2.538-2.257 4.212-.178.867.069 1.938.178 2.728.094.674-.21 1.257-.225 1.87.794-.283 1.431-1.38 1.65-2.292.22-.913.095-2.015.785-2.439-.13.334-.35.776-.262 1.28.058.332.189.728.12 1.122a6.132 6.132 0 0 1-.393 1.364l-.261.531c1.547-.765 2.962-2.53 3.61-4.224.164-.425.214-.883.298-1.4.059-.36-.017-.782-.071-1.062l-.262-1.702c.87.48 1.633 1.142 2.388 1.75l.926.845.321.338c-1.509.31-2.15 1.132-2.863 2.233l-.7 1.062c.394-.107.64-.065.938-.254.577-.366.784-.917 1.509-1.194h.012v.012c-.107.16-.333.245-.452.41-.333.463-.502 1.093-1.116 1.267.035.056.272.053.368.037.343-.06.688-.067.986-.145 1.114-.294 1.678-.73 2.197-1.63l.274-.507.023-.012.677.857c.388.522.733 1.066 1.081 1.63.153.248.386.529.475.82-1.946.277-2.69 1.479-3.54 2.861l-.712 1.086v.012c1.684-.037 1.647-1.52 2.827-1.726-.102.176-.353.273-.475.447-.378.536-.609 1.423-1.343 1.581.04.062.302.05.404.036.362-.047.712-.059 1.034-.145 1.193-.316 2.34-.99 2.768-2.064l.035-.024.357.93.427 1.364c-2.488-.002-4.013.545-5.381 1.665-.539.442-.935 1.113-1.366 1.666-.326.419-.864.7-1.295 1.014l-.487.41-.047.06c1.035.1 2.197.113 2.886-.325.676-.43 1.554-1.63 2.697-1.316l-.357.097c-.167.069-.328.181-.463.29-.427.342-.662.902-1.093 1.243-.42.332-.948.498-1.484.724l-.547.253v.048l2.055.363c.848.159 1.876.03 2.566-.181a7.733 7.733 0 0 0 2.067-1.002l.974-.7c-.002 1.419-.022 2.762-.25 3.995l-.368 2.293c-.317-.16-.633-.322-.95-.483-1.036-.463-2.426-1.08-3.992-.772a7.498 7.498 0 0 0-1.674.555c-.969.434-1.735 1.078-3.089 1.147.102.18.486.267.665.374.294.174.62.32.998.41.924.22 1.652-.266 2.4-.398.488-.087.806.163 1.188.205-.004.006-.861.14-.939.169l-1.033.495c-.601.24-1.497.24-2.257.157.115.22.99.726 1.247.881.925.555 2.725 1.292 4.312.978.769-.153 1.404-.403 2.067-.664-.15.486-.424.977-.665 1.4-.448.782-.832 1.56-1.33 2.281-.466.672-.988 1.279-1.485 1.907-.342.432-.75.837-1.176 1.183l-.416.35-.024.036h.237l-.486.435c-.45.364-.879.74-1.355 1.086-1.427 1.036-2.954 1.876-4.727 2.583-.529.21-1.102.429-1.687.567-.28-.226-.533-.832-.69-1.195-.331-.77-.504-1.61-.676-2.583-.077-.434.027-.869-.048-1.327l.012-1.4.071-.942c.122-.701.17-1.392.333-2.04.453-1.8 1.11-3.33 2.031-4.647.298-.425.658-.795.974-1.195.283-.356.635-.716.986-1.001.58-.473 1.145-.945 1.806-1.34.456-.273 1.263-.557 1.615-.905l.024-.012c-2.59-.504-5.483.38-7.08 1.327l-1.924 1.244-.285-.845c-.237-.665-.404-1.336-.618-2.064-.28-1.095-.562-2.189-.843-3.283l-.368-2.294-.392-2.341h-.012a52.21 52.21 0 0 1-.88 4.236l-.51 2.318-.452 1.653-.38 1.775c-.091.307-.254.58-.344.857l-.036.024-1.793-.99c-1.927-1.142-4.861-2.264-7.96-1.617.044.07.385.215.476.265.385.212.784.417 1.2.604 1.068.479 1.852 1.19 2.696 1.883.6.49 1.224 1.303 1.687 1.943 1.585 2.192 3.134 5.201 2.708 9.173-.067.632-.051 1.224-.19 1.786-.194.788-.411 1.538-.772 2.16l-.392.616-.25.314-.76-.205c-.503-.156-.986-.298-1.449-.483-1.811-.722-3.366-1.563-4.822-2.619-.476-.345-.905-.723-1.355-1.086l-.487-.435h.143l-1.52-1.484-1.081-1.388c-.37-.496-.787-.976-1.117-1.51-.275-.443-.484-.913-.748-1.375-.233-.407-.416-.853-.606-1.304l-.226-.555c.762.466 1.546.886 2.542 1.11 1.598.36 3.748-.371 4.704-.94.42-.251.847-.482 1.128-.87-.507.047-1.083.12-1.568-.024-.86-.258-1.463-.76-2.565-.785.342-.362 1.328-.193 1.793-.06.38.109.741.205 1.176.278.765.128 1.93-.436 2.186-.833-1.462-.007-2.683-1.008-3.825-1.46-1.429-.567-3.507-.162-4.692.337-.412.174-1.37.613-1.544.966l-.06.048c-.177-.31-.244-1.075-.332-1.484-.146-.674-.18-1.413-.297-2.149l-.048-1.086-.012-1.22.072-1.182h.024c.186.589.852.971 1.342 1.267 1.644.993 4.421 1.464 6.7.736l.011-.024c-.564-.282-1.279-.416-1.758-.784-.471-.363-.73-.964-1.2-1.328l-.914-.507h-.024c.25-.101.664.052.843.109.801.25 1.238.837 1.877 1.243.754.479 1.778.331 2.851.302v-.012c-.089-.143-.39-.191-.534-.278-.32-.192-.663-.46-.891-.748-1.164-1.469-2.16-2.791-4.17-3.416-.973-.303-2.224-.316-3.492-.302.186-.729.436-1.433.7-2.088l.345-.833v-.024l.594 1.159c.747 1.01 2.11 1.696 3.86 1.665v-.012c-.09-.142-.517-.297-.664-.482-.277-.347-.49-.739-.749-1.11-.13-.158-.261-.315-.392-.471 1.253.305 1.245 1.74 2.851 1.726-.23-.308-.508-.585-.724-.918-.582-.893-.902-1.886-1.806-2.45-.571-.356-1.465-.43-2.21-.616.14-.424.476-.819.701-1.183.417-.672.886-1.271 1.355-1.882l.51-.616c.424 1.642 1.877 2.737 3.968 2.704-.026-.087-.4-.284-.487-.374-.354-.364-.5-1.117-1.022-1.292v-.036c1.04.11 1.03 1.425 2.435 1.412l-.332-.338c-.209-.31-.308-.692-.5-1.002-.484-.786-1.185-1.558-2.161-1.834l-1.046-.157c.305-.412.78-.778 1.176-1.099.928-.748 1.868-1.602 2.982-2.148a27.37 27.37 0 0 1-.309 1.798c-.062.312-.12.765-.06 1.135.263 1.577.783 2.758 1.533 3.826.19.269.43.495.63.749.386.488 1.036 1.032 1.71 1.206-.263-.536-.503-1.074-.63-1.762-.109-.598.2-1.056.108-1.63-.056-.346-.213-.597-.274-.905.132.086.187.256.274.387.127.191.302.376.368.627l.214 1.702c.215.925.827 1.674 1.591 2.052h.012c-.045-.437-.214-1.06-.13-1.581l.035-.953c.134-.834.099-2.152-.107-2.849-.431-1.467-1.254-2.704-2.304-3.549-.27-.2-.539-.402-.808-.603l-.51-.35h-.024c.21-.213 1.005-.467 1.33-.604 1.216-.508 2.535-.84 3.968-1.158l1.722-.23h.071zm2.198-2.269l-.653.012c-.53.012-1.077-.009-1.568.073l-1.604.132c-.836.165-1.689.327-2.483.568-.757.229-1.514.438-2.221.724-4.52 1.828-8.213 4.714-10.655 8.654-1.234 1.99-2.184 4.17-2.922 6.687-.322 1.096-.422 2.284-.63 3.512l-.107 1.618a5.687 5.687 0 0 0-.012 1.508l.071 1.376.179 1.292c.243 1.13.51 2.22.831 3.259.898 2.898 2.19 5.21 3.79 7.362.607.818 1.408 1.802 2.185 2.438l.44.435c.544.444 1.055.937 1.627 1.352a34.541 34.541 0 0 0 2.708 1.75c.973.576 2.07.99 3.172 1.424 1.458.575 3.06.809 4.799 1.123.655.118 1.355.033 2.043.145l1.105-.012.617-.012 1.32-.121c.788-.138 1.53-.18 2.256-.362a27.553 27.553 0 0 0 4.573-1.57c1.688-.755 3.123-1.752 4.502-2.812 3.573-2.746 6.183-6.724 7.638-11.635.287-.968.443-2.016.642-3.102l.13-1.437c.082-.512.133-1.583.048-2.136-.096-.627-.006-1.273-.107-1.87-.193-1.144-.304-2.228-.57-3.272-.463-1.817-1.119-3.553-1.96-5.02-.523-.913-.986-1.807-1.568-2.644-2.264-3.258-5.328-5.808-9.123-7.508-.748-.335-1.514-.678-2.34-.941-.83-.265-1.698-.401-2.602-.604a15.527 15.527 0 0 0-3.551-.386z"/></defs><g><g transform="translate(-412 -911)"><use fill="#fff" xlink:href="#qzzra"/></g></g></svg>