<svg xmlns="http://www.w3.org/2000/svg" xmlns:xlink="http://www.w3.org/1999/xlink" width="224" height="39" viewBox="0 0 224 39"><defs><path id="68d7a" d="M421.005 140.837c.078-.094.274-.407.266-.52-.102.144-.233.314-.266.52zm-22.648-3.8c-.507.416-1.83.267-2.545.487-1.35.417-2.237 1.47-2.739 2.752-.113.29-.153.603-.245.924v.052c.217-.04.461-.074.716-.114h.51c.423 0 .858.005 1.207-.083 1.448-.365 2.712-1.508 3.066-2.97l-.767.498c-.277.118-.68.056-1.002.135l-.643.28c.51-.744 2.474-.808 2.473-1.962h-.03zm12.09 1.173c.547.239 1.22.25 1.483.778l-.399-.145c-.385-.098-.806-.093-1.145-.229-.327-.13-.56-.353-.838-.53.212 1.37 1.795 2.687 3.097 2.981.703.16 1.672-.021 2.361.177h.041c-.426-1.694-1.347-3.207-2.954-3.707-.402-.126-.92-.05-1.38-.135a7.336 7.336 0 0 1-1.267-.374c.155.484.556.988 1.002 1.184zm-12.437-9.274l-.961.135.593.945c.78 1.267 1.371 1.897 3.424 1.87l-.02-.032-.287-.145a143.66 143.66 0 0 0-.276-.218c-.197-.162-.344-.42-.5-.623a621.96 621.96 0 0 1-.369-.385c.62.104.902.69 1.37.976.165.102.553.23.807.104h.02c-.04-.132-.187-.182-.286-.26a1.507 1.507 0 0 1-.306-.373c-.186-.302-.312-.647-.521-.924-.514-.682-1.5-1.09-2.688-1.07zm11.576 0c-.654.07-.97.09-1.356.249-.819.337-1.084 1.06-1.584 1.714-.14.182-.518.451-.583.664 1.218-.002 1.231-.999 2.126-1.08-.08.138-.289.205-.388.333-.196.25-.346.58-.593.778-.124.1-.306.143-.43.25.081.059.29.01.4.01a4.223 4.223 0 0 0 1.042-.135c1.12-.291 1.564-.99 2.095-1.87l.5-.81c-.405-.04-.784-.103-1.23-.103zm-17.35-6.813l-.634.073.746 1.495c.385.89.987 2.128 1.676 2.69.68.555 1.199.858 2.095 1.215.527.21 1.116.313 1.748.426.22.04.63.04.776-.052h.02l-.357-.166a2.986 2.986 0 0 1-.48-.374c-.432-.4-.692-.993-1.033-1.485-.189-.273-.434-.483-.633-.737.863.137 1.229.878 1.676 1.443.393.496 1.366.88 2.218.904-.326-.437-.715-.85-1.012-1.32l-.767-1.609c-.151-.255-.35-.478-.531-.706-1.014-1.279-3.18-1.827-5.509-1.797zm21.012.104a8.728 8.728 0 0 0-1.564.52c-.95.426-1.747 1.248-2.258 2.128l-.705 1.506-.89 1.111-.03.042c.763-.104 1.385-.211 1.87-.582.546-.417.825-1.118 1.4-1.505.184-.124.395-.192.624-.27-.044.106-.222.16-.307.228l-.266.332-.398.82c-.295.506-.909 1.2-1.513 1.372l-.01.02c.066.047.61.016.736 0 .685-.084 1.304-.167 1.86-.363 1.22-.43 2.154-1.1 2.83-2.077.5-.72.808-1.62 1.176-2.472.126-.29.3-.558.44-.83v-.032c-.652-.024-1.289-.086-1.973-.083l-1.022.135zm-11.702-1.755c-.267.856-.84 1.24-1.145 1.994-.491 1.215-.044 3.026.603 3.728h.01c-.202-1.026.538-1.358.573-2.243l.02-.01c.005.887-.527 2.362.123 2.856.204-1.076.775-1.512 1.053-2.43.329-1.09-.237-2.571-.634-3.23-.16-.264-.323-.524-.603-.665zm4.722-.052zm0 0l-.358.54c-.298.481-.605.974-.787 1.568-.45 1.471.197 2.368.675 3.313l.224.499.123.415v.02l.03-.02c.084-.064.12-.262.164-.363.314-.736.056-1.143-.082-1.87-.036-.191-.012-.411-.01-.612h.03c.041.87.601 1.252.584 2.243.13-.074.394-.72.47-.893.117-.27.235-.55.306-.883.295-1.381-.45-2.332-.93-3.116l-.44-.84zm-4.099-7.466h.062c-.061.321-.259.602-.378.882-.15.35-.241.72-.317 1.153-.247 1.4.396 3.167.879 3.967.2.312.402.623.603.935l.04.01c0-.502-.03-1.032.082-1.443.15-.544.443-.972.603-1.485.078-.248.069-.65.103-.893h.01c.407.866-.038 1.931-.184 2.814-.098.588.146 1.063.306 1.433.085.196.15.398.307.52.035-1.422.932-2.368 1.36-3.459.576-1.472.196-3.213-.318-4.414l.368.032c.448.077.879.107 1.288.197 1.255.277 2.37.585 3.424 1.038.292.126.933.338 1.134.53-.458.15-.785.512-1.124.79-.947.774-1.646 2.183-1.942 3.624-.153.745.06 1.667.154 2.346.08.58-.182 1.082-.195 1.61.684-.244 1.232-1.188 1.42-1.973.19-.785.083-1.733.675-2.098-.11.287-.3.667-.224 1.101.05.286.162.626.102.966-.076.429-.185.82-.337 1.173l-.225.457c1.331-.658 2.548-2.177 3.107-3.634.14-.366.183-.76.255-1.205.05-.31-.014-.673-.061-.914l-.225-1.464c.748.413 1.405.983 2.054 1.506l.797.727c.093.096.184.193.276.29-1.298.268-1.849.975-2.463 1.922l-.603.913c.34-.091.552-.055.808-.218.496-.315.675-.789 1.298-1.028h.01v.01c-.092.139-.286.212-.388.354-.287.398-.433.94-.961 1.09.03.048.234.046.317.031.295-.051.592-.057.848-.124.959-.253 1.444-.628 1.89-1.402l.236-.436.02-.01.583.736c.333.45.63.917.93 1.402.132.214.332.456.409.707-1.675.238-2.315 1.272-3.046 2.46l-.613.935v.01c1.45-.031 1.417-1.307 2.432-1.484-.087.151-.303.234-.409.384-.324.461-.523 1.225-1.155 1.36.035.053.26.043.348.032.311-.04.612-.051.89-.125 1.025-.272 2.013-.852 2.38-1.776l.031-.02.307.799.368 1.174c-2.14-.002-3.453.469-4.63 1.433-.464.38-.805.957-1.175 1.433-.281.36-.744.602-1.114.872l-.42.353-.04.052c.89.086 1.89.097 2.483-.28.582-.37 1.337-1.402 2.32-1.132l-.306.083c-.144.06-.283.156-.4.25-.367.294-.569.776-.94 1.069-.361.286-.815.429-1.277.623l-.47.218v.041l1.768.312c.73.137 1.614.026 2.208-.156a6.653 6.653 0 0 0 1.778-.862l.838-.602c-.001 1.221-.019 2.377-.215 3.437l-.316 1.973-.818-.415c-.891-.399-2.087-.929-3.434-.665a6.45 6.45 0 0 0-1.441.478c-.833.373-1.492.928-2.657.987.087.155.418.23.572.322.253.15.533.275.859.353.794.188 1.421-.229 2.064-.343.42-.075.694.14 1.022.177-.003.005-.74.12-.807.145l-.89.426c-.517.206-1.287.206-1.941.135.099.188.851.625 1.073.758.796.477 2.345 1.111 3.71.84.661-.13 1.207-.345 1.778-.57-.13.418-.364.84-.572 1.204-.385.673-.716 1.343-1.145 1.963-.4.578-.85 1.1-1.277 1.64-.294.372-.645.721-1.012 1.019l-.358.3-.02.032h.204l-.419.374c-.386.313-.756.637-1.165.935a18.387 18.387 0 0 1-4.068 2.222c-.454.181-.948.369-1.451.488-.24-.194-.458-.716-.593-1.028-.286-.662-.434-1.385-.582-2.223-.066-.373.023-.748-.041-1.142l.01-1.205.061-.81c.105-.603.146-1.197.287-1.755.39-1.549.955-2.864 1.747-3.998.256-.366.566-.684.838-1.028.243-.307.546-.616.849-.862.499-.406.984-.812 1.553-1.152.393-.235 1.087-.48 1.39-.78l.02-.01c-2.228-.433-4.717.328-6.09 1.143l-1.657 1.07-.245-.728c-.204-.571-.348-1.149-.531-1.776l-.726-2.824-.317-1.973-.337-2.015h-.01a44.924 44.924 0 0 1-.757 3.645l-.44 1.994c-.128.474-.258.949-.388 1.423l-.326 1.526c-.08.265-.22.5-.297.738l-.03.02-1.544-.851c-1.657-.983-4.182-1.948-6.847-1.392.037.06.33.185.409.229.33.182.674.359 1.032.519.919.412 1.593 1.025 2.32 1.62.515.422 1.053 1.121 1.45 1.672 1.365 1.886 2.697 4.475 2.331 7.892-.058.545-.044 1.054-.163 1.537-.167.678-.354 1.324-.665 1.86l-.337.529-.215.27-.654-.177c-.433-.134-.848-.256-1.246-.415-1.559-.622-2.897-1.345-4.15-2.253-.41-.297-.778-.623-1.165-.935l-.419-.374h.123l-1.309-1.277-.93-1.195c-.318-.426-.676-.839-.96-1.298-.237-.381-.416-.786-.644-1.184-.2-.35-.357-.733-.522-1.121l-.194-.478c.656.401 1.33.763 2.187.956 1.375.309 3.225-.32 4.048-.81.361-.216.728-.414.97-.748-.436.04-.932.104-1.349-.021-.74-.222-1.259-.654-2.207-.675.294-.312 1.143-.167 1.543-.052.327.094.638.176 1.012.239.658.11 1.66-.375 1.88-.717-1.258-.005-2.308-.867-3.29-1.256-1.23-.488-3.018-.14-4.037.29-.355.15-1.179.528-1.329.831l-.051.042c-.153-.267-.21-.925-.286-1.277-.125-.58-.156-1.216-.256-1.849l-.04-.935c-.004-.35-.008-.699-.01-1.049l.06-1.017h.02c.161.506.734.836 1.156 1.09 1.414.854 3.804 1.26 5.764.634l.01-.02c-.485-.244-1.1-.36-1.512-.676-.406-.312-.628-.829-1.033-1.142l-.787-.436h-.02c.215-.088.57.044.726.093.689.216 1.064.72 1.614 1.07.649.411 1.53.284 2.453.26v-.011c-.076-.123-.335-.164-.46-.24a2.954 2.954 0 0 1-.766-.643c-1.001-1.263-1.859-2.401-3.588-2.939-.837-.26-1.913-.272-3.004-.26.16-.627.375-1.232.603-1.796l.296-.717v-.02l.511.997c.643.869 1.816 1.459 3.322 1.433v-.01c-.078-.123-.446-.257-.573-.416-.237-.298-.421-.635-.643-.955l-.338-.405c1.078.262 1.071 1.497 2.453 1.485-.197-.265-.437-.504-.623-.79-.501-.768-.776-1.623-1.554-2.108-.491-.306-1.26-.37-1.9-.53.119-.364.409-.704.602-1.017.359-.579.762-1.094 1.165-1.62l.44-.53c.364 1.413 1.615 2.355 3.414 2.326-.023-.074-.344-.244-.42-.321-.304-.313-.43-.961-.879-1.112v-.03c.895.094.887 1.225 2.096 1.214l-.287-.29c-.179-.267-.265-.596-.429-.863-.417-.676-1.02-1.34-1.86-1.578l-.9-.135c.263-.354.67-.67 1.012-.945.799-.644 1.608-1.379 2.566-1.849-.073.548-.161 1.02-.266 1.548-.053.268-.104.658-.051.976.226 1.357.672 2.373 1.318 3.292.163.231.37.426.542.644.333.42.891.888 1.472 1.038-.226-.46-.434-.924-.542-1.516-.094-.515.17-.909.092-1.402-.048-.298-.183-.514-.235-.779.114.074.16.22.235.333.11.164.26.323.317.54l.184 1.464c.185.795.712 1.44 1.37 1.765h.01c-.04-.375-.185-.912-.113-1.36l.03-.82c.116-.718.086-1.851-.091-2.451-.372-1.262-1.08-2.327-1.983-3.054l-.695-.519-.44-.3h-.02c.182-.184.865-.403 1.145-.52 1.046-.438 2.181-.723 3.414-.997l1.481-.197zm1.953-1.953l-.563.01c-.455.01-.926-.007-1.349.063l-1.38.114c-.719.142-1.453.281-2.135.488-.652.198-1.303.377-1.912.623-3.889 1.573-7.066 4.056-9.167 7.446-1.062 1.713-1.879 3.588-2.514 5.753-.277.944-.363 1.965-.542 3.023l-.092 1.391a4.893 4.893 0 0 0-.01 1.298l.061 1.184.153 1.111c.21.972.439 1.91.716 2.804.772 2.494 1.884 4.483 3.26 6.335.523.704 1.212 1.55 1.88 2.098l.379.373c.468.383.908.806 1.4 1.164.743.539 1.52 1.026 2.33 1.505.837.496 1.781.852 2.729 1.226 1.255.494 2.633.696 4.129.965.563.102 1.165.029 1.758.125l.95-.01.532-.01 1.134-.105c.679-.118 1.318-.153 1.942-.31a23.707 23.707 0 0 0 3.935-1.351c1.451-.65 2.687-1.508 3.873-2.42 3.074-2.362 5.32-5.785 6.572-10.01.246-.833.38-1.735.552-2.67l.112-1.235c.07-.442.114-1.363.04-1.838-.082-.54-.004-1.096-.091-1.61-.166-.984-.262-1.917-.49-2.814-.399-1.564-.963-3.057-1.687-4.32-.45-.785-.848-1.554-1.349-2.275-1.948-2.803-4.584-4.997-7.85-6.46-.642-.287-1.302-.582-2.012-.81-.714-.227-1.462-.344-2.239-.518a13.359 13.359 0 0 0-3.055-.333z"/><path id="68d7b" d="M594.867 132.95h7.84l-3.655-8.572c-.1-.227-.176-.429-.277-.68-.1.251-.176.453-.277.68zm-4.94 6.226l7.688-17.647h2.345l7.664 17.647h-2.269l-1.815-4.26h-9.504l-1.816 4.26zM578.03 121.53v15.63h9.782v2.017h-11.9V121.53zm-5.848 0v11.193c0 5.043-3.454 6.757-7.362 6.757-3.933 0-7.387-1.714-7.387-6.757V121.53h2.118v11.093c0 3.58 2.219 4.84 5.27 4.84 3.024 0 5.243-1.26 5.243-4.84v-11.093zm-18.48 0v17.647h-2.117v-13.639l-6.328 9.48h-1.311l-6.328-9.48v13.64h-2.118v-17.648h1.816l7.285 10.89 7.286-10.89zm-32.9 8.672h4.892c2.117 0 4.36-.705 4.36-3.327 0-2.647-2.243-3.328-4.36-3.328h-4.891zm-2.117 8.975V121.53h6.908c3.176 0 6.605 1.311 6.605 5.345 0 3.252-2.219 4.714-4.715 5.168l5.975 7.134h-2.647l-5.773-6.958h-4.235v6.958zm-11.975-15.933c-4.79 0-7.084 3.48-7.084 7.11 0 3.63 2.294 7.109 7.084 7.109 4.79 0 7.084-3.479 7.084-7.11 0-3.63-2.294-7.109-7.084-7.109zm0-2.016c6.177 0 9.227 4.563 9.227 9.126s-3.05 9.126-9.227 9.126c-6.177 0-9.227-4.563-9.227-9.126s3.05-9.126 9.227-9.126zm-26.673 17.95v-17.648h1.967l10.613 14.093v-14.093h2.118v17.647h-1.966l-10.614-14.118v14.118zm-11.975-15.934c-4.79 0-7.084 3.48-7.084 7.11 0 3.63 2.294 7.109 7.084 7.109 4.79 0 7.085-3.479 7.085-7.11 0-3.63-2.295-7.109-7.085-7.109zm0-2.016c6.177 0 9.227 4.563 9.227 9.126s-3.05 9.126-9.227 9.126c-6.176 0-9.227-4.563-9.227-9.126s3.05-9.126 9.227-9.126zm-11.974.302v17.647h-2.118V121.53zm-7.74 4.765c0-2.093-1.538-2.748-4.034-2.748h-4.941v5.496h5.521c1.84 0 3.454-.731 3.454-2.748zm-3.504 4.765h-5.471v6.1h4.89c2.22 0 4.79-.15 4.79-3.05 0-2.748-2.52-3.05-4.21-3.05zm-.353-9.53c3.605 0 6 1.487 6 4.462 0 2.244-1.437 3.505-2.824 3.908 1.462.403 3.53 1.563 3.53 4.437 0 4.008-3.933 4.84-6.505 4.84h-7.437V121.53z"/></defs><g><g transform="translate(-384 -111)"><use fill="#fff" xlink:href="#68d7a"/></g><g transform="translate(-384 -111)"><use fill="#fff" xlink:href="#68d7b"/></g></g></svg>