<svg xmlns="http://www.w3.org/2000/svg" xmlns:xlink="http://www.w3.org/1999/xlink" width="306" height="53" viewBox="0 0 306 53"><defs><path id="yvyea" d="M734.57 42.49a1.14 1.14 0 0 1 .042-.028c.114-.086.165-.351.225-.488.432-.986.077-1.533-.113-2.507-.05-.256-.017-.551-.013-.821h.041c.056 1.167.827 1.678.803 3.008.178-.1.544-.965.647-1.197.161-.363.325-.74.422-1.185.405-1.852-.62-3.126-1.28-4.178l-.605-1.127-.493.724c-.41.645-.833 1.305-1.083 2.103-.62 1.972.27 3.175.929 4.442.102.223.206.445.31.669l.168.557v.028zm-6.08.027c.283-1.442 1.068-2.027 1.45-3.258.454-1.462-.325-3.448-.872-4.331-.219-.355-.445-.703-.83-.892-.368 1.147-1.156 1.663-1.576 2.674-.677 1.63-.061 4.058.83 5h.014c-.279-1.377.74-1.822.789-3.008l.028-.015c.005 1.19-.727 3.169.168 3.83zm10.623 1.579c.253 0 .571-.02.677-.033.944-.113 1.796-.225 2.56-.488 1.68-.577 2.967-1.474 3.899-2.785.686-.964 1.11-2.172 1.618-3.314.173-.39.411-.75.605-1.114v-.042c-.897-.033-1.775-.116-2.716-.111l-1.407.18c-.771.179-1.494.409-2.153.697-1.31.572-2.406 1.675-3.11 2.855l-.97 2.02c-.408.495-.817.992-1.224 1.489l-.043.056c1.05-.14 1.908-.283 2.575-.78.752-.56 1.136-1.5 1.928-2.02.252-.165.544-.256.859-.361-.062.142-.306.214-.423.306l-.366.445-.549 1.101c-.406.677-1.25 1.608-2.082 1.838l-.014.028c.036.024.173.033.336.033zm-15.941.064c.12.021.283.034.448.034.248 0 .5-.03.622-.103h.028l-.492-.223c-.24-.14-.461-.32-.662-.502-.594-.535-.952-1.332-1.421-1.99-.261-.367-.6-.649-.872-.99 1.188.185 1.691 1.178 2.308 1.936.54.665 1.88 1.181 3.052 1.212-.448-.586-.984-1.14-1.393-1.769-.35-.719-.703-1.439-1.055-2.158-.208-.343-.483-.642-.731-.948-1.396-1.714-4.378-2.45-7.585-2.408l-.872.097 1.027 2.005c.53 1.194 1.36 2.852 2.308 3.607.936.745 1.65 1.15 2.884 1.63.727.281 1.537.419 2.406.57zm12.455 5.164c.124 0 .27-.025.364-.025a5.992 5.992 0 0 0 1.435-.18c1.543-.391 2.154-1.33 2.885-2.507l.689-1.087c-.558-.055-1.08-.14-1.693-.14-.9.094-1.336.122-1.866.335-1.128.452-1.494 1.42-2.182 2.298-.192.244-.712.605-.802.891 1.676-.002 1.695-1.34 2.927-1.448-.11.184-.398.274-.535.446-.27.336-.476.777-.816 1.044-.17.133-.421.191-.59.334.041.03.108.04.184.04zm-8.225.018c.057 0 .116 0 .175-.002-.01-.013-.02-.027-.028-.041l-.395-.195-.38-.293c-.271-.217-.474-.56-.689-.835l-.506-.515c.853.139 1.24.924 1.885 1.309.228.136.761.307 1.112.14h.027c-.056-.179-.258-.245-.394-.349-.16-.123-.313-.33-.421-.501-.256-.405-.43-.869-.718-1.24-.707-.913-2.064-1.46-3.7-1.434l-1.323.18.815 1.268c1.052 1.663 1.855 2.508 4.54 2.508zm53.63-12.22h6.155c3.042 0 4.924.94 4.924 3.475 0 2.462-1.955 3.476-4.344 3.476l-6.735-.036zm0 10.427h6.844c2.28 0 5.25.506 5.25 3.874 0 3.512-3.006 3.838-5.83 3.838h-6.264zm6.662 11.332c4.02 0 9.63-1.267 9.63-7.024 0-3.947-2.715-5.685-4.995-6.336 2.136-.688 3.982-2.499 3.982-5.576 0-4.308-3.403-6.409-8.69-6.409h-10.716v25.345zm15.93 0V33.536h-4.127v25.345zm52.536 0V33.536h-4.127v15.75c0 .942 0 1.92.036 2.789l-13.65-18.539h-3.874v25.345h4.128V43.095c0-.905 0-1.882-.036-2.752l13.649 18.538zm35.048-21.579h6.191c2.716 0 5.359.977 5.359 4.236 0 3.222-2.643 4.2-5.359 4.2h-6.19zm17.705 21.58l-8.11-9.921c3.331-.797 6.155-2.97 6.155-7.495 0-6.047-4.997-7.93-9.74-7.93h-10.137v25.345h4.127v-9.486h5.141l7.604 9.486zm27.88 0V33.535h-3.73l-9.631 14.52-9.631-14.52h-3.73v25.345h4.129V41.104l8 12.057h2.463l8.001-12.02v17.74zm46.126 0v-3.838h-13.324V33.536h-4.128v25.345zm13.65-21.326c.18.615.325 1.013.47 1.412l4.453 10.825h-9.847l4.453-10.825c.145-.399.29-.797.47-1.412zm12.961 21.325l-10.68-25.345h-4.526l-10.717 25.345h4.381l2.245-5.467h12.708l2.245 5.467zm-190.445-21.94c6.155 0 9.124 4.416 9.124 9.268 0 4.851-2.969 9.269-9.124 9.269-6.12 0-9.124-4.418-9.124-9.269 0-4.852 3.005-9.269 9.124-9.269zm0 22.411c8.907 0 13.324-6.445 13.324-13.143s-4.417-13.143-13.324-13.143c-8.942 0-13.324 6.445-13.324 13.143s4.382 13.143 13.324 13.143zM871.62 36.94c6.155 0 9.124 4.417 9.124 9.27 0 4.85-2.97 9.268-9.124 9.268-6.12 0-9.125-4.418-9.125-9.269 0-4.852 3.006-9.269 9.125-9.269zm0 22.412c8.906 0 13.323-6.445 13.323-13.143s-4.417-13.143-13.323-13.143c-8.944 0-13.324 6.445-13.324 13.143s4.38 13.143 13.324 13.143zm79.545 0c5.612 0 10.79-2.498 10.79-9.849V33.536h-4.128v15.75c0 4.599-2.788 6.228-6.662 6.228-3.946 0-6.734-1.63-6.734-6.228v-15.75h-4.128v15.967c0 7.35 5.214 9.849 10.862 9.849zm-196.138 1.993c.108-.126.377-.546.367-.697-.14.194-.32.42-.367.697zm-8.202.543c-.587-2.271-1.854-4.3-4.067-4.971-.554-.169-1.268-.068-1.9-.181-.631-.114-1.185-.298-1.744-.502.213.65.765 1.326 1.378 1.587.753.321 1.68.336 2.04 1.045l-.548-.195c-.53-.132-1.11-.124-1.576-.306-.45-.176-.772-.475-1.154-.71.292 1.835 2.47 3.6 4.263 3.996.457.1.998.1 1.54.099.604-.001 1.212-.002 1.711.138h.057zm-30.59.014c.298-.053.634-.1.984-.153h.704c.581 0 1.18.006 1.66-.112 1.995-.49 3.735-2.022 4.222-3.982l-1.055.668c-.382.158-.936.074-1.38.181l-.886.376c.702-1 3.406-1.084 3.405-2.632h-.042c-.699.559-2.521.359-3.504.654-1.858.56-3.08 1.971-3.77 3.691-.157.387-.212.808-.338 1.24v.069zm-1.224 3.244h.168l-1.801-1.712-1.28-1.602c-.438-.572-.931-1.125-1.323-1.741-.326-.511-.572-1.054-.886-1.587-.277-.47-.492-.983-.718-1.504l-.268-.64c.903.538 1.832 1.022 3.012 1.28 1.893.415 4.44-.428 5.572-1.086.498-.289 1.003-.554 1.337-1.003-.601.055-1.284.14-1.858-.028-1.02-.297-1.734-.876-3.039-.904.405-.419 1.573-.224 2.125-.07.449.126.877.236 1.393.32.906.149 2.284-.502 2.589-.96-1.733-.008-3.178-1.163-4.531-1.686-1.693-.653-4.154-.186-5.558.39-.488.2-1.622.707-1.83 1.114a3.805 3.805 0 0 1-.07.056c-.21-.358-.288-1.24-.394-1.713-.172-.777-.214-1.63-.352-2.478l-.055-1.254-.015-1.407.085-1.364h.028c.22.68 1.01 1.121 1.59 1.462 1.948 1.145 5.237 1.689 7.936.85l.014-.028c-.669-.326-1.516-.48-2.083-.905-.558-.419-.865-1.112-1.421-1.532-.36-.196-.722-.39-1.084-.585h-.027c.296-.117.785.06.999.125.948.29 1.465.966 2.223 1.434.892.553 2.106.383 3.376.349v-.015c-.104-.163-.46-.22-.632-.32-.378-.22-.786-.531-1.056-.863-1.378-1.694-2.559-3.22-4.938-3.941-1.154-.35-2.636-.365-4.137-.349.22-.84.516-1.653.83-2.408l.408-.961v-.028l.704 1.337c.884 1.165 2.5 1.956 4.572 1.922v-.015c-.107-.163-.612-.342-.788-.557-.327-.4-.58-.851-.886-1.28l-.464-.544c1.483.353 1.474 2.009 3.377 1.992-.272-.356-.602-.675-.859-1.059-.69-1.03-1.067-2.176-2.138-2.827-.677-.41-1.735-.495-2.617-.71.163-.49.563-.945.83-1.365.494-.776 1.049-1.467 1.604-2.172l.605-.71c.501 1.894 2.223 3.157 4.7 3.119-.03-.1-.474-.328-.577-.431-.419-.42-.593-1.288-1.21-1.49v-.042c1.231.127 1.22 1.644 2.884 1.629l-.394-.39c-.247-.357-.365-.798-.59-1.155-.575-.908-1.406-1.799-2.562-2.117l-1.239-.181c.361-.475.923-.897 1.394-1.267 1.099-.864 2.213-1.85 3.531-2.48-.1.735-.221 1.367-.365 2.076-.074.359-.143.882-.07 1.308.31 1.82.925 3.183 1.815 4.415.223.31.508.571.745.864.458.563 1.228 1.19 2.027 1.392-.312-.618-.598-1.24-.746-2.033-.13-.69.235-1.219.127-1.88-.066-.4-.253-.69-.324-1.045.156.099.22.295.324.445.15.222.357.435.435.725l.254 1.964a3.552 3.552 0 0 0 1.886 2.367h.013c-.053-.504-.254-1.223-.155-1.825l.043-1.1c.158-.96.117-2.482-.127-3.286-.511-1.692-1.485-3.12-2.73-4.094l-.957-.696-.604-.404h-.028c.25-.246 1.19-.54 1.576-.697 1.44-.587 3.002-.97 4.7-1.336l2.039-.265h.084c-.083.431-.355.807-.52 1.184-.205.469-.331.965-.436 1.546-.34 1.875.545 4.246 1.21 5.319l.83 1.254.057.013c-.001-.673-.044-1.383.112-1.935.205-.73.609-1.303.83-1.992.107-.332.094-.87.141-1.198h.014c.561 1.162-.052 2.592-.253 3.775-.134.788.201 1.426.422 1.922.116.261.206.533.422.695.049-1.906 1.283-3.174 1.871-4.637.794-1.974.271-4.308-.436-5.918l.506.041c.617.104 1.21.144 1.773.265 1.728.37 3.265.786 4.715 1.393.4.169 1.284.453 1.561.71-.63.202-1.08.686-1.548 1.059-1.304 1.038-2.266 2.927-2.673 4.86-.21 1 .081 2.235.21 3.146.111.779-.25 1.45-.267 2.16.942-.327 1.696-1.594 1.956-2.647.261-1.053.113-2.324.929-2.813-.153.385-.413.894-.31 1.477.069.383.224.84.142 1.295a6.956 6.956 0 0 1-.465 1.573l-.31.613c1.833-.883 3.509-2.92 4.277-4.874.194-.491.252-1.02.352-1.615.07-.416-.02-.903-.083-1.226l-.31-1.964c1.03.554 1.934 1.319 2.828 2.02l1.097.975.38.39c-1.787.358-2.546 1.306-3.39 2.576-.278.408-.554.816-.831 1.225.468-.123.76-.075 1.112-.293.683-.423.929-1.057 1.787-1.377h.014v.013c-.127.185-.394.284-.535.473-.395.534-.595 1.261-1.323 1.463.043.065.323.061.437.041.407-.069.815-.076 1.167-.166 1.32-.34 1.988-.843 2.604-1.88.107-.196.215-.39.323-.585a.271.271 0 0 0 .028-.015l.803.99c.459.602.867 1.229 1.28 1.88.181.286.457.61.563.946-2.306.32-3.187 1.706-4.193 3.3-.282.418-.564.836-.844 1.254v.014c1.995-.043 1.95-1.754 3.348-1.992-.12.204-.418.315-.563.516-.447.618-.72 1.642-1.59 1.824.047.071.357.057.479.042.428-.054.842-.069 1.224-.167 1.413-.365 2.772-1.142 3.278-2.381a1.14 1.14 0 0 1 .043-.028l.422 1.072.506 1.574c-2.947-.002-4.753.629-6.374 1.921-.638.51-1.108 1.285-1.618 1.922-.387.483-1.024.808-1.534 1.17l-.577.473a2.085 2.085 0 0 1-.056.07c1.226.115 2.602.13 3.42-.376.8-.496 1.84-1.88 3.193-1.518-.14.037-.281.075-.422.111a2.38 2.38 0 0 0-.549.334c-.506.396-.784 1.042-1.294 1.435-.499.384-1.124.576-1.759.835l-.648.293v.055c.812.14 1.624.28 2.435.418 1.004.185 2.222.035 3.04-.209a9.238 9.238 0 0 0 2.447-1.155l1.154-.809c-.002 1.638-.025 3.188-.295 4.61-.145.882-.29 1.764-.437 2.646l-1.125-.557c-1.227-.534-2.873-1.245-4.727-.89-.756.143-1.373.373-1.985.639-1.146.501-2.054 1.245-3.657 1.324.12.209.575.309.787.431.347.202.734.37 1.182.473 1.094.253 1.957-.306 2.842-.459.579-.1.955.189 1.408.237-.005.006-1.02.16-1.113.195l-1.224.571c-.712.277-1.772.276-2.673.18.136.254 1.173.839 1.478 1.017 1.095.64 3.227 1.49 5.107 1.129.911-.176 1.663-.465 2.448-.766-.178.56-.502 1.127-.787 1.615-.53.902-.986 1.8-1.576 2.632-.55.775-1.17 1.475-1.76 2.2a8.994 8.994 0 0 1-1.392 1.365l-.493.404-.028.041h.282l-.577.502c-.532.42-1.041.855-1.605 1.253-1.69 1.195-3.499 2.164-5.6 2.98-.625.243-1.305.495-1.998.655-.33-.26-.63-.96-.816-1.378-.393-.889-.598-1.858-.802-2.981-.09-.502.033-1.003-.056-1.532l.014-1.616.085-1.086c.144-.809.2-1.605.394-2.352.536-2.079 1.315-3.843 2.405-5.363.353-.49.779-.917 1.154-1.378a7.798 7.798 0 0 1 1.168-1.156c.687-.545 1.356-1.09 2.139-1.545.54-.315 1.496-.644 1.913-1.045l.029-.014c-3.068-.581-6.495.44-8.386 1.532l-2.28 1.435-.337-.976c-.281-.766-.48-1.54-.732-2.381l-1-3.788-.436-2.646-.464-2.701h-.013a59.446 59.446 0 0 1-1.042 4.888l-.605 2.673-.535 1.908-.45 2.047c-.109.355-.3.67-.408.99l-.042.027-2.125-1.142c-2.281-1.318-5.758-2.612-9.427-1.866.05.081.454.249.563.306.455.245.929.482 1.42.697 1.266.552 2.194 1.374 3.195 2.172.71.567 1.45 1.503 1.997 2.242 1.879 2.53 3.713 6.002 3.209 10.583-.08.73-.061 1.413-.225 2.061-.23.91-.488 1.775-.915 2.493l-.464.71c-.1.121-.197.242-.296.363l-.9-.237c-.597-.18-1.17-.344-1.716-.557-2.147-.833-3.988-1.803-5.714-3.022-.563-.398-1.07-.834-1.603-1.253a153.35 153.35 0 0 1-.577-.502zm15.576 8.62l1.309-.013.731-.014 1.562-.14c.934-.158 1.813-.206 2.674-.418a33.302 33.302 0 0 0 5.417-1.81c1.998-.872 3.699-2.022 5.332-3.244 4.233-3.169 7.324-7.758 9.048-13.425.34-1.116.524-2.326.76-3.579.05-.552.103-1.105.154-1.657.097-.592.157-1.827.056-2.465-.113-.723-.006-1.468-.126-2.159-.23-1.318-.36-2.57-.676-3.773-.548-2.097-1.325-4.1-2.32-5.794-.62-1.052-1.17-2.082-1.858-3.049-2.682-3.76-6.311-6.701-10.807-8.662-.885-.387-1.793-.783-2.772-1.086-.983-.306-2.011-.462-3.081-.696-1.242-.272-2.726-.468-4.207-.446l-.774.014c-.626.014-1.275-.01-1.858.083-.632.052-1.266.103-1.899.153-.99.19-2 .377-2.94.655-.898.265-1.794.506-2.632.836-5.354 2.108-9.728 5.438-12.622 9.984-1.46 2.297-2.586 4.81-3.46 7.715-.382 1.265-.5 2.635-.747 4.053l-.126 1.865c-.08.49-.094 1.237-.014 1.742l.084 1.588.211 1.489c.288 1.303.604 2.561.985 3.76 1.064 3.344 2.594 6.011 4.489 8.494.72.945 1.668 2.08 2.588 2.814l.522.501c.644.513 1.25 1.081 1.927 1.56 1.024.723 2.093 1.376 3.208 2.02 1.152.664 2.452 1.14 3.757 1.642 1.728.663 3.625.933 5.685 1.295.776.137 1.605.039 2.42.167z"/></defs><g><g transform="translate(-704 -21)"><use fill="#fff" xlink:href="#yvyea"/></g></g></svg>