<svg xmlns="http://www.w3.org/2000/svg" xmlns:xlink="http://www.w3.org/1999/xlink" width="188" height="217" viewBox="0 0 188 217"><defs><path id="2zgva" d="M323.402 3798.156h47.503"/><path id="2zgvb" d="M362.866 3793.04l8.039 5.116"/><path id="2zgvc" d="M362.866 3803.272l8.039-5.116"/><path id="2zgvd" d="M323.402 3798.887v-207.551"/><path id="2zgve" d="M403.06 3591.336h-80.39"/><path id="2zgvf" d="M416.58 3592.047a4 4 0 1 1 8 0 4 4 0 0 1-8 0z"/><path id="2zgvh" d="M444.58 3592.047a4 4 0 1 1 8 0 4 4 0 0 1-8 0z"/><path id="2zgvj" d="M472.58 3592.047a4 4 0 1 1 8 0 4 4 0 0 1-8 0z"/><path id="2zgvl" d="M500.58 3592.047a4 4 0 1 1 8 0 4 4 0 0 1-8 0z"/><linearGradient id="2zgvg" x1="423.29" x2="417.92" y1="3589.11" y2="3595.29" gradientUnits="userSpaceOnUse"><stop offset="0" stop-color="#01eb79"/><stop offset="1" stop-color="#0b9444"/></linearGradient><linearGradient id="2zgvi" x1="451.29" x2="445.92" y1="3589.11" y2="3595.29" gradientUnits="userSpaceOnUse"><stop offset="0" stop-color="#01eb79"/><stop offset="1" stop-color="#0b9444"/></linearGradient><linearGradient id="2zgvk" x1="479.29" x2="473.92" y1="3589.11" y2="3595.29" gradientUnits="userSpaceOnUse"><stop offset="0" stop-color="#01eb79"/><stop offset="1" stop-color="#0b9444"/></linearGradient><linearGradient id="2zgvm" x1="507.29" x2="501.92" y1="3589.11" y2="3595.29" gradientUnits="userSpaceOnUse"><stop offset="0" stop-color="#01eb79"/><stop offset="1" stop-color="#0b9444"/></linearGradient></defs><g><g transform="translate(-321 -3588)"><g><use fill="#fff" fill-opacity="0" stroke="#07b85a" stroke-miterlimit="50" stroke-width="3" xlink:href="#2zgva"/></g><g><use fill="#fff" fill-opacity="0" stroke="#07b85a" stroke-miterlimit="50" stroke-width="3" xlink:href="#2zgvb"/></g><g><use fill="#fff" fill-opacity="0" stroke="#07b85a" stroke-miterlimit="50" stroke-width="3" xlink:href="#2zgvc"/></g></g><g transform="translate(-321 -3588)"><use fill="#fff" fill-opacity="0" stroke="#07b85a" stroke-miterlimit="50" stroke-width="3" xlink:href="#2zgvd"/></g><g transform="translate(-321 -3588)"><use fill="#fff" fill-opacity="0" stroke="#07b85a" stroke-miterlimit="50" stroke-width="3" xlink:href="#2zgve"/></g><g opacity=".5" transform="translate(-321 -3588)"><use fill="url(#2zgvg)" xlink:href="#2zgvf"/></g><g opacity=".5" transform="translate(-321 -3588)"><use fill="url(#2zgvi)" xlink:href="#2zgvh"/></g><g opacity=".5" transform="translate(-321 -3588)"><use fill="url(#2zgvk)" xlink:href="#2zgvj"/></g><g opacity=".5" transform="translate(-321 -3588)"><use fill="url(#2zgvm)" xlink:href="#2zgvl"/></g></g></svg>