<svg xmlns="http://www.w3.org/2000/svg" xmlns:xlink="http://www.w3.org/1999/xlink" width="103" height="103" viewBox="0 0 103 103"><defs><path id="57e0a" d="M1178.09 3566.123c0-28.254 22.904-51.157 51.157-51.157 28.253 0 51.157 22.903 51.157 51.157 0 28.253-22.904 51.157-51.157 51.157-28.253 0-51.157-22.904-51.157-51.157z"/><path id="57e0c" d="M1240.359 3556.978a4.577 4.577 0 0 0-4.573 4.572 4.577 4.577 0 0 0 4.573 4.572 4.577 4.577 0 0 0 4.572-4.572 4.577 4.577 0 0 0-4.572-4.572z"/><path id="57e0d" d="M1233.5 3547.833a4.577 4.577 0 0 0-4.572 4.572 4.577 4.577 0 0 0 4.572 4.573 4.577 4.577 0 0 0 4.573-4.573 4.577 4.577 0 0 0-4.573-4.572z"/><path id="57e0e" d="M1226.642 3556.978a4.577 4.577 0 0 0-4.573 4.572 4.577 4.577 0 0 0 4.573 4.572 4.577 4.577 0 0 0 4.572-4.572 4.577 4.577 0 0 0-4.572-4.572z"/><path id="57e0f" d="M1211.705 3575.267a1.143 1.143 0 1 1 0-2.286 1.143 1.143 0 0 1 0 2.286zm0-6.859h-2.286c-.632 0-1.143.512-1.143 1.144v13.717c0 .632.511 1.143 1.143 1.143h2.286a3.433 3.433 0 0 0 3.43-3.43v-9.144a3.433 3.433 0 0 0-3.43-3.43z"/><path id="57e0g" d="M1246.352 3568.847a2.286 2.286 0 0 0-3.018.29l-6.253 7.69c-.42.45-1.25.726-1.672.726h-6.604c-.435 0-.827.241-1.021.631a1.143 1.143 0 0 1-2.045-1.02 3.406 3.406 0 0 1 3.066-1.897h5.838a2.286 2.286 0 1 0 0-4.572h-3.429c-.834 0-.888-.156-1.573-.758-2.787-2.453-9.236-1.328-12.22.758v11.43c1.291.49 5.03 2.287 6.415 2.287h10.807c2.15 0 4.2-1.026 5.487-2.745l6.707-9.601a2.286 2.286 0 0 0-.485-3.219z"/><linearGradient id="57e0b" x1="1263.94" x2="1195.28" y1="3528.47" y2="3607.58" gradientUnits="userSpaceOnUse"><stop offset="0" stop-color="#6722b2"/><stop offset="1" stop-color="#9b22b2"/></linearGradient></defs><g><g transform="translate(-1178 -3515)"><use fill="url(#57e0b)" xlink:href="#57e0a"/></g><g transform="translate(-1178 -3515)"><g><g><g><use fill="#fff" xlink:href="#57e0c"/></g></g></g><g><g><g><use fill="#fff" xlink:href="#57e0d"/></g></g></g><g><g><g><use fill="#fff" xlink:href="#57e0e"/></g></g></g><g><g><g><use fill="#fff" xlink:href="#57e0f"/></g></g></g><g><g><g><use fill="#fff" xlink:href="#57e0g"/></g></g></g></g></g></svg>