<svg xmlns="http://www.w3.org/2000/svg" xmlns:xlink="http://www.w3.org/1999/xlink" width="232" height="38" viewBox="0 0 232 38"><defs><path id="xho5a" d="M1369.127 293.685v-26.918h10.23v9.037h1.383l4.769-9.037h11.228l-7.96 13.497 7.96 13.42h-11.228l-5.076-9.036h-1.077v9.037zm-17.035-18.343c-2.499 0-4.153 1.654-4.153 4.884 0 3.23 1.654 4.884 4.153 4.884 2.538 0 4.192-1.654 4.192-4.884 0-3.23-1.654-4.884-4.192-4.884zm0-9.228c9.768 0 14.728 6.19 14.728 14.112 0 7.921-4.96 14.112-14.727 14.112-9.768 0-14.69-6.19-14.69-14.112 0-7.921 4.922-14.113 14.69-14.113zm-39.338 14.304c-.038-10.267 7.422-14.304 14.882-14.304 2.769 0 5.614.538 7.998 1.576v8.844c-1.384-.769-3.807-1.576-6.19-1.576-3.23 0-6.153 1.423-6.153 5.46 0 3.461 2.845 4.922 5.922 4.922 2.768 0 5.345-.577 6.614-1.576v8.998c-2.423 1.077-5.038 1.576-7.883 1.576-7.845 0-15.19-3.999-15.19-13.92zm-21.38-15.304c-2.653 0-5.306-.73-7.421-2.115V257c2.076 1.269 4.73 1.884 7.421 1.884 2.692 0 5.345-.615 7.422-1.884v5.999c-2.115 1.384-4.768 2.115-7.422 2.115zm2.461 28.57v-5.767c0-1.423 0-2.807.27-4.692l-7.999 10.46h-8.114v-26.918h10.23v5.768c0 1.423 0 2.807-.27 4.692l7.998-10.46h8.114v26.918zm-32.878-18.342c-2.499 0-4.153 1.654-4.153 4.884 0 3.23 1.654 4.884 4.153 4.884 2.538 0 4.192-1.654 4.192-4.884 0-3.23-1.654-4.884-4.192-4.884zm0-9.228c9.768 0 14.728 6.19 14.728 14.112 0 7.921-4.96 14.112-14.728 14.112-9.767 0-14.689-6.19-14.689-14.112 0-7.921 4.922-14.113 14.69-14.113zm-43.721 27.57l9.267-13.766-8.45-12.51.298-.64h11.19l3.307 6.229 3.268-6.23h11.921l-8.844 13.151 9.229 13.767H1236.5l-3.653-6.422-3.692 6.422zm-18.804.616c-1.615 0-3.384-.308-5.345-.846v-8.114c1 .346 2.153.539 3.192.539 1.23 0 2.345-.346 2.807-1.308l.384-.807-9.998-16.997h10.767l4.115 9.268 3.268-9.268h9.998l.433.64-9.354 20.087c-2.269 4.845-5.23 6.806-10.267 6.806zm-17.92-28.186c2.77 0 5.615.538 7.999 1.576v8.844c-1.384-.769-3.807-1.576-6.191-1.576-3.23 0-6.153 1.423-6.153 5.46 0 3.461 2.846 4.922 5.922 4.922 2.769 0 5.345-.577 6.614-1.576v8.998c-2.422 1.077-5.037 1.576-7.883 1.576-7.844 0-15.189-3.999-15.189-13.92-.038-10.267 7.422-14.304 14.882-14.304z"/></defs><g><g transform="translate(-1165 -257)"><use fill="#fff" xlink:href="#xho5a"/></g></g></svg>