<svg xmlns="http://www.w3.org/2000/svg" xmlns:xlink="http://www.w3.org/1999/xlink" width="45" height="47" viewBox="0 0 45 47"><defs><path id="su1xa" d="M453.386 4708.506zm.012 0c.09-.11.318-.472.309-.603-.118.167-.27.363-.31.603zm-26.323-4.417c-.59.484-2.128.31-2.958.567-1.57.484-2.6 1.708-3.184 3.198-.13.336-.178.701-.285 1.075v.06c.253-.046.536-.087.832-.133h.594c.49 0 .996.006 1.402-.096 1.683-.425 3.152-1.754 3.563-3.452l-.89.579c-.322.137-.79.064-1.165.157l-.748.326c.592-.866 2.875-.94 2.874-2.281h-.035zm12.888-.013c.18.564.646 1.15 1.164 1.376.635.279 1.418.291 1.723.906l-.464-.17c-.447-.114-.936-.107-1.33-.265-.38-.152-.653-.41-.974-.615.246 1.59 2.085 3.121 3.599 3.464.817.185 1.944-.025 2.744.205h.048c-.495-1.97-1.566-3.727-3.433-4.31-.468-.145-1.07-.058-1.604-.156-.533-.098-1-.258-1.473-.435zm-13.292-9.402l-1.117.157.69 1.098c.905 1.472 1.593 2.205 3.979 2.173l-.024-.036-.333-.17-.32-.253c-.23-.188-.4-.486-.582-.724l-.428-.447c.72.12 1.048.801 1.592 1.135.191.118.643.266.938.12h.024c-.048-.153-.219-.211-.333-.301a1.75 1.75 0 0 1-.356-.435c-.217-.35-.363-.752-.606-1.074-.597-.791-1.742-1.265-3.124-1.243zm13.454 0c-.759.081-1.128.106-1.575.29-.952.39-1.26 1.23-1.842 1.991-.161.212-.601.525-.677.773 1.415-.003 1.43-1.162 2.471-1.256-.092.16-.336.238-.451.387-.228.292-.402.674-.69.905-.143.115-.355.166-.498.29.093.068.337.012.463.012a4.908 4.908 0 0 0 1.212-.157c1.302-.339 1.818-1.151 2.435-2.173l.582-.941c-.471-.049-.912-.121-1.43-.121zm-20.166-7.918l-.736.085.867 1.737c.448 1.035 1.148 2.473 1.948 3.127.79.645 1.393.997 2.435 1.412.613.244 1.298.363 2.031.495.256.046.732.046.903-.06h.024l-.416-.194a3.471 3.471 0 0 1-.558-.434c-.501-.464-.804-1.155-1.2-1.726-.22-.318-.505-.562-.736-.857 1.003.16 1.428 1.02 1.948 1.678.456.576 1.588 1.023 2.578 1.05-.379-.508-.832-.988-1.176-1.533l-.891-1.871c-.176-.297-.408-.556-.618-.821-1.178-1.486-3.695-2.124-6.403-2.088zm25.61-.036l-1.187.157c-.651.154-1.261.354-1.818.603-1.105.496-2.03 1.452-2.625 2.475l-.82 1.75-1.033 1.291-.035.048c.887-.12 1.61-.245 2.174-.676.634-.485.959-1.3 1.627-1.75.213-.143.459-.222.725-.313-.052.123-.258.186-.357.265l-.309.386-.463.954c-.343.587-1.056 1.394-1.758 1.593l-.012.024c.077.054.709.018.855 0 .797-.098 1.517-.195 2.162-.422 1.418-.5 2.504-1.278 3.29-2.414.58-.837.938-1.883 1.367-2.873.146-.338.347-.65.51-.966v-.036c-.757-.028-1.497-.1-2.292-.096zm-14.788-1.883zm0 0c-.31.994-.976 1.441-1.33 2.317-.572 1.413-.052 3.517.7 4.333h.012c-.235-1.192.625-1.578.666-2.607l.023-.012c.005 1.032-.613 2.746.143 3.32.237-1.25.9-1.757 1.223-2.825.383-1.266-.274-2.988-.736-3.754-.185-.307-.376-.609-.701-.772zm5.488-.06l-.416.627c-.346.56-.703 1.132-.915 1.823-.522 1.71.23 2.752.784 3.85l.262.58.142.482v.024l.036-.024c.096-.074.14-.304.19-.422.365-.855.065-1.329-.095-2.173-.042-.222-.014-.478-.012-.712h.036c.047 1.012.697 1.455.677 2.607.15-.086.459-.836.546-1.038.136-.314.274-.64.357-1.026.342-1.605-.523-2.71-1.081-3.62-.17-.327-.34-.653-.511-.978zm-4.692-8.679c-.07.374-.3.7-.44 1.026-.173.406-.28.837-.368 1.34-.287 1.626.46 3.68 1.022 4.61l.7 1.087.048.012c-.001-.584-.036-1.2.095-1.678.173-.632.514-1.129.7-1.726.09-.287.08-.755.12-1.038h.011c.474 1.007-.044 2.246-.213 3.271-.114.684.17 1.236.356 1.666.098.227.174.463.356.603.041-1.652 1.084-2.75 1.58-4.019.67-1.711.229-3.734-.368-5.13.143.013.285.025.428.036.52.09 1.02.125 1.496.23 1.46.322 2.756.68 3.98 1.207.339.146 1.084.393 1.318.615-.532.176-.912.595-1.306.918-1.102.9-1.914 2.538-2.257 4.212-.178.867.068 1.938.178 2.728.093.674-.211 1.257-.226 1.87.794-.283 1.432-1.38 1.651-2.292.22-.913.095-2.015.784-2.439-.129.334-.349.776-.261 1.28.058.332.189.728.119 1.122a6.132 6.132 0 0 1-.392 1.364l-.262.531c1.548-.765 2.962-2.53 3.611-4.224.163-.425.213-.883.297-1.4.06-.36-.017-.782-.07-1.062l-.262-1.702c.87.48 1.633 1.142 2.387 1.75.31.281.618.563.927.845l.32.338c-1.508.31-2.149 1.132-2.862 2.233l-.701 1.062c.395-.107.641-.065.939-.254.577-.366.784-.917 1.508-1.194h.012v.012c-.107.16-.333.245-.451.41-.333.463-.503 1.093-1.117 1.267.036.056.273.053.368.037.344-.06.689-.067.986-.145 1.114-.294 1.678-.73 2.198-1.63l.273-.507.024-.012.677.857c.387.522.732 1.066 1.08 1.63.154.248.387.529.476.82-1.947.277-2.69 1.479-3.54 2.861l-.713 1.086v.012c1.685-.037 1.648-1.52 2.827-1.726-.101.176-.352.273-.475.447-.377.536-.608 1.423-1.342 1.581.04.062.302.05.404.036.361-.047.711-.059 1.033-.145 1.193-.316 2.34-.99 2.768-2.064l.036-.024.356.93.428 1.364c-2.488-.002-4.013.545-5.381 1.665-.54.442-.936 1.113-1.366 1.666-.327.419-.865.7-1.295 1.014l-.487.41-.048.06c1.035.1 2.197.113 2.887-.325.676-.43 1.554-1.63 2.696-1.316l-.356.097c-.167.069-.329.18-.463.29-.428.342-.663.902-1.093 1.243-.421.332-.949.498-1.485.724l-.546.253v.048l2.055.363c.847.159 1.876.03 2.565-.182a7.733 7.733 0 0 0 2.067-1.001l.974-.7c-.001 1.419-.021 2.762-.25 3.995l-.367 2.293c-.317-.16-.634-.322-.95-.483-1.037-.463-2.427-1.08-3.992-.772a7.498 7.498 0 0 0-1.675.555c-.968.434-1.734 1.078-3.088 1.147.101.18.486.267.665.374.293.174.619.32.998.41.923.22 1.652-.266 2.4-.398.487-.087.805.163 1.187.205-.004.006-.86.14-.938.169l-1.034.495c-.6.24-1.496.24-2.257.157.115.22.99.726 1.248.88.925.556 2.725 1.293 4.312.979.768-.153 1.403-.403 2.066-.664-.15.486-.423.977-.665 1.4-.447.782-.832 1.56-1.33 2.28-.465.673-.987 1.28-1.485 1.908-.342.432-.75.837-1.176 1.183l-.416.35-.024.036h.238l-.487.435c-.449.364-.878.74-1.354 1.086-1.427 1.036-2.955 1.875-4.728 2.583-.528.21-1.102.429-1.687.567-.279-.226-.532-.832-.689-1.195-.332-.77-.505-1.61-.677-2.583-.076-.434.027-.87-.047-1.327l.012-1.4.07-.942c.122-.701.17-1.392.334-2.04.452-1.8 1.11-3.33 2.03-4.647.298-.425.658-.795.975-1.195.282-.356.635-.716.986-1.001.58-.473 1.144-.945 1.805-1.34.457-.273 1.263-.557 1.616-.905l.024-.013c-2.59-.503-5.484.381-7.08 1.328l-1.924 1.243-.286-.845c-.236-.664-.404-1.335-.617-2.063l-.844-3.283-.368-2.294-.392-2.341h-.012a52.21 52.21 0 0 1-.879 4.236l-.51 2.318-.452 1.653-.38 1.774c-.092.308-.254.58-.345.857l-.035.025-1.794-.99c-1.926-1.142-4.861-2.264-7.959-1.618.044.071.384.216.476.266.385.212.784.417 1.2.603 1.067.48 1.851 1.192 2.696 1.884.6.49 1.224 1.302 1.687 1.943 1.585 2.192 3.133 5.201 2.708 9.173-.068.632-.052 1.224-.19 1.786-.194.788-.412 1.538-.772 2.16l-.392.616-.25.314-.76-.205c-.504-.156-.986-.298-1.449-.483-1.812-.722-3.366-1.563-4.823-2.619-.476-.345-.904-.723-1.354-1.086l-.487-.435h.142l-1.52-1.484-1.08-1.388c-.37-.496-.787-.976-1.117-1.51-.275-.443-.484-.913-.749-1.375-.233-.407-.415-.853-.606-1.304l-.225-.555c.761.466 1.545.886 2.542 1.11 1.598.36 3.748-.371 4.704-.94.42-.251.846-.482 1.128-.87-.507.047-1.084.12-1.568-.024-.861-.258-1.464-.76-2.566-.785.342-.362 1.328-.193 1.794-.06.38.109.74.205 1.176.278.765.128 1.929-.436 2.186-.833-1.463-.007-2.683-1.008-3.825-1.46-1.43-.567-3.507-.162-4.692.337-.413.174-1.37.613-1.545.966l-.059.048c-.178-.31-.244-1.075-.333-1.485-.145-.673-.18-1.413-.297-2.148l-.047-1.086-.012-1.22.071-1.182h.024c.186.588.852.971 1.342 1.267 1.644.993 4.422 1.464 6.7.736l.012-.024c-.565-.282-1.28-.416-1.758-.784-.472-.363-.73-.964-1.2-1.328l-.915-.507h-.023c.25-.101.663.052.843.109.8.25 1.237.837 1.877 1.243.753.479 1.778.331 2.85.302v-.012c-.088-.143-.389-.191-.534-.278-.32-.192-.663-.46-.89-.748-1.164-1.469-2.161-2.791-4.17-3.416-.974-.303-2.225-.317-3.492-.302.185-.729.435-1.433.7-2.088l.345-.833v-.024l.594 1.159c.746 1.01 2.11 1.696 3.86 1.665v-.012c-.09-.142-.517-.297-.665-.482-.276-.347-.49-.739-.748-1.11l-.392-.472c1.252.306 1.244 1.741 2.85 1.726-.229-.307-.507-.584-.724-.917-.582-.893-.901-1.886-1.806-2.45-.57-.356-1.464-.43-2.209-.616.139-.424.476-.819.7-1.183.418-.672.887-1.271 1.355-1.882l.51-.616c.424 1.642 1.878 2.737 3.968 2.704-.025-.087-.399-.284-.487-.374-.353-.364-.5-1.117-1.021-1.292v-.036c1.04.11 1.03 1.425 2.435 1.412l-.333-.338c-.208-.31-.308-.692-.499-1.002-.484-.786-1.185-1.558-2.162-1.834l-1.045-.157c.305-.412.779-.778 1.176-1.099.928-.748 1.868-1.602 2.982-2.148a27.37 27.37 0 0 1-.31 1.798c-.061.312-.12.765-.059 1.135.263 1.577.782 2.758 1.533 3.826.189.269.429.495.63.748.386.489 1.035 1.033 1.71 1.207-.263-.536-.504-1.074-.63-1.762-.11-.598.199-1.056.107-1.63-.055-.346-.213-.597-.273-.905.132.086.186.256.273.387.128.191.303.376.368.627l.214 1.702c.216.925.828 1.674 1.592 2.052h.012c-.045-.437-.214-1.06-.13-1.581l.035-.954c.134-.833.098-2.15-.107-2.848-.432-1.467-1.254-2.704-2.304-3.549-.27-.2-.54-.402-.808-.603l-.511-.35h-.024c.211-.213 1.005-.467 1.33-.604 1.217-.508 2.536-.84 3.968-1.158l1.722-.23h.072zm2.197-2.269l-.653.012c-.529.012-1.076-.009-1.568.073l-1.604.132c-.835.165-1.688.327-2.482.568-.757.229-1.514.438-2.222.724-4.52 1.828-8.213 4.714-10.655 8.654-1.233 1.99-2.183 4.17-2.922 6.687-.322 1.096-.422 2.284-.63 3.512l-.106 1.618a5.687 5.687 0 0 0-.012 1.508l.071 1.376.178 1.292c.244 1.13.51 2.22.832 3.259.897 2.898 2.19 5.21 3.789 7.362.608.818 1.408 1.801 2.186 2.438l.44.435c.543.444 1.054.936 1.627 1.352a34.541 34.541 0 0 0 2.708 1.75c.972.576 2.07.99 3.172 1.424 1.458.575 3.06.809 4.798 1.123.655.118 1.355.033 2.044.144l1.104-.012.618-.012 1.319-.12c.789-.138 1.53-.18 2.257-.362a27.553 27.553 0 0 0 4.573-1.57c1.687-.755 3.123-1.752 4.502-2.812 3.573-2.746 6.183-6.724 7.638-11.635.286-.968.442-2.016.641-3.102l.13-1.437c.082-.513.133-1.583.048-2.136-.096-.627-.005-1.273-.107-1.87-.193-1.144-.304-2.229-.57-3.272-.463-1.817-1.118-3.553-1.96-5.02-.522-.913-.986-1.807-1.568-2.644-2.264-3.258-5.328-5.808-9.122-7.508-.748-.335-1.515-.678-2.34-.941-.83-.265-1.699-.401-2.602-.604a15.527 15.527 0 0 0-3.552-.386z"/></defs><g><g transform="translate(-411 -4673)"><use fill="#fff" xlink:href="#su1xa"/></g></g></svg>