<svg xmlns="http://www.w3.org/2000/svg" xmlns:xlink="http://www.w3.org/1999/xlink" width="238" height="76" viewBox="0 0 238 76"><defs><path id="ehvaa" d="M775.867 330.415v-29.223h11.105v29.223zm-16.782-8.934h2.17c1.211 0 2.13-.668 2.13-1.837s-.919-1.837-2.13-1.837h-2.17zm-11.105 8.934v-29.223h11.105v7.681h2.588c6.345 0 12.566 2.171 12.566 10.771 0 8.6-6.22 10.771-12.566 10.771zm-12.691 5.385v-5.385h-21.375v-29.223h11.105v19.621h5.76v-19.621h11.106v19.621h3.423V335.8zm-35.987-5.385v-6.262c0-1.545 0-3.048.293-5.093l-8.684 11.355h-8.808v-29.223h11.104v6.262c0 1.545 0 3.048-.292 5.093l8.684-11.355h8.808v29.223zm-20.706-29.223v29.223H667.49v-9.81h-5.678v9.81H650.71v-29.223h11.104v9.81h5.678v-9.81zm-31.06 0v8.35H635.68v2.504h10.186v7.431H635.68v2.505h12.106v8.433h-23.211v-29.223zm-65.96 29.223v-29.223h11.104v19.621h3.09v-19.621h11.104v19.621h3.09v-19.621h11.104v29.223zm-31.77 0v-29.223h28.262v29.223h-11.104v-19.621h-6.096v19.621zm165.235-40.482v-6.262c0-1.545 0-3.048.292-5.093l-8.683 11.355h-8.809V260.71h11.105v6.262c0 1.544 0 3.047-.292 5.093l8.683-11.355h8.809v29.223zm-48.26 0V260.71h11.105v9.81h1.503l5.177-9.81h12.19l-8.642 14.653 8.642 14.57h-12.19l-5.511-9.81h-1.169v9.81zm-2.212-29.223v9.602h-7.515v19.62H645.95v-19.62h-7.514v-9.602zm-52.81 14.82c-.042-11.147 8.057-15.53 16.156-15.53 3.005 0 6.095.584 8.683 1.712v9.602c-1.503-.835-4.133-1.712-6.721-1.712-3.507 0-6.68 1.545-6.68 5.928 0 3.757 3.09 5.344 6.43 5.344 3.005 0 5.802-.627 7.18-1.712v9.769c-2.63 1.169-5.47 1.712-8.558 1.712-8.517 0-16.49-4.342-16.49-15.113zm-17.576-5.51c-2.714 0-4.509 1.794-4.509 5.301s1.795 5.302 4.509 5.302c2.755 0 4.55-1.795 4.55-5.302 0-3.507-1.795-5.302-4.55-5.302zm0-10.02c10.604 0 15.989 6.721 15.989 15.321s-5.385 15.321-15.99 15.321c-10.603 0-15.947-6.72-15.947-15.32 0-8.6 5.344-15.322 15.948-15.322zm-31.102 9.644h-2.17v4.926h2.17c2.046 0 2.964-.877 2.964-2.463 0-1.587-.918-2.463-2.964-2.463zm.418-8.934c7.598 0 13.4 2.797 13.4 11.397s-5.802 11.397-13.4 11.397h-2.589v6.429h-11.105V260.71z"/></defs><g><g transform="translate(-549 -260)"><use fill="#010300" xlink:href="#ehvaa"/></g></g></svg>