<svg xmlns="http://www.w3.org/2000/svg" xmlns:xlink="http://www.w3.org/1999/xlink" width="493.368" height="148.521" viewBox="0 0 493.368 148.521">
  <defs>
    <filter id="Path_91" x="0" y="0" width="493.368" height="148.521" filterUnits="userSpaceOnUse">
      <feOffset dx="12" dy="5" input="SourceAlpha"/>
      <feGaussianBlur stdDeviation="13.5" result="blur"/>
      <feFlood flood-opacity="0.659"/>
      <feComposite operator="in" in2="blur"/>
      <feComposite in="SourceGraphic"/>
    </filter>
  </defs>
  <g transform="matrix(1, 0, 0, 1, 0, 0)" filter="url(#Path_91)">
    <path id="Path_91-2" data-name="Path 91" d="M1.775-24.353c0,18.105,13.561,25.489,27.619,25.489A35.112,35.112,0,0,0,43.949-1.846V-16.827c-2.556,2.272-7.313,3.55-12.425,3.55-6.532,0-12.922-3.266-12.922-11.076,0-8.875,6.461-12.283,13.277-12.283a21.95,21.95,0,0,1,11.715,3.408V-47.854a35.924,35.924,0,0,0-14.626-2.982C15.336-50.836,1.7-43.239,1.775-24.353ZM77.816-11.431,95.708-49.7H78.242L70.929-30.175,61.841-49.7H44.3L63.19-16.969l-.781,1.562c-.923,2.13-3.053,2.84-5.751,2.84a17.908,17.908,0,0,1-5.822-.994V-.355a33.628,33.628,0,0,0,9.017,1.491C68.089,1.136,73.556-2.2,77.816-11.431ZM111.683,0l8.236-13.987L128.084,0h19.1l-17.04-25.631L146.331-49.7h-19.1l-7.313,12.851L112.535-49.7h-19.1l16.188,24.069L92.584,0Zm31.382-24.85c0,14.271,9.017,25.986,26.909,25.986s26.909-11.715,26.909-25.986-9.017-25.986-26.909-25.986S143.065-39.121,143.065-24.85Zm36.991,0c0,6.816-3.692,11.147-10.082,11.147s-10.082-4.331-10.082-11.147S163.584-36,169.974-36,180.056-31.666,180.056-24.85ZM231.176,0V-14.91a69.694,69.694,0,0,1,.426-8.378L214.775,0H200.93V-49.7h16.4v14.839a71.281,71.281,0,0,1-.426,8.52L233.732-49.7h13.845V0Zm6.248-56.232V-66.385a24.42,24.42,0,0,1-12.851,3.266,24.252,24.252,0,0,1-12.851-3.266v10.153a22.8,22.8,0,0,0,12.851,3.621A22.8,22.8,0,0,0,237.424-56.232ZM263.2-24.353c0,18.105,13.561,25.489,27.619,25.489a35.112,35.112,0,0,0,14.555-2.982V-16.827c-2.556,2.272-7.313,3.55-12.425,3.55-6.532,0-12.922-3.266-12.922-11.076,0-8.875,6.461-12.283,13.277-12.283a21.95,21.95,0,0,1,11.715,3.408V-47.854a35.924,35.924,0,0,0-14.626-2.982C276.758-50.836,263.126-43.239,263.2-24.353Zm44.3-.5c0,14.271,9.017,25.986,26.909,25.986s26.909-11.715,26.909-25.986S352.3-50.836,334.41-50.836,307.5-39.121,307.5-24.85Zm36.991,0c0,6.816-3.692,11.147-10.082,11.147s-10.082-4.331-10.082-11.147S328.02-36,334.41-36,344.492-31.666,344.492-24.85ZM381.767,0V-17.75h3.763L396.109,0h18.034L398.736-25.063,413.859-49.7H395.825l-9.94,17.608h-4.118V-49.7h-16.4V0Z" transform="translate(26.73 101.89)" fill="#fff"/>
  </g>
</svg>
