<svg xmlns="http://www.w3.org/2000/svg" xmlns:xlink="http://www.w3.org/1999/xlink" width="25" height="28" viewBox="0 0 25 28"><defs><path id="gz2qa" d="M1182.932 3980.742h-3.078v1.83h2.876v1.473h-2.876v3.22h-1.817v-8.009h4.895zm-19.25 12.97v-5.166h17.696v5.167zm-.82-14.349c.558-.094 1.343-.166 2.448-.166 1.116 0 1.913.214 2.447.642.511.404.855 1.07.855 1.853 0 .785-.26 1.45-.736 1.901-.618.583-1.533.844-2.603.844-.237 0-.451-.012-.617-.036v2.864h-1.794zm13.986 3.707c0 1.533-.559 2.59-1.332 3.244-.843.701-2.126 1.034-3.694 1.034-.939 0-1.604-.06-2.056-.119v-7.866c.665-.107 1.533-.166 2.448-.166 1.52 0 2.507.273 3.28.855.83.618 1.354 1.604 1.354 3.018zm-13.167-14.272h12.424v5.488c0 .296.24.536.536.536h4.737v2.687h-17.697zm18.77 8.71v-3.168c0-.02-.003-.04-.006-.06a.526.526 0 0 0-.127-.347l-5.273-6.024-.005-.004a.532.532 0 0 0-.247-.155.535.535 0 0 0-.152-.025h-12.96c-.592 0-1.072.482-1.072 1.073v8.71h-.657c-.847 0-1.533.687-1.533 1.533v7.972c0 .847.686 1.533 1.533 1.533h.657v5.457c0 .591.48 1.073 1.072 1.073h17.697c.592 0 1.073-.482 1.073-1.073v-5.457h.657c.846 0 1.533-.686 1.533-1.533v-7.971c0-.847-.687-1.533-1.533-1.533z"/></defs><g><g transform="translate(-1160 -3967)"><use fill="#071400" xlink:href="#gz2qa"/></g></g></svg>