<svg xmlns="http://www.w3.org/2000/svg" xmlns:xlink="http://www.w3.org/1999/xlink" width="26" height="26" viewBox="0 0 26 26"><defs><path id="wizja" d="M1187.441 137.71c-.005 0-.005.006 0 0-.22.236-.444.45-.686.686-.366.35-.737.715-1.086 1.126-.568.607-1.238.894-2.116.894-.084 0-.174 0-.259-.005-1.67-.107-3.224-.76-4.388-1.317-3.185-1.542-5.981-3.73-8.305-6.504-1.919-2.313-3.202-4.451-4.051-6.747-.524-1.4-.715-2.492-.63-3.522.056-.658.309-1.204.776-1.671l1.919-1.919c.275-.259.568-.4.855-.4.354 0 .641.215.821.395a28.408 28.408 0 0 1 1.03 1.024c.174.18.354.36.535.546l1.536 1.536c.596.596.596 1.147 0 1.744-.164.163-.321.326-.484.484a29.37 29.37 0 0 1-1.413 1.373c-.01.01-.022.017-.028.028-.484.484-.394.956-.292 1.277l.017.05c.4.968.962 1.88 1.817 2.966l.006.006c1.553 1.913 3.19 3.404 4.996 4.546.23.146.467.264.692.377.203.101.394.197.557.298.023.011.045.028.068.04.191.095.371.14.557.14.467 0 .76-.292.855-.388l1.924-1.924c.192-.192.495-.422.85-.422.349 0 .636.219.81.41l.011.012 3.1 3.1c.58.574.58 1.165.006 1.761zm-2.014-5.925c-.546-.568-1.204-.872-1.902-.872-.692 0-1.356.298-1.924.866l-1.778 1.773c-.146-.079-.293-.152-.433-.225-.203-.101-.394-.197-.557-.298-1.666-1.058-3.18-2.437-4.631-4.22-.704-.89-1.176-1.638-1.52-2.397.462-.422.89-.861 1.306-1.283.158-.158.315-.32.473-.478 1.181-1.182 1.181-2.713 0-3.894l-1.536-1.536a23.449 23.449 0 0 1-.524-.535 26.572 26.572 0 0 0-1.058-1.046c-.545-.54-1.198-.827-1.884-.827-.687 0-1.35.287-1.913.827l-.012.011-1.913 1.93a4.116 4.116 0 0 0-1.22 2.616c-.136 1.643.348 3.174.72 4.175.911 2.46 2.273 4.738 4.304 7.18 2.464 2.943 5.43 5.266 8.817 6.904 1.294.613 3.021 1.339 4.951 1.463.118.005.242.01.355.01 1.3 0 2.391-.466 3.246-1.394.006-.012.017-.017.023-.029.292-.354.63-.675.984-1.018.242-.23.49-.473.732-.726.557-.58.85-1.255.85-1.947 0-.697-.299-1.367-.867-1.93z"/></defs><g><g transform="translate(-1164 -116)"><use fill="#fff" xlink:href="#wizja"/></g></g></svg>