<svg xmlns="http://www.w3.org/2000/svg" xmlns:xlink="http://www.w3.org/1999/xlink" width="26" height="26" viewBox="0 0 26 26"><defs><path id="5fiea" d="M1183.441 163.44c-.006 0-.006.005 0 0-.22.236-.444.45-.686.686-.366.349-.737.714-1.086 1.125-.569.608-1.238.895-2.116.895-.084 0-.174 0-.259-.006-1.67-.107-3.224-.76-4.389-1.316-3.184-1.542-5.98-3.731-8.304-6.505-1.92-2.312-3.202-4.45-4.052-6.746-.523-1.401-.714-2.493-.63-3.523.056-.658.31-1.204.777-1.67l1.918-1.92c.276-.258.569-.399.856-.399.354 0 .641.214.821.394l.017.017c.343.32.67.653 1.013 1.007.174.18.354.36.534.546l1.536 1.536c.597.596.597 1.148 0 1.744-.163.163-.32.327-.484.484a29.37 29.37 0 0 1-1.412 1.373c-.011.011-.022.017-.028.028-.484.484-.394.957-.293 1.277l.017.051c.4.968.963 1.88 1.818 2.965l.005.006c1.553 1.913 3.19 3.404 4.997 4.546.23.147.467.265.692.377.202.101.394.197.557.298.022.012.045.029.067.04.192.095.372.14.558.14.467 0 .76-.292.855-.388l1.924-1.924c.191-.191.495-.422.85-.422.349 0 .636.22.81.41l.011.012 3.1 3.1c.58.574.58 1.165.006 1.761zm-2.014-5.926c-.546-.568-1.204-.872-1.902-.872-.692 0-1.356.299-1.924.867l-1.778 1.772c-.147-.079-.293-.152-.434-.225-.202-.101-.394-.197-.557-.298-1.665-1.058-3.179-2.436-4.63-4.22-.704-.889-1.176-1.637-1.52-2.397.462-.422.89-.86 1.306-1.283.157-.157.315-.32.472-.478 1.182-1.182 1.182-2.712 0-3.894l-1.536-1.536a23.449 23.449 0 0 1-.523-.534 26.572 26.572 0 0 0-1.058-1.047c-.546-.54-1.198-.827-1.885-.827-.686 0-1.35.287-1.913.827l-.011.011-1.913 1.93a4.116 4.116 0 0 0-1.221 2.617c-.135 1.643.349 3.173.72 4.175.912 2.458 2.273 4.737 4.305 7.18 2.464 2.942 5.43 5.266 8.817 6.903 1.294.613 3.021 1.34 4.951 1.463.118.006.242.011.354.011 1.3 0 2.392-.467 3.247-1.395.006-.011.017-.017.023-.028.292-.355.63-.675.984-1.019.242-.23.49-.472.732-.725.557-.58.85-1.255.85-1.947 0-.698-.299-1.368-.867-1.93z"/></defs><g><g transform="translate(-1160 -142)"><use xlink:href="#5fiea"/></g></g></svg>