<svg xmlns="http://www.w3.org/2000/svg" xmlns:xlink="http://www.w3.org/1999/xlink" width="141" height="142" viewBox="0 0 141 142"><defs><path id="xblfa" d="M1228.286 1276.074a1.087 1.087 0 1 1-1.123-1.07 1.031 1.031 0 0 1 1.124 1.071zm-10.37-3.091a2.462 2.462 0 0 0 2.542 2.64 2.536 2.536 0 1 0-2.543-2.64zm2.541 4.227c-1.99 0-3.911-1.205-4.248-3.478h-1.735v3.264h-1.792v-8.027h1.792v3.264h1.735c.337-2.275 2.258-3.478 4.248-3.478 2.259 0 4.346 1.452 4.346 4.227 0 2.775-2.087 4.228-4.346 4.228zm-17.638-.214v-8.027h1.787v5.25l4.298-5.25h1.536v8.027h-1.788v-5.25l-4.297 5.25zm-7.38 0v-8.027h5.989v1.572h-4.196v6.455zm-3.559-4.014a2.47 2.47 0 0 0-2.493-2.658 2.824 2.824 0 0 0-2.558 1.672v1.956a2.812 2.812 0 0 0 2.558 1.689 2.472 2.472 0 0 0 2.494-2.659zm-5.249-2.76a3.813 3.813 0 0 1 3.088-1.466c2.408 0 3.98 1.923 3.98 4.227 0 2.305-1.572 4.228-3.98 4.228a3.71 3.71 0 0 1-2.89-1.254v4.714h-1.788v-11.702h1.59v1.255zm-4.988 2.09c.102-.702-.332-2.073-2.087-2.072a2.194 2.194 0 0 0-2.36 2.074h4.447zm-6.234.67a4.022 4.022 0 0 1 4.062-4.229c3.194 0 4.297 2.575 3.778 4.898h-6.037c.203 1.438 1.606 2.04 3.077 2.04a5.884 5.884 0 0 0 2.542-.568v1.535a6.89 6.89 0 0 1-2.873.552c-2.462 0-4.55-1.403-4.55-4.228zm-9.333 4.014v-8.027h1.787v3.227h4.014v-3.227h1.787v8.027h-1.787v-3.226h-4.014v3.226zm-1.74-3.878v-.002zm0-.002c0 2.909-2.258 4.094-4.265 4.098a5.617 5.617 0 0 1-2.911-.702v-1.555a4.953 4.953 0 0 0 2.542.719c1.423 0 2.644-.485 2.825-1.957h-3.842v-1.47h3.842c-.23-1.422-1.503-1.957-2.921-1.957a4.44 4.44 0 0 0-2.36.719v-1.538a4.75 4.75 0 0 1 2.574-.719c2.242 0 4.516 1.287 4.517 4.362zm-20.533 3.88v-8.027h1.787v5.25l4.298-5.25h1.535v8.027h-1.787v-5.25l-4.297 5.25zm104.685-20.302c0-2.993 2.29-4.297 4.431-4.298a4.857 4.857 0 0 1 2.473.619v1.639a3.916 3.916 0 0 0-2.221-.67c-1.424 0-2.863.753-2.863 2.642 0 1.822 1.391 2.642 2.825 2.642a4.832 4.832 0 0 0 2.344-.619v1.655a6.048 6.048 0 0 1-2.66.552c-2.14 0-4.329-1.304-4.329-4.163zm-2.392-4.08h1.873l-3.762 9.112c-.872 2.09-2.007 2.793-3.227 2.793a4.53 4.53 0 0 1-1.054-.134v-1.522c.265.08.541.12.819.117.866 0 1.52-.62 1.99-1.873l.167-.401-3.811-8.092h1.905l2.708 6.052zm-15.835 8.025v-8.028h1.787v3.227h4.014v-3.227h1.788v8.028h-1.788v-3.227h-4.014v3.227zm-3.564-4.012a2.424 2.424 0 0 0-2.526-2.593 2.535 2.535 0 1 0 2.526 2.591zm-6.871-.001c0-2.775 2.104-4.23 4.345-4.229 2.259 0 4.346 1.455 4.346 4.228 0 2.773-2.088 4.228-4.346 4.228-2.242 0-4.345-1.452-4.345-4.227zm-3.447 4.013h-1.792v-6.453h-2.772v-1.572h7.32v1.572h-2.756v6.453zm-17.542 0v-8.028h1.788v5.25l4.297-5.25h1.536v8.028h-1.787v-5.25l-4.298 5.25zm6.25-9.83a4.685 4.685 0 0 1-4.88-.001v-1.454a4.591 4.591 0 0 0 4.88 0zm-10.285 9.83v-8.028h1.793v8.028zm-6.801-1.422h1.835c1.055 0 1.707-.434 1.707-1.253 0-.836-.652-1.27-1.707-1.27h-1.835zm-1.788 1.422v-8.028h1.788v2.676h2.188c2.023 0 3.179 1.155 3.179 2.676 0 1.505-1.156 2.676-3.179 2.676zm-9.836 0v-8.028h1.788v3.227h4.013v-3.227h1.787v8.028h-1.787v-3.227h-4.013v3.227zm-9.83 0v-8.028h1.787v3.227h4.014v-3.227h1.787v8.028h-1.787v-3.227h-4.014v3.227zm-3.399-4.681c.102-.702-.331-2.073-2.092-2.073a2.188 2.188 0 0 0-2.355 2.072h4.447zm-6.234.669a4.022 4.022 0 0 1 4.062-4.233c3.194 0 4.297 2.575 3.778 4.899h-6.037c.204 1.437 1.606 2.04 3.077 2.04a5.877 5.877 0 0 0 2.542-.569v1.538a6.902 6.902 0 0 1-2.879.552c-2.456 0-4.543-1.402-4.543-4.228zm-9.333 4.013v-8.027h1.787v3.227h4.014v-3.227h1.787v8.027h-1.787v-3.227h-4.014v3.227zm-1.793-2.191c0 1.404-1.284 2.408-3.762 2.411a6.676 6.676 0 0 1-3.008-.651v-1.54a6.34 6.34 0 0 0 2.778.67c1.182 0 2.188-.217 2.188-1.104 0-.852-.872-.986-1.674-.986h-1.638v-1.37h1.638c.856 0 1.509-.235 1.509-.904 0-.719-.77-1.07-1.927-1.07a6.35 6.35 0 0 0-2.723.652v-1.538a7.09 7.09 0 0 1 2.942-.635c2.473 0 3.511 1.05 3.511 2.354a1.77 1.77 0 0 1-1.423 1.79c.92.18 1.585.984 1.589 1.921zm-16.15 2.19v-8.026h1.787v5.25l4.297-5.25h1.536v8.027h-1.787v-5.25l-4.298 5.25zm-3.164 0l-2.392-3.192h-1.118v3.193h-1.793v-3.193h-1.103l-2.391 3.193h-1.954l2.992-4.03-2.692-3.995h1.959l2.188 3.31h1.001v-3.31h1.793v3.31h1.017l2.194-3.31h1.937l-2.676 3.996 2.992 4.029zm100.715-16.354h-1.787v-6.454h-2.777v-1.572h7.32v1.572h-2.756zm-12.142-4.013a2.463 2.463 0 0 0 2.542 2.641 2.536 2.536 0 1 0-2.542-2.641zm6.887 0c0 2.775-2.087 4.23-4.345 4.236-1.99 0-3.912-1.205-4.25-3.479h-1.733v3.26h-1.793v-8.027h1.793v3.26h1.734c.337-2.274 2.258-3.478 4.249-3.478 2.259 0 4.345 1.452 4.345 4.228zm-18.125.334c-1.017 0-2.087.321-2.087 1.32 0 .786.7 1.188 1.503 1.188a3.256 3.256 0 0 0 2.323-.953v-1.354a9.267 9.267 0 0 0-1.739-.201zm3.532 1.823a.517.517 0 0 0 .583.588c.183-.008.363-.042.535-.1v1.287a3.15 3.15 0 0 1-1.14.2 1.61 1.61 0 0 1-1.605-.936 4.648 4.648 0 0 1-3.023 1.037c-1.456 0-2.81-.803-2.81-2.458 0-2.056 1.905-2.692 3.58-2.692.702.01 1.4.087 2.087.234v-.287c0-1.003-.733-1.705-2.103-1.705a7.145 7.145 0 0 0-2.895.618v-1.638a9.827 9.827 0 0 1 3.077-.535c2.274 0 3.714 1.087 3.714 3.51zm-9.087 1.858h-11.399v-8.027h1.788v6.453h3.029v-6.453h1.787v6.45h3.008v-6.453h1.787v8.027zm-15.433-.003v-8.027h1.792v8.027zm-6.802-1.42h1.835c1.054 0 1.707-.436 1.707-1.255 0-.836-.653-1.27-1.707-1.27h-1.835zm-1.793 1.42v-8.027h1.793v2.676h2.188c2.023 0 3.18 1.154 3.18 2.675 0 1.506-1.157 2.676-3.18 2.676zm-7.375-4.68h2.393c.636 0 1.134-.252 1.134-.97a.99.99 0 0 0-1.134-1.02h-2.393zm0 3.326h2.494c.733 0 1.268-.25 1.268-1.02 0-.82-.615-1.036-1.236-1.036h-2.526zm2.928 1.359h-4.715v-8.027h4.581c1.622 0 2.542.886 2.542 2.14a1.884 1.884 0 0 1-1.14 1.82 1.882 1.882 0 0 1 1.375 1.856c0 1.237-.786 2.207-2.643 2.207zm-8.28-4.017a2.423 2.423 0 0 0-2.525-2.592 2.535 2.535 0 1 0 2.526 2.591zm-6.87-.001c0-2.775 2.109-4.229 4.345-4.228 2.259 0 4.351 1.455 4.351 4.228 0 2.773-2.092 4.228-4.35 4.228-2.237 0-4.346-1.452-4.346-4.227zm-9.767 4.014h-1.905v-11.703h9.831v11.703h-1.905v-9.948h-6.02z"/><path id="xblfb" d="M1197.789 1160.528a1.156 1.156 0 0 0-.648 1.504 38.247 38.247 0 0 1 1.6 18.965 1.164 1.164 0 1 0 2.29.415 39.9 39.9 0 0 0-1.728-20.24 1.17 1.17 0 0 0-1.514-.643zm-5.609 29.38c-6.347 6.227-17.317 3.86-17.43 3.835a1.158 1.158 0 1 0-.513 2.259c1.833.37 3.7.552 5.57.542 4.17 0 9.837-.897 14.005-4.988a1.148 1.148 0 0 0 .01-1.638 1.164 1.164 0 0 0-1.642-.01zm17.987 4.948c-1.386 3.915-6.91 2.663-7.14 2.608a1.166 1.166 0 0 0-1.31.601c-4.025 7.877-16.312 6.893-16.435 6.882a1.143 1.143 0 0 0-.374.027 11.178 11.178 0 0 1-5.486-1.972 1.17 1.17 0 0 0-1.632.23 1.151 1.151 0 0 0 .235 1.622 12.314 12.314 0 0 0 4.432 2.034 19.044 19.044 0 0 1-4.854 2.488c-7.182-7.706-9.815-20.317-10.623-25.489 1.932-.374 4.442-.5 6.577.563.402.198.881.152 1.236-.121a18.133 18.133 0 0 1 6.005-2.762 14.334 14.334 0 0 1 10.162 1.01c.99.494 1.93 1.082 2.804 1.758.51.39 1.24.296 1.633-.21a1.153 1.153 0 0 0-.215-1.625 19.439 19.439 0 0 0-2.782-1.787c-2.028-7.901.695-22.889.722-23.042.03-.171.023-.348-.021-.517-.064-.226-.658-2.23-2.221-2.955a2.886 2.886 0 0 0-2.488.048c-.203.094-.418.194-.637.299-2.05.976-4.383 2.081-7.637.21-2.263-1.3-2.526-2.213-2.472-2.417a1.151 1.151 0 0 0-.407-1.637 1.807 1.807 0 0 1-.723-1.264c-.112-.89.236-2.89 3.821-6.273 3.613-3.411 12.598 1.258 15.76 3.344.065.042.133.078.204.107a3.624 3.624 0 0 1 2.157 2.595c.02.155.076.304.16.436.113.189 11.104 18.259 10.869 36.835a4.048 4.048 0 0 0-.16-.114 1.167 1.167 0 0 0-1.617.306 1.153 1.153 0 0 0 .305 1.608c.038.026 3.591 2.493 2.152 6.574zm1.552-5.878c.684-10.46-2.328-20.852-5.004-27.764a86.295 86.295 0 0 0-6.01-12.601 5.957 5.957 0 0 0-3.414-4.095 40.208 40.208 0 0 0-6.828-3.464c-5.32-2.039-9.264-1.894-11.726.428-3.301 3.117-4.827 5.887-4.532 8.241a4.113 4.113 0 0 0 1.124 2.383c-.03.273-.017.55.037.82.263 1.327 1.472 2.621 3.59 3.837 4.314 2.482 7.616.91 9.805-.127.209-.098.407-.194.604-.283a.571.571 0 0 1 .53-.053c.422.309.732.746.883 1.246-.364 2.083-2.349 14.065-.99 22.057a17.066 17.066 0 0 0-9.654-.257 20.842 20.842 0 0 0-6.181 2.741 13.036 13.036 0 0 0-7.283-.497v-.024a1.168 1.168 0 0 0-1.162-1.052h-3.944a1.16 1.16 0 0 0-1.161 1.158v26.169a1.164 1.164 0 0 0 2.328 0v-25.011h1.74a71.113 71.113 0 0 0 2.295 10.74c2.189 7.388 5.234 13.204 9.082 17.335h-14.283a1.158 1.158 0 1 0 0 2.317h17.157c.485 0 .92-.3 1.091-.756.17-.454.037-.966-.332-1.28l-.032-.03a19.894 19.894 0 0 0 6.096-3.799c.454.03.893.041 1.31.041a20.536 20.536 0 0 0 3.853-.349 27.11 27.11 0 0 0 1.83-.31c5.015-1.035 8.74-3.396 10.821-6.85 2.874.428 7.503-.018 9.001-4.26a7.636 7.636 0 0 0-.641-6.65z"/></defs><g><g transform="translate(-1115 -1139)"><g><use fill="#fff" xlink:href="#xblfa"/></g><g><use fill="#fff" xlink:href="#xblfb"/></g></g></g></svg>