<svg xmlns="http://www.w3.org/2000/svg" xmlns:xlink="http://www.w3.org/1999/xlink" width="103" height="140" viewBox="0 0 103 140"><defs><path id="c0jya" d="M1486.724 1277.101h-1.787v-6.455h-2.778v-1.572h7.326v1.572h-2.761zm-6.989-4.683c.102-.703-.337-2.074-2.093-2.073a2.184 2.184 0 0 0-2.354 2.074h4.447zm-6.235.67a4.022 4.022 0 0 1 4.062-4.23c3.195 0 4.297 2.575 3.778 4.898h-6.036c.198 1.438 1.605 2.04 3.077 2.04a5.886 5.886 0 0 0 2.542-.568v1.535a6.903 6.903 0 0 1-2.88.552c-2.456 0-4.543-1.402-4.543-4.227zm-5.239 4.013v-6.455h-2.772v-1.572h7.32v1.572h-2.755v6.455zm-11.805 0v-8.027h1.793v5.25l4.292-5.25h1.54v8.027h-1.786v-5.25l-4.298 5.25zm-9.83 0v-8.027h1.787v3.227h4.013v-3.227h1.788v8.027h-1.788v-3.226h-4.013v3.226zm-3.212-8.024h1.868l-3.757 9.112c-.872 2.09-2.007 2.791-3.227 2.791a4.5 4.5 0 0 1-1.054-.133v-1.522c.265.08.541.12.819.117.866 0 1.52-.619 1.99-1.873l.166-.4-3.815-8.092h1.91l2.708 6.052zm-17.327 8.024v-8.027h1.808l2.724 4.228 2.74-4.228h1.809v8.027h-1.723v-5.436l-2.291 3.511h-1.07l-2.275-3.51v5.435zm-11.32 0v-8.027h1.804l2.725 4.228 2.745-4.228h1.803v8.027h-1.723v-5.436l-2.29 3.511h-1.065l-2.275-3.51v5.435zm-9.867 0v-8.027h1.787v5.25l4.297-5.25h1.542v8.027h-1.793v-5.25l-4.292 5.25zm82.92-16.357h-1.786v-6.453h-2.778v-1.572h7.321v1.572h-2.756zm-12.142-4.012a2.464 2.464 0 0 0 2.543 2.642 2.536 2.536 0 1 0-2.542-2.642zm6.888 0c0 2.775-2.088 4.23-4.345 4.237-1.99 0-3.912-1.205-4.25-3.479h-1.733v3.26h-1.793v-8.027h1.793v3.26h1.734c.337-2.275 2.258-3.478 4.249-3.478 2.258 0 4.345 1.452 4.345 4.227zm-19.78-1.287c.001.786.584 1.237 1.574 1.237h2.055v-2.474h-2.055c-.989 0-1.573.451-1.573 1.236zm-.18 5.296h-2.061l2.21-2.826a2.56 2.56 0 0 1-1.793-2.491c0-1.455 1.086-2.708 3.093-2.708h4.148v8.027h-1.788v-2.625h-1.825l-1.985 2.625zm-8.082-6.5c-.235 3.878-.835 6.654-2.975 6.65a3.154 3.154 0 0 1-1.103-.217v-1.404c.166.064.342.098.52.1 1.353 0 1.717-2.675 1.873-6.654h6.186v8.027h-1.793v-6.504h-2.708zm-11.238 6.503h-1.787v-8.027h7.589v8.027h-1.788v-6.453h-4.014v6.452zm-5.185-4.683v.002zm0 0c.1-.702-.334-2.07-2.088-2.072a2.194 2.194 0 0 0-2.36 2.072zm-6.235.67a4.024 4.024 0 0 1 4.062-4.233c3.195 0 4.297 2.575 3.778 4.899h-6.036c.203 1.437 1.605 2.04 3.077 2.04.88.003 1.748-.191 2.542-.569v1.538a6.872 6.872 0 0 1-2.874.552c-2.456 0-4.549-1.402-4.549-4.228zm-3.061 0a2.47 2.47 0 0 0-2.493-2.659 2.824 2.824 0 0 0-2.558 1.672v1.956a2.812 2.812 0 0 0 2.558 1.688 2.47 2.47 0 0 0 2.493-2.658zm-5.25-2.758a3.833 3.833 0 0 1 3.094-1.466c2.408 0 3.976 1.923 3.976 4.228 0 2.305-1.568 4.228-3.976 4.228a3.714 3.714 0 0 1-2.895-1.254v4.712h-1.788v-11.703h1.59zm-8.744 6.772h-1.793v-8.027h1.793v3.176h1.317l2.311-3.176h2.04l-2.912 3.979 3.227 4.046h-2.055l-2.644-3.327h-1.284v3.327zm-5.004-8.026h1.873l-3.762 9.111c-.872 2.09-2.007 2.793-3.226 2.793a4.565 4.565 0 0 1-1.055-.134v-1.522c.265.08.541.12.819.117.872 0 1.525-.62 1.99-1.873l.166-.401-3.81-8.092h1.905l2.708 6.052zm86.121-12.342a2.42 2.42 0 0 0-2.52-2.593 2.532 2.532 0 1 0 2.52 2.592zm-6.87 0c0-2.775 2.108-4.23 4.35-4.23 2.253 0 4.346 1.455 4.346 4.229 0 2.773-2.093 4.227-4.346 4.227-2.242 0-4.35-1.452-4.35-4.227zm-9.328 4.012v-8.027h1.787v3.227h4.013v-3.227h1.788v8.027h-1.788v-3.227h-4.013v3.227zm-6.925-1.42h1.835c1.054 0 1.707-.436 1.707-1.255 0-.836-.653-1.27-1.707-1.27h-1.835zm-1.788 1.42v-8.028h1.788v2.676h2.189c2.023 0 3.178 1.155 3.178 2.676 0 1.505-1.155 2.676-3.178 2.676zm-6.742-6.503c-.236 3.879-.835 6.654-2.976 6.65a3.126 3.126 0 0 1-1.102-.216v-1.405c.165.065.341.099.519.1 1.354 0 1.718-2.674 1.867-6.654h6.187v8.028h-1.787v-6.504h-2.708zm-6.588 1.823c.096-.702-.338-2.073-2.093-2.074a2.186 2.186 0 0 0-2.354 2.073h4.447zm-6.24.668a4.026 4.026 0 0 1 4.067-4.233c3.19 0 4.292 2.575 3.778 4.899h-6.036c.198 1.438 1.605 2.04 3.077 2.04a5.9 5.9 0 0 0 2.542-.569v1.538a6.9 6.9 0 0 1-2.88.552c-2.455 0-4.548-1.402-4.548-4.228zm-5.234 4.013v-6.454h-2.772v-1.571h7.32v1.571h-2.76v6.454zm-11.805 0v-8.028h1.787v5.25l4.298-5.25h1.54v8.028h-1.792v-5.25l-4.297 5.25zm-2.242 0v-.001zm0-.001h-1.788v-2.658a6.11 6.11 0 0 1-2.242.384c-1.787 0-3.11-.92-3.11-2.944v-2.809h1.788v2.66c0 1.17.723 1.52 1.84 1.52a4.656 4.656 0 0 0 1.724-.3v-3.88h1.788zm-12.507-3.678c-1.022 0-2.092.321-2.092 1.321 0 .786.7 1.187 1.503 1.187a3.268 3.268 0 0 0 2.328-.953v-1.354a9.367 9.367 0 0 0-1.739-.2zm3.527 1.823a.52.52 0 0 0 .583.588 1.86 1.86 0 0 0 .535-.1v1.287a3.104 3.104 0 0 1-1.134.2 1.601 1.601 0 0 1-1.606-.936 4.66 4.66 0 0 1-3.029 1.037c-1.45 0-2.809-.803-2.809-2.458 0-2.056 1.91-2.692 3.58-2.692.703.01 1.404.088 2.092.234v-.286c0-1.003-.738-1.705-2.108-1.705a7.171 7.171 0 0 0-2.895.618v-1.638a9.857 9.857 0 0 1 3.077-.536c2.274 0 3.714 1.087 3.714 3.511v2.876zm-16.67 1.856v-8.028h1.787v3.227h4.014v-3.227h1.788v8.028h-1.788v-3.227h-4.014v3.227zm-1.729-3.177c0 2.575-2.472 3.394-4.714 3.392a11.587 11.587 0 0 1-4.244-.753v-1.855c1.279.6 2.682.887 4.094.836 1.44 0 2.927-.368 2.927-1.856 0-1.404-1.322-1.772-2.66-1.772h-2.504v-1.739h2.339c1.423 0 2.36-.535 2.36-1.588 0-1.204-1.054-1.638-2.697-1.638a7.896 7.896 0 0 0-3.661.852v-1.868a9.544 9.544 0 0 1 3.816-.753c2.606 0 4.479 1.02 4.479 3.144a2.655 2.655 0 0 1-1.905 2.622 2.927 2.927 0 0 1 2.37 2.976z"/><path id="c0jyb" d="M1452.511 1202.54a1.414 1.414 0 1 1-2.001 1.998l-8.246-8.23a1.413 1.413 0 1 1 2.001-1.998zm2.628 3.971a10.452 10.452 0 0 0 0-14.824c-4.093-4.093-10.73-4.093-14.823 0-4.094 4.094-4.094 10.73 0 14.824 4.093 4.093 10.73 4.093 14.823 0zm-7.427-20.72a13.25 13.25 0 0 1 9.429 3.899 13.308 13.308 0 1 1-9.43-3.898zm38.268 8.013c4.419-4.416 4.42-11.578.005-15.997l-14.133-14.109-16.028 15.998 14.134 14.108c4.428 4.416 11.594 4.416 16.022 0zm2.006-17.996a14.137 14.137 0 0 1-10.017 24.132c-3.757.01-7.361-1.48-10.013-4.14l-15.134-15.104v-.003l-.005-.004-15.011-14.984c-5.521-5.531-5.513-14.49.018-20.012 5.531-5.521 14.492-5.513 20.013.018a1.414 1.414 0 1 1-2.002 1.998c-4.418-4.426-11.587-4.433-16.013-.015-4.426 4.418-4.432 11.587-.015 16.013l14.016 13.99 16.027-15.998-10.489-10.464a1.416 1.416 0 0 1 2.008-1.998zm-59.599-.316v-19.784c0-6.259-5.074-11.332-11.332-11.332-6.258 0-11.331 5.073-11.331 11.332v19.784zm-11.334-33.92c7.812 0 14.149 6.324 14.165 14.136v26.713a1.416 1.416 0 0 1-2.83 0v-4.103h-22.664v19.952c0 6.258 5.073 11.332 11.331 11.332 6.258 0 11.332-5.074 11.332-11.332v-11.138a1.416 1.416 0 0 1 2.831 0v11.138c0 7.822-6.34 14.163-14.163 14.163-7.821 0-14.163-6.341-14.162-14.163v-42.562c.015-7.81 6.35-14.134 14.16-14.136z"/></defs><g><g transform="translate(-1395 -1141)"><g><g><use fill="#fff" xlink:href="#c0jya"/></g><g><use fill="#fff" xlink:href="#c0jyb"/></g></g></g></g></svg>