<svg xmlns="http://www.w3.org/2000/svg" xmlns:xlink="http://www.w3.org/1999/xlink" width="155" height="142" viewBox="0 0 155 142"><defs><path id="427ha" d="M1251.013 1515.816h2.392c.631 0 1.135-.25 1.135-.97a.99.99 0 0 0-1.135-1.019h-2.392zm0 1.27v2.057h2.489c.738 0 1.273-.25 1.273-1.02 0-.819-.62-1.036-1.236-1.036zm2.927 3.416h-4.715v-8.027h4.581c1.622 0 2.542.886 2.542 2.14a1.892 1.892 0 0 1-1.14 1.82 1.877 1.877 0 0 1 1.37 1.856c0 1.237-.786 2.206-2.638 2.206zm-8.278-4.019a2.425 2.425 0 0 0-2.526-2.591 2.535 2.535 0 1 0 2.525 2.591zm-2.526-4.227c2.258 0 4.345 1.454 4.345 4.227 0 2.774-2.087 4.228-4.345 4.228-2.243 0-4.346-1.452-4.346-4.228s2.103-4.23 4.346-4.227zm-11.222 3.562h2.392c.637 0 1.135-.25 1.135-.97a.991.991 0 0 0-1.135-1.02h-2.392zm0 3.327h2.493c.734 0 1.269-.251 1.269-1.02 0-.819-.616-1.037-1.236-1.037h-2.526zm2.927 1.359h-4.715v-8.028h4.58c1.622 0 2.543.887 2.543 2.14a1.884 1.884 0 0 1-1.14 1.82 1.882 1.882 0 0 1 1.375 1.856c0 1.238-.786 2.207-2.643 2.207zm-8.28-4.02a2.424 2.424 0 0 0-2.525-2.59 2.535 2.535 0 1 0 2.526 2.591zm-6.87 0c0-2.777 2.108-4.231 4.345-4.227 2.259 0 4.351 1.455 4.351 4.228 0 2.773-2.092 4.228-4.35 4.228-2.238 0-4.346-1.453-4.346-4.228zm-3.061 0a2.471 2.471 0 0 0-2.494-2.657 2.825 2.825 0 0 0-2.558 1.672v1.956a2.812 2.812 0 0 0 2.558 1.688 2.472 2.472 0 0 0 2.494-2.658zm-5.25-2.76a3.833 3.833 0 0 1 3.093-1.467c2.408 0 3.976 1.923 3.976 4.228 0 2.304-1.568 4.227-3.976 4.227a3.715 3.715 0 0 1-2.895-1.254v4.714h-1.787v-11.702h1.589zm-10.537 6.773v-8.027h1.793v3.18h1.316l2.312-3.177h2.039l-2.912 3.978 3.228 4.046h-2.055l-2.644-3.326h-1.284v3.326zm-3.564-4.014a2.42 2.42 0 0 0-2.52-2.591 2.532 2.532 0 1 0 2.52 2.591zm-2.52-4.227c2.252 0 4.345 1.454 4.345 4.227 0 2.774-2.093 4.228-4.346 4.228-2.242 0-4.35-1.452-4.35-4.228s2.108-4.23 4.35-4.227zm-13.679 8.241v-8.027h7.588v8.027h-1.787v-6.455h-4.014v6.455zm-5.373-8.027l-2.928 3.929 3.094 4.095h-2.04l-2.087-2.841-2.092 2.841h-2.039l3.094-4.095-2.928-3.93h2.04l1.926 2.71 1.92-2.71zm-11.137 8.027v-8.027h1.788v8.027zm-6.806-1.42h1.84c1.055 0 1.707-.435 1.707-1.255 0-.836-.652-1.27-1.707-1.27h-1.84zm-1.788 1.42v-8.027h1.788v2.676h2.193c2.024 0 3.174 1.154 3.174 2.675 0 1.506-1.15 2.676-3.174 2.676zm-9.83 0v-8.027h1.787v3.227h4.013v-3.227h1.788v8.027h-1.788v-3.226h-4.013v3.226zm-3.163 0l-2.393-3.193h-1.118v3.193h-1.793v-3.195h-1.102l-2.392 3.192h-1.954l2.992-4.029-2.692-3.995h1.953l2.194 3.31h1.001v-3.31h1.793v3.313h1.017l2.189-3.31h1.942l-2.676 3.995 2.992 4.029zm-12.93-4.014a2.424 2.424 0 0 0-2.525-2.591 2.532 2.532 0 1 0 2.526 2.591zm-2.525-4.227c2.258 0 4.35 1.454 4.35 4.227 0 2.774-2.092 4.228-4.35 4.228-2.237 0-4.346-1.452-4.346-4.228s2.109-4.23 4.346-4.227zm-10.602 8.241h-1.787v-8.027h1.787v3.18h1.322l2.307-3.177h2.039l-2.906 3.978 3.226 4.046h-2.06l-2.638-3.326h-1.29v3.326zm139.085-20.37a2.462 2.462 0 0 0 2.542 2.643 2.536 2.536 0 1 0-2.542-2.641zm6.888.002c-.001 2.774-2.088 4.229-4.346 4.236-1.99 0-3.912-1.205-4.25-3.478h-1.738v3.26h-1.788v-8.028h1.788v3.26h1.739c.337-2.274 2.258-3.478 4.25-3.478 2.257 0 4.344 1.452 4.345 4.227zm-21.99 4.013v-8.027h1.793v5.25l4.297-5.25h1.536v8.027h-1.787v-5.25l-4.297 5.25zm-3.329 2.157v-2.157h-6.919v-8.027h1.788v6.455h3.831v-6.455h1.788v6.492h1.204v3.692zm-12.923-5.837c-1.022 0-2.093.318-2.093 1.325 0 .785.707 1.187 1.51 1.187a3.265 3.265 0 0 0 2.322-.953v-1.354a9.375 9.375 0 0 0-1.74-.201zm3.526 1.822a.52.52 0 0 0 .584.587c.182-.007.362-.041.535-.1v1.287a3.113 3.113 0 0 1-1.134.2 1.606 1.606 0 0 1-1.606-.936 4.656 4.656 0 0 1-3.024 1.037c-1.455 0-2.81-.803-2.81-2.458 0-2.056 1.906-2.692 3.576-2.692.703.01 1.404.088 2.092.234v-.284c0-1.003-.738-1.705-2.109-1.705a7.127 7.127 0 0 0-2.89.618v-1.638a9.798 9.798 0 0 1 3.078-.535c2.269 0 3.708 1.087 3.708 3.511v2.875zm-10.403-2.156c0-1.572-1.033-2.658-2.488-2.657a2.825 2.825 0 0 0-2.558 1.672v1.955a2.812 2.812 0 0 0 2.558 1.689c1.455 0 2.488-1.086 2.488-2.658zm-5.25-2.759a3.833 3.833 0 0 1 3.094-1.466c2.408 0 3.981 1.923 3.981 4.228 0 2.305-1.573 4.228-3.981 4.228a3.711 3.711 0 0 1-2.89-1.254v4.714h-1.788v-11.703h1.584v1.254zm-4.982 2.09c.102-.702-.332-2.073-2.092-2.072a2.188 2.188 0 0 0-2.355 2.073h4.447zm-6.234.669a4.02 4.02 0 0 1 4.061-4.231c3.195 0 4.298 2.574 3.778 4.899h-6.036c.203 1.437 1.606 2.039 3.077 2.039a5.877 5.877 0 0 0 2.542-.568v1.538a6.9 6.9 0 0 1-2.879.551c-2.456 0-4.543-1.402-4.543-4.227zm-9.333 4.014v-8.027h1.787v3.227h4.014v-3.227h1.787v8.027h-1.787v-3.227h-4.014v3.227zm-3.399-4.683c.102-.702-.331-2.073-2.087-2.07a2.195 2.195 0 0 0-2.36 2.072h4.447zm-6.234.669a4.022 4.022 0 0 1 4.062-4.23c3.195 0 4.297 2.575 3.778 4.899h-6.036c.203 1.437 1.605 2.04 3.077 2.04a5.877 5.877 0 0 0 2.542-.57v1.539a6.873 6.873 0 0 1-2.874.552c-2.456 0-4.549-1.403-4.549-4.228zm-4.864 4.015zm0 0h-1.793v-8.028h5.988v1.572h-4.195zm-5.186-4.684c.096-.702-.337-2.073-2.093-2.07a2.187 2.187 0 0 0-2.354 2.073h4.447zm-6.24.669a4.023 4.023 0 0 1 4.062-4.229c3.195 0 4.297 2.575 3.784 4.899h-6.037c.198 1.437 1.605 2.04 3.077 2.04a5.852 5.852 0 0 0 2.537-.57v1.539a6.874 6.874 0 0 1-2.874.552c-2.456 0-4.549-1.402-4.549-4.228zm-3.06 0a2.47 2.47 0 0 0-2.49-2.655 2.811 2.811 0 0 0-2.557 1.672v1.956a2.8 2.8 0 0 0 2.558 1.688 2.47 2.47 0 0 0 2.488-2.658zm-5.25-2.759a3.833 3.833 0 0 1 3.092-1.466c2.409 0 3.982 1.923 3.982 4.228 0 2.305-1.573 4.228-3.982 4.228a3.712 3.712 0 0 1-2.89-1.254v4.717h-1.792v-11.704h1.59zm-10.436 9.248l.99-4.145h1.889l-1.423 4.145zm-5.068-6.155c-1.017 0-2.087.318-2.087 1.322 0 .786.701 1.187 1.504 1.187a3.264 3.264 0 0 0 2.322-.953v-1.354a9.322 9.322 0 0 0-1.739-.2zm3.527 1.822a.52.52 0 0 0 .589.584c.182-.007.362-.041.535-.1v1.287a3.161 3.161 0 0 1-1.14.2 1.61 1.61 0 0 1-1.606-.936 4.647 4.647 0 0 1-3.023 1.037c-1.456 0-2.81-.803-2.81-2.458 0-2.056 1.905-2.691 3.58-2.691.702.009 1.401.087 2.087.234v-.285c0-1.002-.733-1.705-2.103-1.705a7.155 7.155 0 0 0-2.895.619v-1.639a9.827 9.827 0 0 1 3.077-.535c2.275 0 3.709 1.087 3.709 3.511v2.876zm-8.477 4.015h-1.686v-2.157h-6.925v-8.027h1.788v6.455h3.831v-6.455h1.788v6.489h1.204v3.692zm-18.479-2.16v-8.026h1.793v5.25l4.297-5.25h1.536v8.027h-1.787v-5.25l-4.297 5.25zm-6.737-6.502c-.236 3.878-.835 6.654-2.975 6.651a3.127 3.127 0 0 1-1.103-.217v-1.405c.164.064.338.098.514.1 1.36 0 1.723-2.674 1.873-6.653h6.186v8.027h-1.787v-6.504h-2.708zm131.593-9.851h-1.788v-6.454h-2.777v-1.571h7.326v1.571h-2.761zm-6.99-4.681c.097-.702-.337-2.074-2.092-2.074a2.185 2.185 0 0 0-2.354 2.073h4.447zm-6.24.668a4.025 4.025 0 0 1 4.068-4.232c3.19 0 4.292 2.574 3.778 4.898h-6.036c.198 1.438 1.605 2.04 3.077 2.04a5.898 5.898 0 0 0 2.542-.569v1.538a6.9 6.9 0 0 1-2.88.552c-2.456 0-4.548-1.402-4.548-4.227zm-6.87-.669h2.392c.631 0 1.134-.25 1.134-.97a.991.991 0 0 0-1.134-1.02h-2.393zm0 1.27v2.057h2.488c.739 0 1.274-.25 1.274-1.02 0-.82-.621-1.036-1.237-1.036zm2.926 3.417h-4.714v-8.027h4.58c1.622 0 2.542.887 2.542 2.14a1.891 1.891 0 0 1-1.14 1.82 1.878 1.878 0 0 1 1.37 1.856c0 1.237-.786 2.207-2.638 2.207zm-6.357 2.153h-1.686v-2.156h-6.925v-8.027h1.788v6.453h3.832v-6.453h1.787v6.49h1.204zm-16.723-2.158h-1.788v-6.454h-2.777v-1.571h7.326v1.571h-2.761zm-12.137-4.013a2.454 2.454 0 0 0 2.536 2.642c1.525 0 2.526-1.07 2.526-2.642 0-1.571-1-2.641-2.526-2.641a2.456 2.456 0 0 0-2.536 2.641zm6.887 0c0 2.775-2.092 4.23-4.35 4.236-1.986 0-3.913-1.204-4.244-3.478h-1.74v3.26h-1.787v-8.027h1.787v3.26h1.74c.331-2.275 2.258-3.479 4.243-3.479 2.259 0 4.35 1.453 4.35 4.228zm-18.125.334c-1.023 0-2.093.321-2.093 1.321 0 .786.701 1.187 1.504 1.187a3.269 3.269 0 0 0 2.328-.953v-1.354a9.382 9.382 0 0 0-1.74-.2zm3.526 1.823a.521.521 0 0 0 .583.588c.183-.007.363-.041.536-.1v1.287a3.099 3.099 0 0 1-1.135.2 1.6 1.6 0 0 1-1.605-.936 4.662 4.662 0 0 1-3.03 1.037c-1.45 0-2.804-.803-2.804-2.458 0-2.056 1.906-2.692 3.575-2.692.704.01 1.404.088 2.093.234v-.287c0-1.002-.739-1.705-2.109-1.705a7.168 7.168 0 0 0-2.895.62v-1.64c.99-.34 2.03-.52 3.077-.535 2.275 0 3.714 1.087 3.714 3.511v2.876zm-9.081 1.858h-11.404v-8.027h1.787v6.453h3.029v-6.453h1.787v6.45h3.013v-6.453h1.788v8.028zm-13.647-.003h-1.787v-2.659a6.112 6.112 0 0 1-2.242.385c-1.788 0-3.11-.92-3.11-2.944v-2.809h1.788v2.659c0 1.17.722 1.521 1.84 1.521a4.659 4.659 0 0 0 1.724-.3v-3.88h1.787zm-9.868-8.024h1.873l-3.762 9.112c-.867 2.09-2.001 2.792-3.227 2.792a4.517 4.517 0 0 1-1.049-.134v-1.521c.266.08.542.119.819.117.867 0 1.52-.62 1.985-1.873l.172-.401-3.816-8.092h1.91l2.709 6.052zm-15.717 8.173a3.152 3.152 0 0 1-1.103-.217v-1.405a1.5 1.5 0 0 0 .52.1c1.354 0 1.723-2.674 1.873-6.654h6.186v8.028h-1.793v-6.504h-2.708c-.23 3.879-.834 6.654-2.975 6.652zm-7.824.07a5.918 5.918 0 0 1-1.675-.268v-1.689a4.43 4.43 0 0 0 1.354.218c.901.06 1.74-.466 2.077-1.304l.213-.435-4.747-8.442h2.125l3.596 6.689 2.992-6.69h2.07l-4.243 9.045c-1.038 2.223-2.376 2.875-3.762 2.875z"/><path id="427hb" d="M1179.453 1448.203a1.171 1.171 0 0 1 1.643.152l.781.942a1.162 1.162 0 0 1-.16 1.636c-.21.172-.473.267-.744.268a1.159 1.159 0 0 1-.9-.424l-.78-.941a1.157 1.157 0 0 1 .16-1.636zm5.534 3a1.17 1.17 0 0 1-.905-.428l-2.628-3.176a1.156 1.156 0 0 1 .156-1.636 1.17 1.17 0 0 1 1.643.16l2.632 3.177a1.163 1.163 0 0 1-.898 1.9zm21.598 3.193v.003zm0-8.175c0-8.35-6.646-10.723-6.924-10.82a.111.111 0 0 1-.027-.008l-1.75-.637c-1.402 4.894-.889 9.058 1.493 12.105.331.212.53.58.53.973v6.562h6.678zm-24.595-5.398c2.954.17 6.16-2.735 9.322-8.417l-3.815-1.152a1.164 1.164 0 0 1-.83-1.112v-3.927c-1.005.261-2.039.393-3.077.392h-2.387c-1.045 0-2.086-.133-3.098-.398v3.933c-.002.519-.346.974-.846 1.117l-3.65 1.036c1.37 3 4.565 8.306 8.38 8.524zm-10.633-26.331c.02 5.42 4.425 9.802 9.846 9.793h2.387c5.42.009 9.826-4.372 9.847-9.793v-8.774h-22.08zm-2.34-7.002a3.19 3.19 0 0 0 0 6.286zm26.753 6.287a3.191 3.191 0 0 0 0-6.287zm-1.055-14.374h-25.071v3.99h25.071zm-27.41 25.708a33.004 33.004 0 0 1 5.694-1.665 12.063 12.063 0 0 1-3.863-7.311 5.512 5.512 0 0 1-1.418-10.698 1.152 1.152 0 0 1-.412-.88v-6.316a1.166 1.166 0 0 1 1.171-1.162h27.41c.644 0 1.165.52 1.167 1.162v6.315a1.176 1.176 0 0 1-.3.777 5.515 5.515 0 0 1-1.096 10.802 12.095 12.095 0 0 1-3.87 7.31c1.946.384 3.854.942 5.7 1.667a26.528 26.528 0 0 0 5.014-15.776c0-7.36-2.799-14.2-7.674-18.768a18.014 18.014 0 0 0-12.432-5.117c-11.088 0-20.105 10.715-20.105 23.885a26.501 26.501 0 0 0 5.014 15.775zm-2.461 22.065c3.42-4.038 2.74-9.252 1.819-12.445l-1.82.662a.138.138 0 0 1-.026.01c-.279.095-6.92 2.47-6.92 10.818v8.18h6.673v-6.48c0-.029.006-.057.006-.085v-.03l.016-.104a.01.01 0 0 1 .005-.01.852.852 0 0 1 .048-.163l.016-.054.049-.103a.008.008 0 0 0 .005-.007c.021-.031.038-.062.06-.09.004-.009.01-.016.015-.023a.499.499 0 0 1 .054-.07zm39.852-11.262c1.927 1.81 4.222 5.068 4.223 10.305v9.339a1.168 1.168 0 0 1-1.167 1.164h-33.613a1.162 1.162 0 0 1 0-2.324h23.435v-6.062c-2.109-2.67-3.987-7.246-1.89-14.38l-2.135-.776c-3.612 6.62-7.411 9.974-11.302 9.974-.134 0-.262-.004-.396-.012-5.598-.325-9.306-7.515-10.473-10.127l-2.515.915c1.054 3.574 1.89 9.544-1.953 14.402v6.068h2.857a1.162 1.162 0 1 1 0 2.324h-13.041c-.643 0-1.165-.52-1.167-1.163v-9.34c0-5.238 2.296-8.496 4.228-10.306a12.964 12.964 0 0 1 4.265-2.708l7.626-2.775c.026-.01.053-.018.08-.025l4.008-1.139v-3.934a4.002 4.002 0 0 0-.139-.07 1.117 1.117 0 0 1-.406.145 31.204 31.204 0 0 0-7.809 2.184l-.058.022c-.022.008-.043.018-.065.025a1.316 1.316 0 0 1-.139.035c-.021.004-.043.01-.064.01a.884.884 0 0 1-.118.01h-.037c-.054 0-.108-.005-.16-.012h-.012c-.05-.008-.1-.019-.15-.032h-.01a1.217 1.217 0 0 1-.423-.226l-.016-.016a.828.828 0 0 1-.09-.092c-.012-.009-.017-.018-.028-.026a.14.14 0 0 0-.027-.028 28.667 28.667 0 0 1-6.063-17.928c0-14.45 10.066-26.208 22.444-26.208a20.582 20.582 0 0 1 14.032 5.749c5.346 5.004 8.407 12.461 8.407 20.46a28.753 28.753 0 0 1-5.833 17.637c-.04.05-.086.097-.134.14a1.162 1.162 0 0 1-1.487.48 31.143 31.143 0 0 0-7.712-2.169 1.19 1.19 0 0 1-.466-.183c-.064.035-.133.07-.198.103v3.94l3.73 1.127.065.02 7.626 2.775a12.983 12.983 0 0 1 4.27 2.708zm-22.513-19.76a1.167 1.167 0 0 1-1.173-1.161v-3.776a1.17 1.17 0 1 1 2.339 0v2.614h.819a1.162 1.162 0 1 1 0 2.323z"/></defs><g><g transform="translate(-1108 -1383)"><g><use fill="#fff" xlink:href="#427ha"/></g><g><use fill="#fff" xlink:href="#427hb"/></g></g></g></svg>