<svg xmlns="http://www.w3.org/2000/svg" xmlns:xlink="http://www.w3.org/1999/xlink" width="143" height="139" viewBox="0 0 143 139"><defs><path id="d4dna" d="M1474.172 1422.085h-12.165a47.877 47.877 0 0 1-1.187-3.73h1.31a1.167 1.167 0 0 0 1.173-1.162v-4.893h1.84v4.044a1.17 1.17 0 1 0 2.34 0l-.001-4.044h2.205v2.234a1.17 1.17 0 1 0 2.339 0v-2.234h2.145v9.784zm-12.748 32.047h-16.964v-5.028a11.87 11.87 0 0 1 2.788-7.78 1.157 1.157 0 0 0-.021-1.64 1.177 1.177 0 0 0-1.654.017 12.429 12.429 0 0 0-2.285 3.63 12.613 12.613 0 0 0-2.28-3.63 1.177 1.177 0 0 0-1.653-.02 1.156 1.156 0 0 0-.022 1.642 11.899 11.899 0 0 1 2.789 7.781v5.028h-16.97c-1.825-6.468-3.95-17.393-.728-25.795h37.728c3.227 8.403 1.097 19.327-.728 25.795zm-28.913-30.953a1.162 1.162 0 0 0 0-2.324h-5.084c.25-.803.487-1.635.717-2.5h30.155c.214.829.455 1.664.733 2.5h-22.208a1.162 1.162 0 1 0 0 2.324h23.049c.069.169.133.338.203.506.034.08.077.155.128.225.274.695.578 1.401.905 2.1h-35.641c.41-.878.8-1.822 1.172-2.831zm-9.772-7.149v-9.787h2.07v3.8a1.17 1.17 0 0 0 2.34 0v-3.8h2.204v1.99a1.17 1.17 0 1 0 2.339 0v-1.99h2.205v3.8a1.17 1.17 0 1 0 2.339 0v-3.8h2.204v1.99a1.17 1.17 0 1 0 2.339 0v-1.99h2.205v3.8a1.17 1.17 0 1 0 2.338 0v-3.8h2.205v1.99a1.17 1.17 0 1 0 2.339 0v-1.99h2.205v3.8a1.17 1.17 0 1 0 2.339 0v-3.8h2.204v1.99a1.172 1.172 0 1 0 2.344 0v-1.99h2.002v9.786h-38.22zm34.827-12.108h-28.55a37.762 37.762 0 0 0-.701-3.382 63.207 63.207 0 0 1 29.946 0 36.117 36.117 0 0 0-.695 3.382zm-14.278-7.505a63.019 63.019 0 0 0-15.615 1.886c-.011-.04-.027-.081-.038-.121-.038-.104-.07-.209-.107-.313-.043-.134-.086-.268-.134-.401l-.08-.226c-.054-.157-.107-.314-.166-.47a2.233 2.233 0 0 0-.07-.179c-.058-.167-.122-.334-.187-.502a2.84 2.84 0 0 0-.075-.194c-.048-.13-.101-.26-.15-.39a73.79 73.79 0 0 1 33.25 0 39.785 39.785 0 0 0-.74 1.98l-.015.045c-.054.165-.112.33-.166.494-.022.075-.048.15-.075.226l-.016.054a62.963 62.963 0 0 0-15.616-1.889zm-17.558-3.074zm0-.01c-1.985-4.312-2.173-6.945-2.108-8.149h39.333c.07 1.194-.123 3.834-2.103 8.149a.01.01 0 0 0-.006.01 75.961 75.961 0 0 0-35.116 0zm49.608 16.643h-12.035v-4.892a1.166 1.166 0 0 0-1.172-1.163h-2.194a34.29 34.29 0 0 1 .963-4.148l.08-.267c.054-.185.113-.37.171-.555l.016-.05c.279-.858.593-1.722.942-2.591.016-.042.038-.085.054-.127.064-.161.128-.322.198-.482a57.973 57.973 0 0 1 .615-1.406c3.254-7.077 2.2-10.335 2.071-10.684a1.173 1.173 0 0 0-1.097-.755h-41.324c-.486 0-.92.3-1.092.755-.133.349-1.188 3.607 2.066 10.684.16.35.316.698.466 1.044.048.118.101.236.15.352l.15.366.096.23.193.495c.016.036.026.072.042.107l.225.593c0 .009.005.015.005.023.15.406.29.811.423 1.215.005.018.016.036.022.054l.144.463c.022.06.037.12.059.18.021.077.043.155.07.232.037.13.074.26.117.39v.004a35 35 0 0 1 .883 3.874h-5.073a1.167 1.167 0 0 0-1.172 1.162v12.109a1.166 1.166 0 0 0 1.172 1.162h4.147a40.281 40.281 0 0 1-2.66 7.278c-.176.352-.336.71-.491 1.07l-.017.034c-3.858 9.016-1.846 20.603.6 28.884a1.17 1.17 0 0 0 1.124.835h38.033c.516.001.972-.339 1.118-.835 2.446-8.284 4.464-19.868.6-28.884-.006-.012-.006-.022-.011-.034-.155-.361-.321-.718-.498-1.07-.198-.405-.39-.814-.572-1.223h12.394a1.167 1.167 0 0 0 1.172-1.162v-12.106a1.166 1.166 0 0 0-1.173-1.16z"/><path id="d4dnb" d="M1495.658 1516.55c-1.022 0-2.093.317-2.093 1.322 0 .785.701 1.187 1.504 1.186a3.269 3.269 0 0 0 2.328-.953v-1.354a9.423 9.423 0 0 0-1.74-.2zm3.527 1.822a.519.519 0 0 0 .583.583c.182-.007.362-.04.535-.1v1.287a3.102 3.102 0 0 1-1.135.2 1.6 1.6 0 0 1-1.605-.935 4.663 4.663 0 0 1-3.03 1.036c-1.45 0-2.803-.802-2.803-2.458 0-2.056 1.905-2.69 3.574-2.69a10.72 10.72 0 0 1 2.093.233v-.284c0-1.004-.739-1.706-2.108-1.706a7.13 7.13 0 0 0-2.89.619v-1.638a9.794 9.794 0 0 1 3.072-.535c2.274 0 3.714 1.087 3.714 3.51zm-15.616-2.09c0-2.992 2.29-4.297 4.431-4.297a4.856 4.856 0 0 1 2.472.62v1.638a3.932 3.932 0 0 0-2.226-.668c-1.418 0-2.858.752-2.858 2.641 0 1.822 1.386 2.642 2.826 2.642a4.846 4.846 0 0 0 2.344-.619v1.655a6.063 6.063 0 0 1-2.66.552c-2.14 0-4.33-1.304-4.33-4.163zm-2.895-.736c.096-.702-.338-2.073-2.093-2.072a2.186 2.186 0 0 0-2.354 2.073h4.447zm-6.24.67a4.025 4.025 0 0 1 4.067-4.229c3.19 0 4.297 2.575 3.778 4.898h-6.036c.198 1.438 1.605 2.04 3.077 2.04a5.903 5.903 0 0 0 2.542-.568v1.535a6.921 6.921 0 0 1-2.88.552c-2.456 0-4.548-1.403-4.548-4.228zm-6.871-.666h2.392c.631 0 1.134-.25 1.134-.97a.99.99 0 0 0-1.134-1.02h-2.393zm0 3.327h2.488c.739 0 1.274-.251 1.274-1.02 0-.82-.621-1.037-1.237-1.037h-2.525zm2.927 1.358h-4.715v-8.027h4.581c1.622 0 2.542.887 2.542 2.14a1.892 1.892 0 0 1-1.14 1.82 1.878 1.878 0 0 1 1.37 1.856c0 1.237-.786 2.206-2.638 2.206zm-12.228-4.019a2.418 2.418 0 0 0-2.52-2.59 2.532 2.532 0 1 0 2.52 2.59zm-6.871 0c0-2.776 2.108-4.23 4.35-4.227 2.253 0 4.345 1.455 4.345 4.228 0 2.773-2.092 4.228-4.345 4.228-2.242 0-4.35-1.453-4.35-4.228zm-4.865 4.014h-1.787v-8.027h5.982v1.571h-4.195zm-5.186-4.684c.102-.702-.337-2.073-2.092-2.07a2.186 2.186 0 0 0-2.355 2.073h4.447zm-6.234.67a4.018 4.018 0 0 1 4.061-4.229c3.19 0 4.298 2.575 3.779 4.898h-6.037c.198 1.438 1.606 2.04 3.077 2.04a5.887 5.887 0 0 0 2.542-.568v1.537a6.9 6.9 0 0 1-2.879.552c-2.456 0-4.543-1.403-4.543-4.228zm-7.546 4.014h-1.787v-8.027h1.787v3.227h4.014v-3.227h1.787v8.027h-1.787v-3.224h-4.014zm-4.03 0h-11.404v-8.027h1.788v6.453h3.028v-6.453h1.788v6.455h3.008v-6.453h1.793zm-19.73 0h-1.542v-8.027h1.788v5.25l4.297-5.25h1.541v8.027h-1.787v-5.247l-4.298 5.25zm-8.279-6.506c-.235 3.879-.84 6.654-2.976 6.654a3.159 3.159 0 0 1-1.108-.217v-1.405c.167.064.342.098.52.1 1.354 0 1.723-2.674 1.873-6.653h6.186v8.027h-1.787v-6.501h-2.708zm103.155-9.85h-1.793v-6.454h-2.772v-1.572h7.321v1.572h-2.756zm-7.075-4.013a2.421 2.421 0 0 0-2.525-2.588 2.534 2.534 0 1 0 2.525 2.591zm-6.871 0c0-2.776 2.103-4.23 4.345-4.224 2.259 0 4.346 1.454 4.346 4.227 0 2.773-2.088 4.228-4.346 4.228-2.242 0-4.345-1.452-4.345-4.228zm-11.104-1.288c0 .786.583 1.237 1.568 1.241h2.06v-2.474h-2.06c-.985 0-1.569.451-1.569 1.237zm-.188 5.3h-2.055l2.205-2.826a2.561 2.561 0 0 1-1.787-2.491c0-1.455 1.086-2.709 3.093-2.709h4.148v8.028h-1.788v-2.625h-1.825l-1.99 2.625zm-10.114-3.946c0-2.992 2.29-4.296 4.431-4.295a4.854 4.854 0 0 1 2.473.619v1.639a3.916 3.916 0 0 0-2.221-.67c-1.424 0-2.863.753-2.863 2.642 0 1.822 1.391 2.642 2.825 2.642a4.831 4.831 0 0 0 2.344-.619v1.655a6.046 6.046 0 0 1-2.66.552c-2.14 0-4.329-1.304-4.329-4.163zm-6.422 2.526h1.836c1.054 0 1.707-.434 1.707-1.254 0-.835-.653-1.27-1.707-1.27h-1.836zm-1.793 1.422v-8.028h1.793v2.676h2.189c2.023 0 3.179 1.155 3.179 2.676 0 1.505-1.156 2.676-3.18 2.676zm-4.163-.002h-1.787v-6.453h-2.778v-1.572h7.327v1.572h-2.762zm-13.593.002v-8.028h1.788v5.25l4.297-5.25h1.536v8.028h-1.787v-5.25l-4.298 5.25zm-7.374-6.673v1.989h2.387c.636 0 1.14-.25 1.14-.97a.992.992 0 0 0-1.14-1.017h-2.387zm0 5.316h2.489c.738 0 1.273-.248 1.273-1.017 0-.82-.62-1.037-1.241-1.037h-2.521zm2.922 1.358h-4.714v-8.027h4.58c1.622 0 2.542.887 2.542 2.14a1.889 1.889 0 0 1-1.135 1.823c.827.234 1.39.997 1.37 1.856 0 1.237-.786 2.207-2.643 2.207zm-10.719-3.681c-1.017 0-2.087.317-2.087 1.322 0 .786.7 1.187 1.504 1.187a3.258 3.258 0 0 0 2.322-.953v-1.354a9.27 9.27 0 0 0-1.739-.2zm3.532 1.822a.52.52 0 0 0 .583.585 1.9 1.9 0 0 0 .536-.101v1.288a3.16 3.16 0 0 1-1.14.2 1.598 1.598 0 0 1-1.6-.936 4.672 4.672 0 0 1-3.03 1.036c-1.455 0-2.81-.802-2.81-2.458 0-2.056 1.906-2.69 3.581-2.69.702.008 1.4.086 2.087.233v-.284c0-1.003-.733-1.705-2.103-1.705a7.177 7.177 0 0 0-2.895.618v-1.638a9.831 9.831 0 0 1 3.077-.535c2.274 0 3.714 1.087 3.714 3.51v2.876zm-15.188-1.839a2.375 2.375 0 1 0 2.376-2.375 2.349 2.349 0 0 0-2.375 2.374zm6.588-.033c0 2.541-1.755 3.945-4.18 3.943-2.386 0-4.211-1.536-4.211-4.763 0-2.774 1.038-4.547 2.472-5.45 2.312-1.42 4.068-.802 5.202-1.922v1.737c-1.118.853-2.44.469-4.147 1.422a3.864 3.864 0 0 0-1.702 2.54 3.361 3.361 0 0 1 2.804-1.404 3.697 3.697 0 0 1 3.762 3.896zm-9.815 1.538c0 1.404-1.284 2.407-3.761 2.41a6.676 6.676 0 0 1-3.008-.652v-1.539c.861.43 1.81.66 2.772.67 1.188 0 2.194-.218 2.194-1.104 0-.853-.872-.987-1.675-.987h-1.637v-1.37h1.637c.856 0 1.504-.235 1.504-.904 0-.719-.765-1.07-1.922-1.07a6.351 6.351 0 0 0-2.723.652v-1.538a7.094 7.094 0 0 1 2.943-.635c2.472 0 3.51 1.05 3.51 2.354a1.77 1.77 0 0 1-1.423 1.79c.92.18 1.586.984 1.59 1.922zm-16.15 2.189v-8.027h1.787v5.25l4.297-5.25h1.537v8.027h-1.788v-5.25l-4.297 5.25zm124.598-20.366a2.42 2.42 0 0 0-2.526-2.592 2.532 2.532 0 1 0 2.526 2.59zm-6.871 0c0-2.776 2.109-4.23 4.345-4.229 2.258 0 4.351 1.455 4.351 4.228 0 2.773-2.093 4.227-4.35 4.227-2.237 0-4.346-1.452-4.346-4.227zm-3.061 0a2.472 2.472 0 0 0-2.494-2.66 2.825 2.825 0 0 0-2.558 1.673v1.955a2.811 2.811 0 0 0 2.558 1.689 2.471 2.471 0 0 0 2.494-2.658zm-5.25-2.758a3.832 3.832 0 0 1 3.093-1.469c2.408 0 3.982 1.923 3.982 4.228 0 2.305-1.574 4.228-3.982 4.228a3.731 3.731 0 0 1-2.895-1.254v4.714h-1.787v-11.703h1.589zm-5.753 6.77h-1.787v-6.453h-2.777v-1.572h7.32v1.572h-2.756zm-12.506-3.946c0-2.992 2.29-4.296 4.43-4.297a4.853 4.853 0 0 1 2.473.619v1.638a3.92 3.92 0 0 0-2.226-.669c-1.418 0-2.858.753-2.858 2.642 0 1.822 1.392 2.641 2.826 2.641a4.827 4.827 0 0 0 2.344-.618v1.655a6.065 6.065 0 0 1-2.66.552c-2.14 0-4.33-1.304-4.33-4.163zm-3.532 3.945v-8.027h1.787v8.027zm-6.807-1.42h1.84c1.055 0 1.708-.435 1.708-1.255 0-.836-.653-1.27-1.707-1.27h-1.841zm-1.788 1.42v-8.027h1.788v2.676h2.194c2.023 0 3.173 1.155 3.173 2.676 0 1.505-1.15 2.675-3.173 2.675zm-8.343-3.692v-.002zm2.375 2.374a2.373 2.373 0 1 0-.004-4.748 2.344 2.344 0 0 0-2.37 2.374 2.374 2.374 0 0 0 2.374 2.374zm4.213-2.408c0 2.54-1.755 3.945-4.18 3.944-2.391 0-4.217-1.537-4.217-4.763 0-2.775 1.039-4.548 2.478-5.45 2.307-1.421 4.062-.803 5.197-1.923v1.739c-1.119.853-2.44.468-4.148 1.421a3.884 3.884 0 0 0-1.702 2.541 3.365 3.365 0 0 1 2.81-1.404 3.697 3.697 0 0 1 3.762 3.895zm-16.14 3.727h-1.787v-6.453h-2.778v-1.572h7.326v1.572h-2.76zm-12.137-4.012a2.456 2.456 0 0 0 2.537 2.641c1.524 0 2.525-1.07 2.525-2.641s-1-2.642-2.525-2.642a2.457 2.457 0 0 0-2.537 2.642zm2.537 4.236c-1.986 0-3.912-1.204-4.244-3.478h-1.74v3.26h-1.787v-8.027h1.788v3.26h1.739c.331-2.275 2.258-3.479 4.244-3.479 2.258 0 4.35 1.453 4.35 4.228 0 2.775-2.092 4.23-4.35 4.236zm-13.775-3.902c-1.022 0-2.093.321-2.093 1.321 0 .786.702 1.187 1.504 1.187a3.27 3.27 0 0 0 2.328-.953v-1.354a9.372 9.372 0 0 0-1.74-.2zm3.526 1.823a.52.52 0 0 0 .584.588c.182-.007.362-.041.535-.101v1.288a3.098 3.098 0 0 1-1.135.2 1.6 1.6 0 0 1-1.605-.936 4.663 4.663 0 0 1-3.029 1.036c-1.45 0-2.81-.802-2.81-2.457 0-2.057 1.91-2.692 3.58-2.692.704.01 1.405.088 2.093.234v-.287c0-1.003-.738-1.705-2.108-1.705a7.167 7.167 0 0 0-2.895.619v-1.639c.99-.34 2.029-.521 3.077-.535 2.274 0 3.714 1.087 3.714 3.511v2.876zm-12.308 1.858h-1.787v-8.028h5.983v1.572h-4.196zm-5.352-4.015a2.424 2.424 0 0 0-2.525-2.592 2.534 2.534 0 1 0 2.525 2.59zm-6.87 0c0-2.776 2.108-4.23 4.345-4.229 2.258 0 4.345 1.455 4.345 4.228 0 2.773-2.087 4.227-4.345 4.227-2.237 0-4.345-1.452-4.346-4.227zm-9.099 4.012h-1.723v-8.027h1.804l2.73 4.228 2.739-4.228h1.804v8.027h-1.718v-5.433l-2.29 3.51h-1.071l-2.274-3.51v5.433zm-5.287-4.012a2.423 2.423 0 0 0-2.525-2.592 2.532 2.532 0 1 0 2.526 2.59zm-6.871 0c0-2.776 2.109-4.23 4.346-4.229 2.258 0 4.35 1.455 4.35 4.228 0 2.773-2.092 4.227-4.35 4.227-2.237 0-4.346-1.452-4.346-4.227zm-9.766 4.012h-1.905v-11.702h9.83v11.702h-1.905v-9.947h-6.02v9.947z"/></defs><g><g transform="translate(-1375 -1382)"><g><use fill="#fff" xlink:href="#d4dna"/></g><g><use fill="#fff" xlink:href="#d4dnb"/></g></g></g></svg>