<svg xmlns="http://www.w3.org/2000/svg" xmlns:xlink="http://www.w3.org/1999/xlink" width="141" height="136" viewBox="0 0 141 136"><defs><path id="u5x5a" d="M1248.208 1774.868v-8.027h1.787v8.027zm-6.802-1.42h1.835c1.055 0 1.708-.435 1.708-1.255 0-.836-.653-1.27-1.708-1.27h-1.835zm-1.793 1.42v-8.027h1.793v2.675h2.189c2.023 0 3.173 1.155 3.173 2.676 0 1.506-1.15 2.676-3.173 2.676zm-6.737-6.511c-.236 3.878-.835 6.654-2.976 6.654a3.104 3.104 0 0 1-1.102-.218v-1.404c.164.064.338.098.514.1 1.353 0 1.723-2.675 1.873-6.654h6.186v8.028h-1.788v-6.498h-2.707zm-9.2 2.825c-1.016 0-2.087.318-2.087 1.33 0 .785.701 1.186 1.504 1.186a3.265 3.265 0 0 0 2.323-.953v-1.354a9.41 9.41 0 0 0-1.74-.2zm3.527 1.822a.521.521 0 0 0 .589.59c.182-.007.362-.04.535-.1v1.288c-.364.137-.75.205-1.14.2a1.606 1.606 0 0 1-1.605-.936 4.655 4.655 0 0 1-3.024 1.037c-1.456 0-2.81-.803-2.81-2.458 0-2.056 1.906-2.691 3.575-2.691.704.009 1.405.087 2.093.234v-.284c0-1.004-.734-1.706-2.109-1.706a7.15 7.15 0 0 0-2.89.619v-1.638a9.829 9.829 0 0 1 3.078-.536c2.274 0 3.708 1.087 3.708 3.511v2.876zm-13.908 1.859h-1.793v-8.028h1.793v3.182h1.316l2.312-3.176h2.039l-2.911 3.978 3.226 4.046h-2.054l-2.644-3.326h-1.284zm-10.12 0h-1.536v-8.028h1.788v5.25l4.297-5.25h1.536v8.028h-1.788v-5.247l-4.297 5.25zm-8.964-6.551v-.006zm0 0a12.23 12.23 0 0 1-1.07 5.084h3.864v-5.084zm-2.36 8.705h-1.685v-3.628h1.102c.969-1.722 1.306-3.762 1.274-6.554h6.266v6.556h1.188v3.629h-1.69v-2.157h-6.455zm-6.972-5.835c-1.017 0-2.087.318-2.088 1.328 0 .786.701 1.187 1.504 1.187a3.265 3.265 0 0 0 2.323-.953v-1.355a9.369 9.369 0 0 0-1.74-.2zm3.526 1.827v-.003-.002zm0-.003a.52.52 0 0 0 .589.588 1.89 1.89 0 0 0 .535-.1v1.287c-.364.136-.75.204-1.14.2a1.61 1.61 0 0 1-1.606-.936 4.646 4.646 0 0 1-3.023 1.037c-1.456 0-2.81-.803-2.81-2.458 0-2.056 1.906-2.691 3.58-2.691.702.009 1.402.087 2.088.234v-.285c0-1.003-.733-1.705-2.103-1.705a7.156 7.156 0 0 0-2.895.619v-1.639a9.833 9.833 0 0 1 3.077-.535c2.274 0 3.708 1.087 3.708 3.51zm-10.398-2.157a2.472 2.472 0 0 0-2.493-2.655 2.824 2.824 0 0 0-2.559 1.672v1.956a2.812 2.812 0 0 0 2.558 1.688 2.472 2.472 0 0 0 2.494-2.658zm-5.25-2.76a3.826 3.826 0 0 1 3.093-1.467c2.409 0 3.977 1.923 3.977 4.228 0 2.305-1.568 4.228-3.976 4.228a3.715 3.715 0 0 1-2.896-1.254v4.714h-1.787v-11.703h1.59zm-13.865 6.774h-1.536v-8.028h1.787v5.25l4.298-5.25h1.535v8.028h-1.787v-5.248l-4.297 5.25zm-9.515.001v-8.027h1.787v8.027zm-6.807-1.42h1.84c1.055 0 1.708-.435 1.708-1.255 0-.835-.653-1.27-1.707-1.27h-1.841zm-1.788 1.42v-8.027h1.788v2.676h2.194c2.023 0 3.173 1.154 3.173 2.675 0 1.506-1.15 2.676-3.173 2.676zm-7.427-6.553v-.005zm0 0a12.157 12.157 0 0 1-1.07 5.084h3.863v-5.084zm-2.355 8.71v-.004zm0-.004h-1.692v-3.628h1.109c.968-1.722 1.3-3.762 1.268-6.554h6.272v6.556h1.183v3.629h-1.686v-2.157H1131zm-8.632-7.457c0 .786.588 1.235 1.573 1.235h2.055v-2.468h-2.055c-.984 0-1.573.452-1.573 1.238zm-.182 5.3h-2.055l2.205-2.825a2.556 2.556 0 0 1-1.788-2.491c0-1.455 1.087-2.709 3.094-2.709h4.147v8.028h-1.793v-2.623h-1.82l-1.99 2.623zm131.053-13.882l.984-4.146h1.89l-1.424 4.146zm-3.099-2.474v-8.027h1.788v8.027zm-6.807-1.421h1.84c1.055 0 1.708-.435 1.708-1.254 0-.836-.653-1.27-1.707-1.27h-1.84zm-1.787 1.421v-8.027h1.787v2.676h2.194c2.023 0 3.174 1.154 3.174 2.675 0 1.506-1.15 2.676-3.174 2.676zm-9.831 0v-8.027h1.788v3.227h4.013v-3.227h1.788v8.027h-1.788v-3.227h-4.013v3.227zm-9.868 0v-8.027h1.788v5.25l4.297-5.25h1.541v8.027h-1.793v-5.25l-4.297 5.25zm-8.782-3.944c0-2.992 2.29-4.297 4.431-4.298a4.876 4.876 0 0 1 2.478.618v1.639a3.944 3.944 0 0 0-2.226-.669c-1.418 0-2.858.753-2.858 2.642 0 1.822 1.386 2.641 2.825 2.641a4.81 4.81 0 0 0 2.34-.619v1.656a6.021 6.021 0 0 1-2.655.551c-2.14 0-4.335-1.304-4.335-4.163zm-6.25 3.946h-1.793v-8.027h1.792v3.177h1.317l2.312-3.177h2.04l-2.912 3.98 3.226 4.045h-2.054l-2.644-3.327h-1.284v3.327zm-5.358-4.013a2.42 2.42 0 0 0-2.52-2.594 2.532 2.532 0 1 0 2.52 2.591zm-6.87 0c0-2.775 2.107-4.23 4.35-4.23 2.253 0 4.346 1.454 4.346 4.227 0 2.774-2.093 4.228-4.346 4.228-2.242 0-4.35-1.452-4.35-4.228zm-3.447 4.013h-1.787v-6.454h-2.772v-1.571h7.32v1.571h-2.761v6.452zm-11.837 0h-1.788v-6.454h-2.777v-1.571h7.32v1.571h-2.755zm-11.389-5.3c0 .786.584 1.237 1.574 1.237h2.055v-2.474h-2.055c-.99 0-1.573.452-1.573 1.237zm-.181 5.296h-2.06l2.21-2.826a2.56 2.56 0 0 1-1.793-2.49c0-1.455 1.092-2.71 3.093-2.71h4.147v8.028h-1.787v-2.625h-1.825l-1.985 2.625zm-8.766-6.55a12.15 12.15 0 0 1-1.07 5.082h3.863v-5.084h-2.793zm-2.355 8.71h-1.69v-3.627h1.102c.968-1.723 1.305-3.762 1.273-6.554h6.267v6.552h1.188v3.628h-1.685v-2.157h-6.455v2.157zm-4.335-6.169a2.422 2.422 0 0 0-2.525-2.593 2.534 2.534 0 1 0 2.526 2.592zm-6.871 0c0-2.775 2.109-4.23 4.346-4.23 2.258 0 4.35 1.455 4.35 4.229 0 2.773-2.092 4.227-4.35 4.227-2.237 0-4.346-1.452-4.346-4.227zm-6.871-.673h2.387c.637 0 1.14-.25 1.14-.97a.994.994 0 0 0-1.14-1.017h-2.387zm0 3.327h2.488c.734 0 1.269-.248 1.269-1.017 0-.82-.616-1.036-1.236-1.036h-2.521zm2.922 1.359h-4.715v-8.027h4.58c1.622 0 2.543.886 2.543 2.14a1.887 1.887 0 0 1-1.135 1.822c.827.234 1.39.998 1.37 1.856 0 1.237-.786 2.207-2.643 2.207zm-8.745-.002v-8.027h1.788v8.027zm-6.807-1.421h1.841c1.055 0 1.707-.435 1.707-1.254 0-.836-.652-1.27-1.707-1.27h-1.84zm-1.787 1.421v-8.027h1.787v2.676h2.19c2.022 0 3.178 1.154 3.178 2.675 0 1.506-1.156 2.676-3.179 2.676zm-7.374-4.684h2.392c.631 0 1.134-.25 1.134-.97a.99.99 0 0 0-1.134-1.017h-2.392zm0 1.274v-.003zm0 0v2.053h2.488c.739 0 1.274-.248 1.274-1.017 0-.82-.621-1.036-1.237-1.036zm2.921 3.412h-4.714v-8.027h4.58c1.628 0 2.543.886 2.543 2.14a1.887 1.887 0 0 1-1.135 1.822 1.878 1.878 0 0 1 1.37 1.856c0 1.237-.786 2.207-2.644 2.207zm113.468-20.367a2.424 2.424 0 0 0-2.526-2.593 2.534 2.534 0 1 0 2.526 2.59zm-6.871-.001c0-2.775 2.108-4.23 4.345-4.229 2.259 0 4.35 1.455 4.35 4.228 0 2.773-2.091 4.228-4.35 4.228-2.237 0-4.345-1.453-4.345-4.227zm-9.334 4.013v-8.028h1.788v3.227h4.014v-3.227h1.792v8.028h-1.792v-3.227h-4.014v3.227zm-7.374-4.681h2.392c.637 0 1.135-.251 1.135-.97a.991.991 0 0 0-1.135-1.02h-2.392zm0 3.326h2.494c.733 0 1.269-.25 1.269-1.02 0-.819-.622-1.036-1.237-1.036h-2.526zm2.927 1.36h-4.715v-8.028h4.581c1.622 0 2.543.887 2.543 2.14a1.892 1.892 0 0 1-1.14 1.82 1.878 1.878 0 0 1 1.37 1.856c0 1.237-.782 2.207-2.639 2.207zm-14.582-.005v-8.027h1.787v5.25l4.297-5.25h1.542v8.027h-1.793v-5.25l-4.297 5.25zm-5.951 0v-6.453h-2.777v-1.572h7.32v1.572h-2.756v6.453zm-9.098.002h-1.793v-8.027h1.793v3.177h1.317l2.311-3.177h2.04l-2.912 3.98 3.227 4.045h-2.055l-2.644-3.327h-1.284v3.327zm-7.278-6.756a2.186 2.186 0 0 0-2.355 2.073h4.448c.096-.702-.337-2.073-2.093-2.073zm-4.147 2.742a4.025 4.025 0 0 1 4.067-4.232c3.19 0 4.292 2.574 3.778 4.898h-6.036c.198 1.438 1.605 2.04 3.077 2.04a5.851 5.851 0 0 0 2.536-.569v1.538a6.872 6.872 0 0 1-2.873.552c-2.457 0-4.55-1.402-4.55-4.227zm-5.887 2.708c1.81-.084 2.874-1.154 2.874-2.708 0-1.555-1.065-2.625-2.874-2.709zm-4.613-2.708c0 1.555 1.07 2.624 2.874 2.708v-5.417c-1.804.086-2.874 1.157-2.874 2.709zm2.874 7.69v-3.46c-2.66-.082-4.66-1.69-4.66-4.228 0-2.54 2-4.144 4.66-4.228v-3.46h1.74v3.46c2.66.082 4.666 1.688 4.666 4.228 0 2.539-2.007 4.144-4.667 4.227v3.461zm-10.537-4.982c1.809-.084 2.88-1.154 2.88-2.708 0-1.555-1.071-2.625-2.88-2.709zm-4.613-2.708c0 1.555 1.07 2.624 2.874 2.708v-5.417c-1.804.086-2.874 1.157-2.874 2.709zm2.874 7.69v-3.46c-2.654-.082-4.662-1.69-4.662-4.228 0-2.54 2.008-4.144 4.662-4.228v-3.46h1.739v3.46c2.66.082 4.666 1.688 4.666 4.228 0 2.539-2.006 4.144-4.666 4.227v3.461zm-15.498-14.83a7.449 7.449 0 0 1 3.344-.77c3.056 0 6.187 1.939 6.187 6.202 0 4.146-3.147 5.935-6.224 5.935a7.528 7.528 0 0 1-3.307-.769v-1.923c.881.627 1.942.95 3.023.92 2.157 0 4.298-.886 4.581-3.444h-5.73v-1.705h5.698c-.331-2.491-2.392-3.444-4.511-3.444a5.488 5.488 0 0 0-3.061.852V1731z"/><path id="u5x5b" d="M1191.54 1663.139h2.671v2.683h-2.67zm-2.664-12.074h-13.341v2.682h13.34zm-13.341-2.684h13.34v-2.683h-13.34zm0 24.146h-12.009v25.488h12.009zm18.676-18.782a9.38 9.38 0 0 1 9.339 9.39v10.733h-2.67v-8.049h-4.003v-2.683h4.002a6.696 6.696 0 0 0-6.668-6.708H1170.2a6.7 6.7 0 0 0-6.673 6.708h25.35v2.683h-25.35v4.024h13.341a1.338 1.338 0 0 1 1.333 1.342v28.173a1.338 1.338 0 0 1-1.333 1.342h-13.34v2.683a1.338 1.338 0 0 0 1.337 1.341h18.677v2.684h-18.677a4.014 4.014 0 0 1-4.003-4.025v-40.247a9.376 9.376 0 0 1 9.339-9.39h2.665v-9.392a1.34 1.34 0 0 1 1.337-1.342h16.007a1.337 1.337 0 0 1 1.332 1.342v9.392h2.67zm16.965 46.87a1.302 1.302 0 0 0 0-1.835 1.288 1.288 0 0 0-1.825 0 1.327 1.327 0 0 1-1.884 0l-16.686-16.78a1.345 1.345 0 0 1-.005-1.898h.005a1.3 1.3 0 0 0 0-1.83 1.319 1.319 0 0 0-1.825 0 1.3 1.3 0 0 0 0 1.83 1.341 1.341 0 0 1-.941 2.292c-.354 0-.693-.141-.942-.393a1.283 1.283 0 0 0-1.825 0 1.3 1.3 0 0 0 0 1.833 1.283 1.283 0 0 0 1.825 0 1.326 1.326 0 0 1 1.883 0l16.686 16.783a1.338 1.338 0 0 1 0 1.897 1.3 1.3 0 0 0 0 1.831c.51.49 1.315.49 1.825 0a1.3 1.3 0 0 0 0-1.831 1.345 1.345 0 0 1-.032-1.897 1.327 1.327 0 0 1 1.884-.034l.032.034a1.285 1.285 0 0 0 1.825 0zm-14.85-5.578l-1.82-1.832-5.55 5.576a1.326 1.326 0 0 1-1.883 0 1.303 1.303 0 0 0-1.852 1.832 1.284 1.284 0 0 0 1.852.001 1.325 1.325 0 0 1 1.883 0 1.34 1.34 0 0 1 0 1.898 1.3 1.3 0 0 0 0 1.83c.51.491 1.316.491 1.825 0a1.297 1.297 0 0 0 0-1.828 1.338 1.338 0 0 1 0-1.897zm3.772-7.46l1.825 1.833 5.544-5.575a1.326 1.326 0 0 1 1.884 0 1.284 1.284 0 0 0 1.825 0 1.302 1.302 0 0 0 0-1.833 1.285 1.285 0 0 0-1.825 0 1.325 1.325 0 0 1-1.884 0 1.35 1.35 0 0 1 0-1.898 1.3 1.3 0 0 0 0-1.83 1.317 1.317 0 0 0-1.825 0 1.3 1.3 0 0 0 0 1.83c.524.524.526 1.372.006 1.898h-.006zm13.743 10.42a3.97 3.97 0 0 1-3.34 5.671 3.956 3.956 0 0 1-7.903-.247 4.025 4.025 0 0 1 .38-1.694l-4.769-4.793-4.762 4.794a3.96 3.96 0 1 1-7.524 1.94 3.978 3.978 0 1 1 .481-7.94c.502.03.992.157 1.445.374l4.768-4.792-4.768-4.793a3.974 3.974 0 1 1-1.926-7.57 3.95 3.95 0 0 1 1.15-2.571 3.965 3.965 0 0 1 6.379 4.513l4.762 4.79 4.763-4.792a3.96 3.96 0 1 1 7.524-1.94 3.979 3.979 0 1 1-.476 7.944 3.906 3.906 0 0 1-1.45-.374l-4.768 4.79 4.768 4.794a3.946 3.946 0 0 1 5.266 1.896z"/></defs><g><g transform="translate(-1115 -1643)"><g><use fill="#fff" xlink:href="#u5x5a"/></g><g><use fill="#fff" xlink:href="#u5x5b"/></g></g></g></svg>