<svg xmlns="http://www.w3.org/2000/svg" xmlns:xlink="http://www.w3.org/1999/xlink" width="125" height="125" viewBox="0 0 125 125"><defs><path id="681ma" d="M1484.916 1746.803h9.65v1.755h-3.864v9.952h-1.906v-9.948h-3.88v-1.756zm-10.151 11.707v-11.704h1.91v4.882h2.307l3.259-4.882h2.156l-3.88 5.701 4.18 6.003h-2.157l-3.526-5.066h-2.339v5.066zm-17.387 0l3.66-6.003-3.36-5.7h2.14l2.756 4.881h1.793v-4.882h1.905v4.882h1.772l2.756-4.882h2.156l-3.377 5.701 3.66 6.003h-2.135l-3.077-5.066h-1.755v5.066h-1.905v-5.066h-1.777l-3.055 5.066zm-6.144-8.025h1.873l-3.762 9.112c-.867 2.09-2.001 2.792-3.227 2.792a4.513 4.513 0 0 1-1.048-.133v-1.522c.265.08.541.119.818.117.867 0 1.52-.62 1.986-1.873l.17-.402-3.815-8.092h1.91l2.709 6.052zm-10.162 8.02h-1.793v-6.453h-2.772v-1.571h7.321v1.571h-2.756zm-7.075-4.012a2.423 2.423 0 0 0-2.526-2.588 2.534 2.534 0 1 0 2.526 2.59zm-6.871 0c0-2.775 2.102-4.23 4.345-4.225 2.259 0 4.346 1.455 4.346 4.228 0 2.773-2.087 4.228-4.346 4.228-2.242 0-4.345-1.453-4.345-4.228zm-7.846.32v-.002zm2.372 2.375a2.375 2.375 0 1 0 .005-4.749 2.345 2.345 0 0 0-2.377 2.375 2.374 2.374 0 0 0 2.372 2.374zm4.216-2.41c0 2.54-1.755 3.945-4.18 3.943-2.392 0-4.211-1.536-4.211-4.763 0-2.774 1.033-4.547 2.473-5.45 2.306-1.421 4.062-.803 5.201-1.923v1.742c-1.124.852-2.446.468-4.147 1.421a3.875 3.875 0 0 0-1.707 2.54 3.371 3.371 0 0 1 2.809-1.403 3.699 3.699 0 0 1 3.763 3.895zm-14.032.05c-1.016 0-2.087.317-2.087 1.323 0 .786.702 1.187 1.504 1.187a3.266 3.266 0 0 0 2.323-.953v-1.354a9.327 9.327 0 0 0-1.74-.2zm3.527 1.822a.523.523 0 0 0 .589.585c.182-.007.362-.041.535-.1v1.287a3.162 3.162 0 0 1-1.14.2 1.61 1.61 0 0 1-1.605-.936 4.646 4.646 0 0 1-3.024 1.037c-1.455 0-2.809-.803-2.809-2.458 0-2.056 1.905-2.691 3.58-2.691.702.009 1.401.087 2.087.234v-.284c0-1.003-.734-1.705-2.103-1.705a7.157 7.157 0 0 0-2.896.618v-1.638a9.831 9.831 0 0 1 3.077-.536c2.275 0 3.71 1.087 3.71 3.512v2.875zm-11.06-4.035a2.473 2.473 0 0 0-1.831-.78 2.825 2.825 0 0 0-2.559 1.672v1.956a2.812 2.812 0 0 0 2.558 1.688 2.472 2.472 0 0 0 2.494-2.658 2.474 2.474 0 0 0-.661-1.878zm-4.588-.88a3.824 3.824 0 0 1 3.093-1.466c2.408 0 3.977 1.923 3.977 4.227 0 2.305-1.569 4.228-3.977 4.228a3.714 3.714 0 0 1-2.895-1.254v4.714h-1.787v-11.703h1.59zm103.466-11.005h1.835c1.055 0 1.708-.435 1.708-1.255 0-.836-.653-1.27-1.708-1.27h-1.835zm-1.792 1.422v-8.027h1.792v2.676h2.189c2.022 0 3.179 1.154 3.179 2.675 0 1.506-1.157 2.676-3.179 2.676zm-4.165 0h-1.787v-6.454h-2.777v-1.572h7.326v1.572h-2.762zm-9.397-3.68c-1.022 0-2.092.322-2.091 1.323 0 .785.706 1.187 1.508 1.187a3.265 3.265 0 0 0 2.323-.953v-1.354a9.382 9.382 0 0 0-1.739-.2zm3.527 1.823a.52.52 0 0 0 .583.588c.183-.007.363-.04.536-.1v1.287a3.104 3.104 0 0 1-1.135.201 1.601 1.601 0 0 1-1.606-.937 4.657 4.657 0 0 1-3.024 1.037c-1.455 0-2.809-.802-2.809-2.457 0-2.057 1.905-2.692 3.575-2.692.703.009 1.404.087 2.092.234v-.286c0-1.003-.738-1.705-2.108-1.705a7.118 7.118 0 0 0-2.89.619v-1.64a9.798 9.798 0 0 1 3.077-.534c2.27 0 3.71 1.087 3.71 3.51v2.876zm-14.214-2.825h2.393c.636 0 1.134-.251 1.134-.97a.993.993 0 0 0-1.134-1.02h-2.392zm0 3.326h2.494c.734 0 1.27-.25 1.27-1.02 0-.819-.617-1.036-1.238-1.036h-2.526zm2.928 1.362h-4.715v-8.028h4.581c1.622 0 2.542.887 2.542 2.14a1.893 1.893 0 0 1-1.14 1.82c.829.232 1.395.996 1.375 1.856 0 1.238-.786 2.207-2.643 2.207zm-8.279-4.02a2.426 2.426 0 0 0-2.525-2.59 2.534 2.534 0 1 0 2.525 2.592zm-6.872 0c0-2.775 2.11-4.23 4.347-4.226 2.257 0 4.35 1.455 4.35 4.228 0 2.773-2.093 4.227-4.35 4.227-2.238 0-4.347-1.452-4.347-4.227zm-1.29 1.824v-.001zm0 0c0 1.404-1.29 2.406-3.761 2.406a6.677 6.677 0 0 1-3.008-.652v-1.538c.861.43 1.81.659 2.772.668 1.188 0 2.195-.217 2.195-1.103 0-.853-.873-.986-1.676-.986h-1.637v-1.371h1.637c.856 0 1.504-.234 1.504-.903 0-.72-.765-1.07-1.92-1.07a6.35 6.35 0 0 0-2.725.651v-1.536a7.075 7.075 0 0 1 2.944-.635c2.472 0 3.51 1.053 3.51 2.358a1.776 1.776 0 0 1-1.423 1.789c.92.18 1.585.984 1.589 1.922zm-16.15 2.19v-8.027h1.788v5.25l4.296-5.25h1.537v8.027h-1.788v-5.25l-4.297 5.25zm-6.743-6.505c-.235 3.88-.834 6.654-2.975 6.653a3.152 3.152 0 0 1-1.102-.217v-1.404c.165.064.34.098.519.1 1.354 0 1.717-2.675 1.873-6.654h6.186v8.027h-1.793v-6.504h-2.708zm-9.199 2.825c-1.017 0-2.087.322-2.087 1.323 0 .785.701 1.187 1.504 1.187a3.257 3.257 0 0 0 2.322-.953v-1.354a9.265 9.265 0 0 0-1.739-.2zm3.532 1.824zm0 0a.52.52 0 0 0 .584.587c.182-.007.362-.041.535-.1v1.287a3.153 3.153 0 0 1-1.14.201 1.598 1.598 0 0 1-1.6-.937 4.671 4.671 0 0 1-3.029 1.037c-1.456 0-2.81-.802-2.81-2.457 0-2.057 1.906-2.692 3.58-2.692.703.009 1.402.087 2.088.234v-.286c0-1.003-.734-1.705-2.104-1.705a7.17 7.17 0 0 0-2.895.619v-1.639a9.834 9.834 0 0 1 3.077-.535c2.274 0 3.714 1.087 3.714 3.51zm-16.44 1.856zm0 0h-1.723v-8.028h1.81l2.723 4.228 2.74-4.228h1.808v8.027h-1.722v-5.433l-2.291 3.51h-1.07l-2.275-3.51zm-5.287-4.013c0-1.572-1.032-2.659-2.488-2.658a2.826 2.826 0 0 0-2.558 1.671v1.956a2.812 2.812 0 0 0 2.558 1.689c1.455 0 2.488-1.087 2.488-2.658zm-5.25-2.759a3.833 3.833 0 0 1 3.093-1.467c2.409 0 3.981 1.923 3.981 4.228 0 2.305-1.572 4.227-3.981 4.227a3.71 3.71 0 0 1-2.89-1.253v4.714h-1.787v-11.703h1.584v1.254zm-5.148 2.759a2.424 2.424 0 0 0-2.526-2.592 2.534 2.534 0 1 0 2.526 2.592zm-2.526-4.228c2.259 0 4.346 1.454 4.346 4.228 0 2.773-2.087 4.227-4.346 4.227-2.242 0-4.345-1.452-4.345-4.227 0-2.776 2.103-4.23 4.345-4.228zm-6.192-3.463v11.703h-1.904v-4.982h-6.17v4.982h-1.905v-11.703h1.905v4.966h6.17v-4.966z"/><path id="681mb" d="M1441.345 1697.117a1.13 1.13 0 1 1 0-2.259h16.23a1.13 1.13 0 1 1 0 2.262h-16.23zm0-4.65a1.13 1.13 0 1 1 0-2.258h8.594a1.13 1.13 0 0 1 0 2.261h-8.594zm0-10.065a1.13 1.13 0 1 1 0-2.26h16.23a1.131 1.131 0 1 1 0 2.263h-16.23zm0-4.65a1.13 1.13 0 1 1 0-2.259h8.594a1.13 1.13 0 0 1 0 2.262h-8.594zm0-10.7a1.131 1.131 0 0 1 0-2.262h16.23a1.13 1.13 0 1 1 0 2.262h-16.23zm0-4.65a1.131 1.131 0 0 1 0-2.262h8.594a1.13 1.13 0 0 1 0 2.262h-8.594zm-9.927 35.34a4.081 4.081 0 1 0 0 0zm6.351-4.08a6.349 6.349 0 1 1-12.698-.01 6.35 6.35 0 1 1 12.699.01zm-5.27-1.791a1.131 1.131 0 0 1 1.568 1.63l-2.42 2.329c-.437.42-1.13.42-1.568 0l-1.439-1.38a1.13 1.13 0 1 1 1.568-1.632l.653.627 1.637-1.574zm-1.081-17.007a4.082 4.082 0 1 0-.002 8.163 4.082 4.082 0 0 0 .001-8.162zm0 10.424a6.353 6.353 0 0 1-6.347-6.343 6.343 6.343 0 0 1 12.686-.002 6.343 6.343 0 0 1-6.34 6.346zm-2.778-5.551a1.13 1.13 0 1 1 1.568-1.631l.653.626 1.637-1.574a1.13 1.13 0 0 1 1.569 1.628l-2.42 2.329c-.437.42-1.13.42-1.567 0zm2.778-19.588a4.082 4.082 0 1 0-.002 8.163 4.082 4.082 0 0 0 .001-8.162zm0 10.424a6.353 6.353 0 0 1-6.347-6.343 6.343 6.343 0 0 1 12.686-.001 6.343 6.343 0 0 1-6.34 6.345zm-2.778-5.55a1.13 1.13 0 1 1 1.568-1.632l.653.626 1.637-1.573a1.13 1.13 0 1 1 1.569 1.628l-2.42 2.328a1.13 1.13 0 0 1-1.567 0zm39.195-14.649a.677.677 0 0 0-.674-.674h-13.246v2.312h10.238a1.132 1.132 0 0 1 1.13 1.131v51.07c-.001.624-.506 1.13-1.13 1.13h-31.44a1.13 1.13 0 0 1 0-2.26h30.305v-48.806h-41.955v48.805h7.117a1.13 1.13 0 0 1 0 2.262h-8.247a1.133 1.133 0 0 1-1.134-1.131v-51.07a1.133 1.133 0 0 1 1.134-1.13h10.538v-2.313h-13.55a.676.676 0 0 0-.675.674v56.858a.674.674 0 0 0 .674.674h50.24a.677.677 0 0 0 .675-.674zm-35.101 1.638h18.912v-5.02h-3.526a1.13 1.13 0 0 1-1.135-1.2c.011-.13.016-.228.016-.316a4.808 4.808 0 1 0-9.606.313 1.132 1.132 0 0 1-1.129 1.204h-3.532zm34.426-4.574a2.939 2.939 0 0 1 2.939 2.936v56.858a2.939 2.939 0 0 1-2.938 2.936h-50.24a2.94 2.94 0 0 1-2.938-2.936v-56.858a2.94 2.94 0 0 1 2.938-2.936h13.55v-1.576a1.127 1.127 0 0 1 1.128-1.13h3.56a7.072 7.072 0 0 1 14.063 0h3.559a1.132 1.132 0 0 1 1.134 1.13v1.576h13.245zm-24.97-1.047a.959.959 0 1 0-.001-1.918.959.959 0 0 0 .001 1.918zm3.227-.959a3.22 3.22 0 1 1-3.227-3.22 3.229 3.229 0 0 1 3.227 3.22z"/></defs><g><g transform="translate(-1384 -1638)"><g><use fill="#fff" xlink:href="#681ma"/></g><g><use fill="#fff" xlink:href="#681mb"/></g></g></g></svg>