<svg xmlns="http://www.w3.org/2000/svg" xmlns:xlink="http://www.w3.org/1999/xlink" width="54" height="54" viewBox="0 0 54 54"><defs><path id="g4oaa" d="M383.42 742.966c0-14.6 11.835-26.436 26.436-26.436 14.6 0 26.436 11.836 26.436 26.436s-11.836 26.436-26.436 26.436-26.437-11.836-26.437-26.436z"/><path id="g4oac" d="M408.708 739.419l.206-.418v-6.453h2.413v6.488l.235.44 2.698 5.052h-8.074zm10.91 10.908l-6.296-11.791v-5.988h.623a.498.498 0 0 0 .498-.498v-1.008a.499.499 0 0 0-.498-.499H406.35a.499.499 0 0 0-.5.499v1.008c0 .276.224.498.5.498h.57v5.988l-5.795 11.74c-1.481 2.322-.45 4.204 2.304 4.204h13.963c2.753 0 3.75-1.86 2.225-4.153z"/><linearGradient id="g4oab" x1="428.22" x2="391.99" y1="724.94" y2="763.39" gradientUnits="userSpaceOnUse"><stop offset="0" stop-color="#10be00"/><stop offset="1" stop-color="#097100"/></linearGradient></defs><g><g transform="translate(-383 -716)"><use fill="url(#g4oab)" xlink:href="#g4oaa"/></g><g transform="translate(-383 -716)"><use fill="#fff" xlink:href="#g4oac"/></g></g></svg>