<svg xmlns="http://www.w3.org/2000/svg" xmlns:xlink="http://www.w3.org/1999/xlink" width="433" height="131" viewBox="0 0 433 131"><defs><path id="dufia" d="M856.624 1133.155v-51.417h17.732v51.417zm-32.198-13.955h5.588c3.147 0 5.83-1.248 5.83-4.407 0-3.16-2.682-4.41-5.83-4.41h-5.588zm-17.733 13.955v-51.417h17.733v14.691h5.75c12.346 0 23.16 3.893 23.16 18.364 0 14.395-10.813 18.362-23.16 18.362zm-21.626 9.99v-9.99h-40.893v-51.417h17.733v36.58h14.646v-36.58h17.713v36.58h6.516v24.827zm-66.675-9.99v-15.425c-.028-2.895.128-5.79.464-8.667l-18.177 24.092H685.73v-51.417h17.713v15.351a70.66 70.66 0 0 1-.464 8.815l18.177-24.166h14.948v51.417zm-40.731-51.417v51.417h-17.652v-18.289h-14.566v18.289H627.73v-51.417h17.713v18.289h14.566v-18.289zm-97.581-.006h40.63v13.368h-22.918v5.95h20.174v12.488h-20.174v6.098h23.382v13.519h-41.095v-51.417zm-79.547 51.423v-51.417h17.733v36.58h9.2v-36.58h17.712v36.58h9.2v-36.58h17.652v51.417zm-58.382 0v-51.417h50.313v51.417h-17.632v-36.58h-15.03v36.58zm301.216-67.052v-15.425c-.027-2.895.128-5.79.464-8.667l-18.176 24.092h-14.949v-51.417h17.713v15.352a70.661 70.661 0 0 1-.464 8.814l18.176-24.166h14.97v51.417zm-70.73-.004h-17.712v-51.417h17.713v18.216h4.458l10.733-18.216h19.487l-16.34 25.493 16.643 25.928h-19.488l-11.418-18.364h-4.075zm-69.136-51.413v.006zm0 .006h46.48v14.838h-14.403v36.579h-17.652v-36.58H603.5zm-48.8 26.216c-.061-19.538 14.646-27.398 29.374-27.407a40.368 40.368 0 0 1 15.816 3.09v15.129a24.565 24.565 0 0 0-12.67-3.527c-7.363 0-14.343 3.527-14.343 12.708 0 8.08 6.92 11.46 13.96 11.46 5.528 0 10.672-1.32 13.436-3.67v15.498a39.409 39.409 0 0 1-15.736 3.09c-15.191 0-29.837-7.638-29.837-26.37zm-21.869-.513c0-7.051-3.994-11.533-10.894-11.533-6.899 0-10.893 4.482-10.893 11.533 0 7.05 3.994 11.531 10.893 11.531 6.9 0 10.894-4.48 10.894-11.531zm-39.965 0c0-14.764 9.745-26.885 29.071-26.885s29.07 12.12 29.07 26.885c0 14.764-9.744 26.884-29.07 26.884s-29.07-12.12-29.07-26.884zm-20.718-6.684c0-3.602-2.602-5.07-6.678-5.07h-5.588v10.064h5.588c4.076 0 6.678-1.47 6.678-4.994zm-6.516-19.025c13.637 0 24.067 4.554 24.067 19.025 0 14.397-10.43 18.95-24.067 18.95h-5.75v13.442H442.15v-51.417z"/></defs><g><g transform="translate(-442 -1013)"><use fill="#fff" xlink:href="#dufia"/></g></g></svg>