<svg xmlns="http://www.w3.org/2000/svg" xmlns:xlink="http://www.w3.org/1999/xlink" width="23" height="27" viewBox="0 0 23 27"><defs><path id="kykra" d="M1362.524 121.169c0-.017.005-.033.005-.045.183-3.963 2.996-4.388 4.201-4.388h.066c1.493.033 4.03.64 4.201 4.388 0 .017 0 .034.006.045.005.038.392 3.797-1.365 5.776-.697.785-1.625 1.172-2.847 1.183h-.055c-1.216-.011-2.15-.398-2.841-1.183-1.753-1.968-1.377-5.743-1.371-5.776zm4.15 8.451h.178c1.62-.027 2.93-.597 3.897-1.686 2.128-2.399 1.774-6.511 1.735-6.903-.138-2.947-1.53-4.356-2.68-5.014-.857-.492-1.858-.757-2.974-.78h-.094c-.614 0-1.819.1-2.974.758-1.16.658-2.576 2.067-2.714 5.036-.039.392-.393 4.504 1.736 6.903.961 1.09 2.271 1.659 3.89 1.686z"/><path id="kykrb" d="M1378.122 136.441v-.017c0-.044-.005-.088-.005-.138-.033-1.094-.105-3.653-2.504-4.471-.017-.006-.039-.011-.055-.017-2.493-.636-4.566-2.073-4.588-2.09a.745.745 0 1 0-.857 1.222c.094.067 2.294 1.598 5.047 2.305 1.287.459 1.431 1.835 1.47 3.096 0 .05 0 .093.005.138.006.497-.027 1.266-.116 1.708-.895.508-4.405 2.266-9.745 2.266-5.317 0-8.85-1.763-9.75-2.272-.089-.442-.127-1.21-.116-1.708 0-.044.005-.088.005-.138.039-1.26.183-2.637 1.47-3.095 2.753-.708 4.953-2.245 5.047-2.305a.745.745 0 1 0-.857-1.222c-.022.017-2.083 1.454-4.587 2.09a.696.696 0 0 0-.056.016c-2.399.824-2.47 3.383-2.504 4.472 0 .05 0 .094-.005.138v.017c-.006.287-.011 1.763.282 2.504a.709.709 0 0 0 .287.348c.166.11 4.14 2.642 10.79 2.642 6.65 0 10.624-2.537 10.79-2.642a.74.74 0 0 0 .287-.348c.276-.736.27-2.211.265-2.499z"/></defs><g><g transform="translate(-1355 -115)"><use fill="#fff" xlink:href="#kykra"/></g><g transform="translate(-1355 -115)"><use fill="#fff" xlink:href="#kykrb"/></g></g></svg>