<svg xmlns="http://www.w3.org/2000/svg" xmlns:xlink="http://www.w3.org/1999/xlink" width="23" height="27" viewBox="0 0 23 27"><defs><path id="g3i3a" d="M1358.523 145.931c0-.017.006-.033.006-.044.182-3.963 2.996-4.389 4.2-4.389h.067c1.493.033 4.03.641 4.201 4.389 0 .016 0 .033.006.044.005.039.392 3.797-1.366 5.776-.696.785-1.625 1.172-2.846 1.183h-.056c-1.216-.011-2.15-.398-2.84-1.183-1.753-1.968-1.377-5.743-1.372-5.776zm4.152 8.451h.177c1.62-.027 2.93-.596 3.896-1.685 2.128-2.4 1.775-6.512 1.736-6.904-.138-2.946-1.531-4.356-2.68-5.014-.858-.492-1.858-.757-2.975-.779h-.094c-.613 0-1.818.1-2.973.757-1.161.658-2.576 2.068-2.714 5.036-.04.392-.393 4.505 1.735 6.904.962 1.089 2.272 1.658 3.892 1.685z"/><path id="g3i3b" d="M1374.122 161.203v-.016c0-.044-.005-.089-.005-.138-.034-1.095-.105-3.654-2.504-4.472-.017-.006-.04-.011-.056-.017-2.493-.635-4.565-2.072-4.588-2.09a.745.745 0 1 0-.856 1.223c.094.066 2.294 1.597 5.046 2.304 1.288.46 1.432 1.836 1.47 3.096 0 .05 0 .094.006.138.006.498-.027 1.266-.116 1.708-.895.509-4.405 2.266-9.745 2.266-5.317 0-8.85-1.763-9.75-2.272-.089-.442-.128-1.21-.117-1.708 0-.044.006-.088.006-.138.039-1.26.182-2.636 1.47-3.095 2.753-.708 4.953-2.244 5.047-2.305a.745.745 0 1 0-.857-1.222c-.022.017-2.084 1.454-4.588 2.09a.696.696 0 0 0-.055.016c-2.399.824-2.47 3.383-2.504 4.472 0 .05 0 .094-.005.138v.017c-.006.287-.011 1.763.281 2.504a.709.709 0 0 0 .288.348c.166.11 4.14 2.642 10.79 2.642 6.65 0 10.623-2.537 10.79-2.642a.74.74 0 0 0 .287-.348c.276-.735.27-2.211.265-2.499z"/></defs><g><g transform="translate(-1351 -140)"><use xlink:href="#g3i3a"/></g><g transform="translate(-1351 -140)"><use xlink:href="#g3i3b"/></g></g></svg>