<svg xmlns="http://www.w3.org/2000/svg" xmlns:xlink="http://www.w3.org/1999/xlink" width="92" height="32" viewBox="0 0 92 32"><defs><path id="zpvoa" d="M1154.392 4692.22a3.623 3.623 0 0 1 2.764-1.309 3.093 3.093 0 0 1 3.274 3.242v4.916h-1.77v-4.683a1.724 1.724 0 0 0-1.853-1.901 2.796 2.796 0 0 0-2.22 1.324v5.26h-1.768v-7.94h1.573v1.09zm-9.47 4.518c0 .773.699 1.17 1.493 1.17a3.224 3.224 0 0 0 2.298-.942v-1.34a9.654 9.654 0 0 0-1.72-.196c-1.013 0-2.072.312-2.072 1.308zm5.56.493a.516.516 0 0 0 .577.583c.18-.01.36-.043.53-.101v1.27c-.359.138-.74.206-1.123.202a1.583 1.583 0 0 1-1.589-.927 4.603 4.603 0 0 1-2.993 1.028c-1.44 0-2.78-.795-2.78-2.431 0-2.04 1.885-2.665 3.538-2.665.696.008 1.39.084 2.071.228v-.28c0-.991-.73-1.685-2.087-1.685a7.088 7.088 0 0 0-2.86.609v-1.621a9.789 9.789 0 0 1 3.046-.53c2.246 0 3.67 1.076 3.67 3.475v2.845zm-10.774-3.11a2.78 2.78 0 0 0-2.531-1.652 2.635 2.635 0 0 0 0 5.26 2.784 2.784 0 0 0 2.532-1.558zm-6.785.975c0-2.283 1.536-4.185 3.936-4.185a3.718 3.718 0 0 1 3.046 1.457v-1.24h1.589v7.84c0 2.866-2.182 3.957-4.45 3.957a7.218 7.218 0 0 1-3.278-.747v-1.62a6.075 6.075 0 0 0 3.046.81c1.573 0 2.913-.562 2.913-2.347v-1.012a3.636 3.636 0 0 1-2.866 1.277c-2.4 0-3.936-1.907-3.936-4.19zm-2.897-.662c.096-.694-.334-2.05-2.071-2.05a2.16 2.16 0 0 0-2.331 2.05h4.402zm-6.171.662a3.98 3.98 0 0 1 4.02-4.185c3.157 0 4.249 2.548 3.74 4.847h-5.975c.196 1.425 1.589 2.018 3.046 2.018a5.756 5.756 0 0 0 2.51-.561v1.525a6.855 6.855 0 0 1-2.844.546c-2.431 0-4.497-1.393-4.497-4.19zm-6.176 3.973l-4.666-11.58h2.033l3.608 9.397 3.607-9.396h2.034l-4.667 11.579z"/><path id="zpvob" d="M1077.423 4684.937a5.018 5.018 0 0 1 3.142.937c.38.367.787.705 1.218 1.011a4.586 4.586 0 0 0 1.604.44c.294.023.59-.01.87-.1a3.842 3.842 0 0 0 1.52-.737c.277-.272.57-.527.879-.762 1.8-1.113 4.593-.684 6.129.339 1.376.91 2.018 2.293 2.42 4.2l.19 1.526c.006.185.006.37.01.561.007.265.011.53.017.8.019.596-.011 1.193-.09 1.785-.148.832-.244 1.626-.45 2.389-.763 2.818-2.31 5.848-4.498 7.225-.397.249-.83.438-1.282.561-.98.27-1.764-.196-2.383-.498a9.062 9.062 0 0 0-2.463-.662 7.63 7.63 0 0 0-3.845.599c-.346.2-.707.372-1.081.514a3.334 3.334 0 0 1-2.575-.414c-2.382-1.483-3.877-4.412-4.692-7.463-.175-.657-.26-1.34-.393-2.04-.025-.391-.058-.788-.085-1.186a7.22 7.22 0 0 1 .012-2.087c.026-.317.048-.635.073-.948.124-1.055.412-2.084.853-3.05a5.72 5.72 0 0 1 3.269-2.665c.37-.103.748-.183 1.127-.238.17-.011.335-.022.504-.037zm.037-7.347c.453-.03.909-.006 1.356.074a4.769 4.769 0 0 1 2.866 1.822c.405.501.674 1.1.778 1.737-.71.064-1.423.073-2.134.027-2.924 0-4.37-1.35-5.011-3.613.01-.015.026-.031.037-.047zm6.997 7.548c.034-.45.13-.892.287-1.314a6.289 6.289 0 0 1 3.707-3.952 7.601 7.601 0 0 1 1.52-.397c.821-.143 1.404.096 1.706-.598a.977.977 0 0 0 .064-.615c-.17-.62-.843-.752-1.621-.625-.27.032-.535.059-.806.09a9.753 9.753 0 0 0-3.691 1.711c-.371.281-.707.605-1.002.964a1.32 1.32 0 0 1-.338.387h-.017c-.063-.228-.127-.45-.185-.678a6.277 6.277 0 0 0-.53-1.15 6.565 6.565 0 0 0-3.151-2.738c-.35-.106-.705-.217-1.055-.323a4.271 4.271 0 0 1-.73-.138h-4.556a1.44 1.44 0 0 0-.556.424c-.15.37-.18.778-.085 1.165.093.813.335 1.601.715 2.326a6.45 6.45 0 0 0 4.508 3.31c.64.095 1.287.128 1.933.1h2.437c-.009.188-.06.37-.148.536a5.588 5.588 0 0 0-.265 1.552.51.51 0 0 1-.054.026l-.778-.715a6.79 6.79 0 0 0-1.907-1.038 7.941 7.941 0 0 0-4.661.053c-2.818 1.022-4.39 2.78-5.112 5.9a15.147 15.147 0 0 0-.386 3.348v1.277c.093.426.14.861.138 1.297.122.89.298 1.77.53 2.638.836 2.649 1.869 4.948 3.575 6.717a7.397 7.397 0 0 0 3.194 2.134 5.013 5.013 0 0 0 3.088-.121c.402-.196.805-.387 1.202-.578.427-.14.865-.249 1.309-.323.195-.016.391-.026.588-.037a2.967 2.967 0 0 1 1.032.074 7.515 7.515 0 0 1 1.505.414c.297.148.598.296.895.45.328.122.864.175 1.165.323h.954a5.253 5.253 0 0 0 2.213-.763c2.485-1.456 4.042-4.052 5.096-6.923a18.992 18.992 0 0 0 .466-10.927 7.059 7.059 0 0 0-3.92-4.44 8.501 8.501 0 0 0-5.058-.571 6.406 6.406 0 0 0-2.4 1.06c-.253.227-.502.45-.751.677a.263.263 0 0 0-.063.01z"/></defs><g><g transform="translate(-1069 -4675)"><use fill="#fff" xlink:href="#zpvoa"/></g><g transform="translate(-1069 -4675)"><use fill="#fff" xlink:href="#zpvob"/></g></g></svg>